<svg xmlns:xlink="http://www.w3.org/1999/xlink" width="16" height="16" viewBox="0 0 16 16" fill="none" xmlns="http://www.w3.org/2000/svg">
<g clip-path="url(#clip0_885_19710)">
<path fill-rule="evenodd" clip-rule="evenodd" d="M2.38153 2.31957C5.14795 3.46185 7.52627 4.98029 9.58673 6.84333L9.58647 6.8436L9.60747 6.86207L9.58673 6.84333C10.7107 5.16684 10.9171 2.88523 10.1054 0.310764C9.46227 0.123156 8.7238 0.0153809 7.95987 0.0153809C5.78543 0.0153809 3.81495 0.890147 2.38153 2.30661V2.31957ZM15.7143 10.0719C15.4439 11.0579 14.9863 11.9665 14.3965 12.7379V12.7373C14.0173 12.0922 13.6117 11.467 13.1991 10.8548L13.1761 10.8683C13.9201 10.3977 14.7813 10.0963 15.7273 10.0165L15.7143 10.0719ZM13.4981 13.7891C12.7062 14.5478 11.7545 15.1417 10.6441 15.5319H10.6435L10.6445 15.514C10.7324 14.0635 11.2932 12.7403 12.1674 11.7069L12.1205 11.6386C12.5935 12.2927 13.0335 12.9728 13.4981 13.7891ZM13.4981 13.7891L13.5006 13.7866L13.4981 13.7891ZM2.00288 10.7954C2.53178 10.8593 3.07015 10.8927 3.61901 10.8951H3.61951L3.60005 10.8941C3.73876 10.9007 3.87897 10.9041 4.01967 10.9041C6.18315 10.9041 8.161 10.1098 9.66687 8.806C10.2357 9.3794 10.7725 9.98413 11.3099 10.6621C10.0845 12.0507 9.33453 13.868 9.31413 15.8648L9.36153 15.8578C8.91493 15.9396 8.45493 15.9831 7.9834 15.9845C4.47961 15.9825 1.5033 13.7235 0.414003 10.5263C0.93104 10.6404 1.46177 10.7302 2.06924 10.8019L2.00288 10.7954ZM0.414003 10.5263C0.376415 10.5179 0.338899 10.5095 0.301432 10.501L0.4127 10.5225L0.414003 10.5263ZM11.3099 10.6621L11.3175 10.6537L11.3099 10.6621ZM9.66687 8.806L9.6654 8.80453L9.66687 8.806ZM8.73527 7.85507C6.68307 5.99793 4.27358 4.48858 1.6291 3.44625L1.47043 3.39087C0.55085 4.6702 0 6.26836 0 7.99473V8.00127C0.00299375 8.38447 0.0319333 8.75767 0.085322 9.1234L0.0798333 9.079C0.6701 9.24067 1.39459 9.38287 2.13405 9.47667L2.21537 9.48513C4.96963 9.78453 7.2384 9.2122 8.73527 7.85507ZM12.3317 9.7186C11.7776 9.0382 11.1885 8.38773 10.5649 7.76867C11.8757 5.95248 12.2415 3.57045 11.6427 0.909507L11.6871 0.93046C14.2433 2.25619 15.9921 4.92363 16.0001 8.0012C16.0001 8.10187 15.9921 8.20893 15.984 8.31847C15.9754 8.43327 15.9667 8.55067 15.9667 8.66633H15.9597C14.626 8.69273 13.3855 9.09893 12.3677 9.764L12.3317 9.7186ZM10.5649 7.76867L10.5645 7.7682C10.5646 7.76833 10.5648 7.76853 10.5649 7.76867Z" fill="white"/>
</g>
<defs>
<clipPath id="clip0_885_19710">
<rect width="16" height="16" fill="white"/>
</clipPath>
</defs>
</svg>
