<svg xmlns:xlink="http://www.w3.org/1999/xlink" width="16" height="16" viewBox="0 0 16 16" fill="none" xmlns="http://www.w3.org/2000/svg">
<g clip-path="url(#clip0_885_19707)">
<path fill-rule="evenodd" clip-rule="evenodd" d="M14.2342 1.06639C14.892 1.08839 15.4824 1.37582 15.9033 1.82622H15.9028C15.9633 1.88971 16.0003 1.97519 16.0003 2.06966C16.0003 2.17064 15.9578 2.26162 15.8898 2.32611C15.8283 2.38759 15.7438 2.42608 15.6499 2.42608H15.6459C15.5444 2.42608 15.4529 2.38209 15.3894 2.31261L15.3884 2.31161C15.0845 1.98418 14.6501 1.77923 14.1677 1.77923C13.7948 1.77923 13.4503 1.9022 13.1769 2.10615C13.7038 2.80599 13.9103 3.67929 13.3304 4.22567L12.937 4.57209L12.9185 4.54009C12.2017 3.39386 11.1884 2.45107 9.94467 1.79973L10.518 1.25335C11.1043 0.700054 11.9975 0.986834 12.6637 1.57303C13.0669 1.25436 13.576 1.06439 14.1297 1.06439C14.1652 1.06439 14.2002 1.06489 14.2302 1.06639H14.2342ZM6.4985 15.0431C10.0877 15.0431 12.997 12.1338 12.997 8.54463C12.997 4.95547 10.0877 2.04614 6.4985 2.04614C2.90933 2.04614 0 4.95547 0 8.54463C0 12.1338 2.90933 15.0431 6.4985 15.0431Z" fill="white"/>
</g>
<defs>
<clipPath id="clip0_885_19707">
<rect width="16" height="16" fill="white"/>
</clipPath>
</defs>
</svg>
