<svg xmlns:xlink="http://www.w3.org/1999/xlink" width="16" height="16" viewBox="0 0 16 16" fill="none" xmlns="http://www.w3.org/2000/svg">
<g clip-path="url(#clip0_885_19719)">
<path d="M14.5818 3.42526L9.22189 0.327254C8.87123 0.121629 8.45016 0 8.00016 0C7.55016 0 7.12909 0.121629 6.76696 0.333799L6.77843 0.327799L1.45507 3.42581C1.02965 3.65052 0.741661 4.08468 0.728027 4.58756V4.58919V11.2433C0.728027 11.2445 0.728027 11.2455 0.728027 11.2467C0.728027 11.8493 1.05528 12.3757 1.54179 12.6577L1.54943 12.662L6.76369 15.6727C7.11436 15.8784 7.53543 16 7.98543 16C8.43543 16 8.85649 15.8784 9.21863 15.6662L9.20716 15.6722L14.4214 12.6615C14.9282 12.3817 15.2674 11.8526 15.2723 11.2439V4.58919C15.2663 4.09177 14.992 3.65925 14.5884 3.42908L14.5818 3.42581V3.42526ZM4.18928 11.185C3.78949 11.2357 3.39678 10.6832 3.31661 9.95613C3.23643 9.22913 3.49114 8.60353 3.89093 8.55987C4.29073 8.51627 4.68343 9.06167 4.76361 9.78873C4.84379 10.5158 4.59617 11.1414 4.18928 11.185ZM8.05849 5.36697C7.29489 5.36697 6.67696 5.03971 6.67696 4.63992C6.67696 4.24012 7.29489 3.91287 8.05849 3.91287C8.82209 3.91287 9.44009 4.24012 9.44009 4.63992C9.44009 5.03971 8.82209 5.33806 8.05849 5.33806V5.36697ZM8.05849 2.71294C7.29489 2.71294 6.67696 2.39277 6.67696 1.98589C6.67696 1.579 7.29489 1.25884 8.05849 1.25884C8.82209 1.25884 9.44009 1.58609 9.44009 1.98589C9.44009 2.38568 8.82209 2.68403 8.05849 2.68403V2.71294ZM11.3965 12.7995C11.2509 13.4829 10.8293 13.9705 10.4513 13.8832C10.0733 13.7959 9.88403 13.1561 10.0368 12.5017C10.1895 11.8471 10.604 11.3306 10.982 11.4108C11.36 11.491 11.5492 12.0871 11.3965 12.7705V12.7995ZM11.3965 9.09767C11.2509 9.78107 10.8293 10.2687 10.4513 10.1885C10.0733 10.1083 9.88403 9.46147 10.0368 8.79933C10.1895 8.1372 10.604 7.62827 10.982 7.71553C11.36 7.8028 11.5492 8.3848 11.3965 9.0682V9.09767ZM14.0582 11.2793C13.9126 11.9628 13.4838 12.4504 13.1053 12.3702C12.7268 12.29 12.5452 11.6431 12.6908 10.981C12.8364 10.3189 13.2652 9.81 13.6436 9.89727C14.0222 9.98453 14.2038 10.5807 14.0582 11.2646V11.2793ZM14.0582 7.57813C13.9126 8.26153 13.4838 8.74913 13.1053 8.66893C12.7268 8.5888 12.5452 7.94193 12.6908 7.2874C12.8364 6.63289 13.2652 6.11638 13.6436 6.19656C14.0222 6.27673 14.2038 6.88 14.0582 7.56393V7.57813Z" fill="white"/>
</g>
<defs>
<clipPath id="clip0_885_19719">
<rect width="16" height="16" fill="white"/>
</clipPath>
</defs>
</svg>
