<svg xmlns:xlink="http://www.w3.org/1999/xlink" width="16" height="16" viewBox="0 0 16 16" fill="none" xmlns="http://www.w3.org/2000/svg">
<g clip-path="url(#clip0_885_19722)">
<path d="M15.3999 8.6001L14.9332 8.0001L14.3999 5.86676V5.73343L14.5332 4.6001C15.0666 5.6001 15.3332 6.73343 15.3332 8.0001C15.3999 8.2001 15.3999 8.4001 15.3999 8.6001Z" fill="white"/>
<path d="M14.0665 3.80017L13.8665 5.40017L12.5998 5.3335L9.73317 2.60017L9.6665 1.60017L11.2665 1.3335C12.3998 1.9335 13.3332 2.7335 14.0665 3.80017Z" fill="white"/>
<path d="M7.99997 15.4001C6.3333 15.4001 4.7333 14.8667 3.5333 13.8667L3.1333 13.3334L4.5333 11.8667L6.59997 12.2001L8.99997 14.3334L7.99997 15.4001Z" fill="white"/>
<path d="M1.3335 6.66678L1.9335 4.26678L5.06683 2.53345L6.26683 3.60011L5.5335 7.20011L3.5335 8.40011L1.3335 6.66678Z" fill="white"/>
<path d="M12.1336 5.73354V5.93355L11.6002 8.00021L8.20023 9.00021L6.60023 7.66688L6.06689 7.20021L6.86689 3.80022L9.4669 3.13354L12.1336 5.73354Z" fill="white"/>
<path d="M11.7333 13.2001L9.4666 13.9334L7.2666 11.9334L8.19994 9.60011L11.7999 8.53345L13.1333 10.0668L11.7333 13.2001Z" fill="white"/>
<path d="M10.0667 0.866764L9.20003 1.0001V1.06676L6.8667 0.666764C7.20003 0.600098 7.53337 0.600098 7.93337 0.600098C8.73337 0.600098 9.4667 0.733431 10.0667 0.866764Z" fill="white"/>
<path d="M6.26663 0.800049L5.39997 1.60005L2.1333 3.46671C3.19997 2.13338 4.59997 1.20005 6.26663 0.800049Z" fill="white"/>
<path d="M0.600098 7.93352L1.13343 7.26685L3.53343 9.20019L4.13343 11.4669L2.8001 12.9335L2.2001 12.5335C1.26676 11.3335 0.666764 9.73352 0.666764 8.06685C0.600098 8.00019 0.600098 7.93352 0.600098 7.93352Z" fill="white"/>
<path d="M12.5333 13.8668L12.2666 13.3334L13.8666 9.73338L14.7333 8.80005L15.1999 9.40005C14.9333 11.2001 13.9333 12.8001 12.5333 13.8668Z" fill="white"/>
</g>
<defs>
<clipPath id="clip0_885_19722">
<rect width="16" height="16" fill="white"/>
</clipPath>
</defs>
</svg>
