<svg xmlns:xlink="http://www.w3.org/1999/xlink" width="16" height="16" viewBox="0 0 16 16" fill="none" xmlns="http://www.w3.org/2000/svg">
<g clip-path="url(#clip0_885_19716)">
<path fill-rule="evenodd" clip-rule="evenodd" d="M7.92487 0.554443L14.9535 7.58307L14.953 7.58367L14.9547 7.58534C15.5979 8.18954 16 9.04781 16 10.0004C16 11.8303 14.5169 13.3134 12.687 13.3134C11.7349 13.3134 10.8761 12.9114 10.2702 12.2664L7.92487 9.92114L5.58127 12.2647C4.98824 12.8214 4.19028 13.1626 3.31302 13.1626C1.48313 13.1626 0 11.6795 0 9.84967C0 8.97187 0.341186 8.17387 0.89624 7.58307L7.92487 0.554443ZM7.9246 12.3184L11.0517 15.4454H4.79753L7.9246 12.3184Z" fill="white"/>
</g>
<defs>
<clipPath id="clip0_885_19716">
<rect width="16" height="16" fill="white"/>
</clipPath>
</defs>
</svg>
