<svg xmlns:xlink="http://www.w3.org/1999/xlink" width="16" height="16" viewBox="0 0 16 16" fill="none" xmlns="http://www.w3.org/2000/svg">
<g clip-path="url(#clip0_885_19713)">
<path fill-rule="evenodd" clip-rule="evenodd" d="M13.2001 0H2.79985L0 2.79985V13.2001L2.79985 16H13.2001L16 13.2001V2.79985L13.2001 0ZM14.1749 12.0149L11.9931 14.1967H3.99277L1.81093 12.0149V4.01459L3.99277 1.83275H11.9931L14.1749 4.01459V12.0149ZM8.0002 5.95646H7.98547C7.4836 5.95646 7.0762 6.36337 7.0762 6.86573C7.0762 7.36813 7.48307 7.775 7.98547 7.775C8.48727 7.775 8.89473 7.36813 8.89473 6.86573V6.85867C8.89093 6.36501 8.49327 5.96519 8.00073 5.95701H8.0002V5.95646ZM4.69153 2.90955H11.3096L13.0916 4.69157V11.3097L11.3096 13.0917H4.69153L2.90951 11.3097V4.69157L4.69153 2.90955ZM6.99667 11.3467C7.02553 11.3467 7.0528 11.3413 7.0768 11.3315L7.1074 11.3238C8.90247 10.8078 10.2231 9.17087 10.2623 7.21487C10.2623 5.75303 9.45507 4.6692 8.00027 4.6692H7.99973C6.81007 4.6692 5.84299 5.62158 5.81845 6.8074L5.81899 6.80087C5.81517 6.85107 5.81299 6.9018 5.81299 6.95307C5.81299 7.99 6.65137 8.8316 7.68773 8.83653H7.69373C8.01067 8.82233 8.3134 8.75413 8.5752 8.6478C8.37887 9.61487 7.1352 10.0442 6.69173 10.1822C6.51718 10.2405 6.48063 10.3425 6.51718 10.4587L6.78607 11.1858L6.78667 11.1875C6.81227 11.2791 6.89627 11.3467 6.99667 11.3467Z" fill="white"/>
</g>
<defs>
<clipPath id="clip0_885_19713">
<rect width="16" height="16" fill="white"/>
</clipPath>
</defs>
</svg>
