<svg xmlns:xlink="http://www.w3.org/1999/xlink" xmlns="http://www.w3.org/2000/svg" class="svg-icon svelte-10mcogx" width="32"  height="32" ><defs><symbol id="icon-currency-bch" viewBox="0 0 32 32">
<path fill="#8dc351" style="fill: var(--color23, #8dc351)" d="M32 16c0 8.837-7.163 16-16 16s-16-7.163-16-16c0-8.837 7.163-16 16-16s16 7.163 16 16z"></path>
<path fill="#fff" style="fill: var(--color3, #fff)" d="M20.305 9.75c-1.070-1.83-3-1.705-5.19-0.92l-1.235-2.66-1.615 0.75 1.2 2.58-1.285 0.615-1.18-2.615-1.615 0.745 1.23 2.655c-0.345 0.17-0.69 0.34-1.025 0.5v0l-2.23 1.030 0.8 1.73s1.18-0.58 1.17-0.545c0.139-0.089 0.308-0.141 0.49-0.141 0.321 0 0.603 0.164 0.768 0.413l0.002 0.003 1.4 3.025 0.175-0.070-0.17 0.080 1.965 4.24c0.029 0.070 0.046 0.152 0.046 0.237 0 0.277-0.179 0.512-0.427 0.597l-0.004 0.001c0.030 0-1.175 0.545-1.175 0.545l0.57 2.080 2.105-0.975 1.16-0.525 1.265 2.67 1.615-0.745-1.23-2.66c0.445-0.195 0.875-0.39 1.295-0.585l1.225 2.645 1.595-0.75-1.24-2.7c2.645-1.415 4.23-3 3.285-5.64-0.76-2.145-2.155-2.615-3.865-2.27 0.715-0.89 0.91-2 0.125-3.34zM20.7 16.54c0.935 2-2.61 3.37-3.705 3.88l-1.645-3.56c1.095-0.505 4.385-2.415 5.35-0.32zM17.625 11.87c0.845 1.825-2.12 2.94-3.030 3.36l-1.495-3.23c0.9-0.42 3.645-2.035 4.525-0.13z"></path>
</symbol></defs><use xlink:href="#icon-currency-bch" stroke="#557086" fill="#557086" stroke-width="0px"></use></svg>