<svg xmlns:xlink="http://www.w3.org/1999/xlink" xmlns="http://www.w3.org/2000/svg" class="svg-icon svelte-10mcogx" width="32"  height="32" ><defs><symbol id="icon-currency-bnb" viewBox="0 0 32 32">
<path fill="#f3ba2f" style="fill: var(--color173, #f3ba2f)" d="M32 16c0 8.837-7.163 16-16 16s-16-7.163-16-16c0-8.837 7.163-16 16-16s16 7.163 16 16z"></path>
<path fill="#fff" style="fill: var(--color3, #fff)" d="M12.116 14.404l3.884-3.884 3.886 3.886 2.26-2.26-6.146-6.146-6.144 6.144 2.26 2.26zM6 16l2.26-2.26 2.26 2.26-2.26 2.26-2.26-2.26zM12.116 17.596l3.884 3.884 3.886-3.886 2.26 2.259-6.146 6.147-6.147-6.147 2.263-2.257zM21.48 16l2.26-2.26 2.26 2.26-2.26 2.26-2.26-2.26zM18.292 15.998h0.002v0.002l-2.294 2.294-2.295-2.294 0.004-0.003 0.596-0.597 1.695-1.694 2.293 2.293z"></path>
</symbol></defs><use xlink:href="#icon-currency-bnb" stroke="#557086" fill="#557086" stroke-width="0px"></use></svg>