<svg xmlns:xlink="http://www.w3.org/1999/xlink" xmlns="http://www.w3.org/2000/svg" class="svg-icon svelte-10mcogx" width="32"  height="32" ><defs><symbol id="icon-currency-btc" viewBox="0 0 32 32">
<path fill="#f7931a" style="fill: var(--color24, #f7931a)" d="M31.965 16.035c0 8.817-7.148 15.965-15.965 15.965s-15.965-7.148-15.965-15.965c0-8.817 7.148-15.965 15.965-15.965s15.965 7.148 15.965 15.965z"></path>
<path fill="#fff" style="fill: var(--color3, #fff)" d="M23.175 14.060c0.31-2.090-1.28-3.215-3.46-3.965l0.705-2.835-1.72-0.43-0.7 2.76c-0.455-0.115-0.92-0.22-1.38-0.325l0.7-2.765-1.725-0.43-0.705 2.83c-0.375-0.085-0.745-0.17-1.1-0.26v0l-2.38-0.595-0.455 1.84s1.28 0.295 1.25 0.31c0.458 0.057 0.809 0.444 0.809 0.913 0 0.031-0.002 0.061-0.004 0.091l0-0.004-0.805 3.23c0.071 0.017 0.131 0.036 0.189 0.058l-0.009-0.003-0.18-0.045-1.13 4.5c-0.081 0.257-0.318 0.441-0.597 0.441-0.069 0-0.135-0.011-0.197-0.032l0.004 0.001s-1.255-0.31-1.255-0.31l-0.855 1.965 2.245 0.555 1.23 0.32-0.715 2.865 1.725 0.43 0.705-2.835c0.47 0.125 0.925 0.245 1.375 0.355l-0.705 2.825 1.725 0.43 0.71-2.86c2.945 0.555 5.155 0.33 6.085-2.33 0.75-2.14-0.035-3.375-1.585-4.18 1.13-0.24 1.975-0.985 2.205-2.515zM19.23 19.585c-0.53 2.145-4.135 1-5.305 0.695l0.945-3.78c1.17 0.275 4.92 0.855 4.36 3.085zM19.765 14.030c-0.5 1.95-3.5 0.955-4.46 0.715l0.86-3.44c0.97 0.24 4.105 0.695 3.6 2.725z"></path>
</symbol></defs><use xlink:href="#icon-currency-btc" stroke="#B1BAD3" fill="#B1BAD3" stroke-width="0px"></use></svg>