<svg xmlns:xlink="http://www.w3.org/1999/xlink" xmlns="http://www.w3.org/2000/svg" class="svg-icon svelte-10mcogx" width="32"  height="32" ><defs><symbol id="icon-currency-dai" viewBox="0 0 32 32">
<path fill="#f5ac37" style="fill: var(--color165, #f5ac37)" d="M16 0c8.84 0 16 7.16 16 16s-7.16 16-16 16-16-7.16-16-16 7.16-16 16-16z"></path>
<path fill="#fefefd" style="fill: var(--color166, #fefefd)" d="M16.587 17.133h6.080c0.133 0 0.187 0 0.2-0.173 0.053-0.613 0.053-1.24 0-1.853 0-0.12-0.053-0.173-0.187-0.173h-12.107c-0.147 0-0.187 0.053-0.187 0.187v1.773q0 0.227 0.24 0.227h5.96zM22.187 12.853s0.013-0.093 0-0.133c-0.107-0.227-0.227-0.427-0.36-0.627-0.213-0.333-0.453-0.653-0.747-0.933-0.133-0.173-0.293-0.32-0.467-0.453-0.867-0.733-1.893-1.253-3-1.52-0.56-0.12-1.133-0.187-1.693-0.187h-5.36c-0.147 0-0.173 0.053-0.173 0.187v3.547c0 0.147 0 0.187 0.187 0.187h11.533s0.107-0.027 0.12-0.080h-0.053zM22.187 19.213c-0.173-0.013-0.347-0.013-0.507 0h-11.093c-0.147 0-0.2 0-0.2 0.2v3.467c0 0.16 0 0.2 0.2 0.2h5.12c0.24 0.013 0.493 0 0.733-0.053 0.747-0.053 1.48-0.213 2.173-0.48 0.253-0.093 0.493-0.2 0.733-0.333h0.067c1.2-0.627 2.173-1.6 2.787-2.813 0 0 0.067-0.147 0-0.187v0zM8.373 24.88v-5.533c0-0.133 0-0.147-0.16-0.147h-2.173c-0.12 0-0.173 0-0.173-0.16v-1.907h2.32c0.133 0 0.187 0 0.187-0.173v-1.88c0-0.12 0-0.147-0.16-0.147h-2.173c-0.12 0-0.173 0-0.173-0.16v-1.76c0-0.107 0-0.133 0.16-0.133h2.147c0.147 0 0.187 0 0.187-0.187v-5.387c0-0.16 0-0.2 0.2-0.2h7.493c0.547 0.027 1.080 0.080 1.627 0.187 1.107 0.2 2.16 0.6 3.133 1.16 0.64 0.373 1.24 0.84 1.76 1.36 0.4 0.413 0.747 0.853 1.067 1.333s0.573 1 0.787 1.533c0.027 0.133 0.16 0.24 0.293 0.213h1.787q0.227 0 0.24 0.227v1.64c0 0.16-0.053 0.2-0.227 0.2h-1.387c-0.133 0-0.187 0-0.173 0.187 0.053 0.613 0.053 1.227 0 1.827 0 0.173 0 0.187 0.187 0.187h1.573c0.067 0.093 0 0.187 0 0.267 0 0.12 0 0.227 0 0.347v1.213c0 0.173-0.053 0.227-0.2 0.227h-1.893c-0.133-0.027-0.253 0.053-0.293 0.187-0.453 1.173-1.173 2.213-2.107 3.067-0.333 0.307-0.693 0.6-1.067 0.853-0.4 0.227-0.787 0.467-1.2 0.667-0.76 0.333-1.547 0.587-2.36 0.747-0.773 0.133-1.56 0.2-2.347 0.187h-6.88s0 0 0 0z"></path>
</symbol></defs><use xlink:href="#icon-currency-dai" stroke="#557086" fill="#557086" stroke-width="0px"></use></svg>