<svg xmlns:xlink="http://www.w3.org/1999/xlink" xmlns="http://www.w3.org/2000/svg" class="svg-icon svelte-10mcogx" width="32"  height="32" ><defs><symbol id="icon-currency-shib" viewBox="0 0 32 32">
<path fill="#eb0a29" style="fill: var(--color28, #eb0a29)" d="M16 0c8.84 0 16 7.16 16 16s-7.16 16-16 16-16-7.16-16-16 7.16-16 16-16z"></path>
<path fill="#000" style="fill: var(--color61, #000)" d="M22.213 16.48s-0.173 0.227-0.347 0.347c-0.493 0.36-1.36 0.693-2.253 0.853-0.507 0.093-1.013 0.107-1.16 0.027-0.093-0.053-0.107-0.093-0.080-0.213 0.080-0.267 0.32-0.56 0.693-0.827 0.187-0.133 0.96-0.613 1.32-0.8 0.6-0.32 1.080-0.52 1.4-0.56 0.107-0.013 0.227-0.013 0.267 0 0.067 0.027 0.133 0.213 0.16 0.44 0.013 0.12 0 0.653 0 0.747z"></path>
<path fill="#000" style="fill: var(--color61, #000)" d="M13.88 17.653s-0.133 0.093-0.253 0.107-0.493 0-0.693-0.013c-0.747-0.093-1.547-0.333-2.12-0.613-0.32-0.16-0.56-0.32-0.733-0.493l-0.093-0.107v-0.133c-0.027-0.227-0.027-0.6 0-0.733 0.013-0.107 0.053-0.213 0.107-0.307t0.16-0.040c0.16 0 0.28 0.027 0.493 0.093 0.44 0.133 1.080 0.453 1.867 0.933 0.653 0.387 0.893 0.573 1.080 0.84 0.133 0.16 0.213 0.387 0.187 0.467z"></path>
<path fill="#000" style="fill: var(--color61, #000)" d="M18.88 22.573s-0.040 0.187-0.093 0.387-0.093 0.36-0.093 0.373c-0.040 0-0.080 0-0.107 0h-0.107l-0.16 0.373c-0.080 0.2-0.16 0.387-0.173 0.413l-0.027 0.053-0.16-0.24v-0.973h-0.027s-0.493 0.080-0.68 0.093c-0.773 0.080-1.547 0.067-2.32-0.053-0.12-0.013-0.227-0.027-0.227-0.027s0 0.227 0 0.507v0.507s-0.053 0.093-0.053 0.093c-0.027 0.053-0.067 0.093-0.067 0.093s-0.040-0.040-0.133-0.213c-0.093-0.173-0.147-0.347-0.2-0.533l-0.027-0.107h-0.107s-0.107 0.013-0.107 0.013l-0.027-0.133c-0.013-0.067-0.027-0.187-0.040-0.24v-0.107s-0.107-0.080-0.107-0.080c-0.053-0.040-0.107-0.093-0.12-0.093-0.013-0.013-0.027-0.040-0.027-0.067v-0.040h0.44s0.44 0 0.44 0v0.040s0.027 0.040 0.027 0.040h0.147c0.080 0 0.36 0.013 0.6 0.027h0.44s0.107-0.16 0.107-0.16l0.12-0.173h0.147v-0.373s0-0.373 0-0.373l-0.2-0.080c-0.627-0.28-0.987-0.587-1.133-0.973-0.027-0.080-0.027-0.107-0.040-0.453 0-0.347 0-0.387 0.027-0.453 0.053-0.173 0.187-0.32 0.36-0.36 0.067-0.013 0.213-0.013 1.053-0.013h0.987s0.107 0.053 0.107 0.053c0.133 0.067 0.187 0.107 0.267 0.213s0.107 0.2 0.107 0.413c0 0.307-0.027 0.573-0.053 0.68-0.040 0.147-0.12 0.28-0.2 0.4-0.173 0.227-0.493 0.453-0.787 0.56l-0.080 0.027v0.373s0 0.373 0 0.373h0.080s0.080 0.013 0.080 0.013l0.213 0.32h0.48c0.267 0 0.493 0 0.507 0 0.040 0 0.040 0 0.080-0.053l0.040-0.067h0.4c0.307-0.013 0.4 0 0.4 0z"></path>
<path fill="#000" style="fill: var(--color61, #000)" d="M17.013 23.587c-0.067 0.040-0.107 0.053-0.12 0.053 0 0-0.067-0.040-0.107-0.080l-0.093-0.080-0.093 0.107c-0.213 0.227-0.227 0.24-0.28 0.253-0.093 0-0.12 0-0.24-0.187-0.067-0.093-0.107-0.173-0.107-0.173s-0.040 0-0.093 0h-0.093s-0.040 0.080-0.040 0.080l-0.040 0.093-0.080-0.027s-0.133-0.040-0.187-0.080l-0.107-0.053v-0.2h0.947s0.947 0 0.947 0v0.093c0 0.107 0 0.107-0.147 0.2z"></path>
<path fill="#fff" style="fill: var(--color3, #fff)" d="M25.853 19.28s0-0.040 0-0.080c-0.853-0.093-3.267-0.147-5.52 1.707 0 0-0.72-3.32-4.12-3.32s-4.653 3.32-4.653 3.32c-1.907-2.040-4.44-1.893-5.36-1.76 0 0.027 0 0.040 0 0.067-0.027 0.507-0.013 0.76 0.067 1.080 0.267 1.013 1.080 2.12 2.36 3.2 2.093 1.787 4.933 3.067 7.093 3.213 2.24 0.147 5.56-1.16 7.76-3.080 0.347-0.307 0.667-0.627 0.973-0.973 0.213-0.253 0.547-0.693 0.52-0.693 0 0 0 0 0.013-0.013 0 0 0.027-0.013 0.013-0.027 0 0 0-0.013 0.013-0.013s0.013 0 0.013-0.013 0-0.013 0.013-0.013c0 0 0.013-0.013 0-0.027 0 0 0-0.013 0-0.013s0.013 0 0.013-0.013 0-0.013 0.013-0.013 0.013 0 0.013-0.013c0-0.027 0.027-0.053 0.040-0.080 0.053-0.080 0.267-0.453 0.293-0.52 0.2-0.453 0.333-0.867 0.387-1.267 0.027-0.2 0.040-0.547 0.027-0.64zM17.013 23.587c-0.067 0.040-0.107 0.053-0.12 0.053 0 0-0.067-0.040-0.107-0.080l-0.093-0.080-0.093 0.107c-0.213 0.227-0.227 0.24-0.28 0.253-0.093 0-0.12 0-0.24-0.187-0.067-0.093-0.107-0.173-0.107-0.173s-0.040 0-0.093 0h-0.093s-0.040 0.080-0.040 0.080l-0.040 0.093-0.080-0.027s-0.133-0.040-0.187-0.080l-0.107-0.053v-0.2h0.947s0.947 0 0.947 0v0.093c0 0.107 0 0.107-0.147 0.2zM18.787 22.947c-0.053 0.2-0.093 0.36-0.093 0.373-0.040 0-0.080 0-0.107 0h-0.107l-0.147 0.373c-0.080 0.2-0.16 0.387-0.173 0.413l-0.027 0.053-0.16-0.24v-0.973h-0.027s-0.493 0.080-0.68 0.093c-0.773 0.080-1.547 0.067-2.32-0.053-0.12-0.013-0.227-0.027-0.227-0.027s0 0.227 0 0.507v0.507s-0.053 0.093-0.053 0.093c-0.027 0.053-0.067 0.093-0.067 0.093s-0.040-0.040-0.133-0.213c-0.093-0.173-0.147-0.347-0.2-0.533l-0.027-0.107h-0.107s-0.107 0.013-0.107 0.013l-0.027-0.133c-0.013-0.067-0.027-0.187-0.040-0.24v-0.107s-0.107-0.080-0.107-0.080c-0.053-0.040-0.107-0.093-0.12-0.093-0.013-0.013-0.027-0.040-0.027-0.067v-0.040h0.44s0.44 0 0.44 0v0.040s0.027 0.040 0.027 0.040h0.147c0.080 0 0.36 0.013 0.6 0.027h0.44s0.107-0.16 0.107-0.16l0.12-0.173h0.147v-0.373s0-0.373 0-0.373l-0.2-0.080c-0.627-0.28-0.987-0.587-1.133-0.973-0.027-0.080-0.027-0.107-0.040-0.453 0-0.347 0-0.387 0.027-0.453 0.053-0.173 0.187-0.32 0.36-0.36 0.067-0.013 0.213-0.013 1.053-0.013h0.987s0.107 0.053 0.107 0.053c0.133 0.067 0.187 0.107 0.267 0.213s0.107 0.2 0.107 0.413c0 0.307-0.027 0.573-0.053 0.68-0.040 0.147-0.12 0.28-0.2 0.4-0.173 0.227-0.493 0.453-0.787 0.56l-0.080 0.027v0.373s0 0.373 0 0.373h0.080s0.080 0.013 0.080 0.013l0.213 0.32h0.48c0.267 0 0.493 0 0.507 0 0.040 0 0.040 0 0.080-0.053l0.040-0.067h0.4c0.32 0 0.4 0 0.4 0.013 0 0-0.053 0.173-0.107 0.373z"></path>
<path fill="#ffa409" style="fill: var(--color169, #ffa409)" d="M25.827 18.92c0-0.16-0.027-0.387-0.027-0.493-0.147-1.6-0.56-2.92-1.333-4.307-0.027-0.053-0.067-0.107-0.080-0.147 0 0 0-0.027-0.013-0.027 0.107-0.333 0.56-1.707 0.92-3.28 0.48-2.133 0.787-4.627-0.147-5.373 0 0-1.627-0.12-3.8 2.013-0.587 0.587-1.133 1.227-1.613 1.907l-0.147-0.053c-0.88-0.28-1.787-0.467-2.693-0.52-0.28-0.027-1.307-0.027-1.64 0-1.013 0.067-1.787 0.213-2.68 0.52-0.040 0.013-0.067 0.027-0.093 0.040-0.493-0.68-1.053-1.32-1.667-1.893-2.267-2.147-3.947-2.027-3.947-2.027-1 0.773-0.653 3.387-0.147 5.587 0.333 1.453 0.76 2.747 0.907 3.2 0 0.027-0.027 0.053-0.040 0.080-0.827 1.667-1.267 3.28-1.373 4.987 0.92-0.133 3.467-0.28 5.373 1.76 0 0 1.253-3.32 4.653-3.32s4.12 3.32 4.12 3.32c2.253-1.853 4.667-1.8 5.52-1.707 0-0.067 0-0.173-0.013-0.28zM8.267 12.747s-1.32-3.307-0.987-5.187c0.053-0.32 0.16-0.6 0.333-0.813 0 0 1.493 0.147 3.92 2.84 0 0-0.453 0.227-1.080 0.693 0 0 0 0 0 0-0.667 0.507-1.52 1.32-2.187 2.467zM13.88 17.653s-0.133 0.093-0.253 0.107-0.493 0-0.693-0.013c-0.747-0.093-1.547-0.333-2.12-0.613-0.32-0.16-0.56-0.32-0.733-0.493l-0.093-0.107v-0.133c-0.027-0.227-0.027-0.6 0-0.733 0.013-0.107 0.053-0.213 0.107-0.307t0.16-0.040c0.16 0 0.28 0.027 0.493 0.093 0.44 0.133 1.080 0.453 1.867 0.933 0.653 0.387 0.893 0.573 1.080 0.84 0.133 0.16 0.213 0.387 0.187 0.467zM22.2 16.48s-0.173 0.227-0.347 0.347c-0.493 0.36-1.36 0.693-2.253 0.853-0.507 0.093-1.013 0.107-1.16 0.027-0.093-0.053-0.107-0.093-0.080-0.213 0.080-0.267 0.32-0.56 0.693-0.827 0.187-0.133 0.96-0.613 1.32-0.8 0.6-0.32 1.080-0.52 1.4-0.56 0.107-0.013 0.227-0.013 0.267 0 0.067 0.027 0.133 0.213 0.16 0.44 0.013 0.12 0 0.653 0 0.747zM21.613 10.267v0c-0.6-0.48-1.040-0.693-1.040-0.693 2.333-2.68 3.787-2.84 3.787-2.84 0.16 0.213 0.267 0.493 0.32 0.813 0.333 1.893-0.947 5.2-0.947 5.2-0.533-0.947-1.253-1.787-2.107-2.467z"></path>
<path fill="#ff9300" style="fill: var(--color170, #ff9300)" d="M24.68 7.547c-0.28-0.040-1.573-0.040-3.053 2.72v0c-0.6-0.48-1.040-0.693-1.040-0.693 2.333-2.68 3.787-2.84 3.787-2.84 0.16 0.213 0.267 0.493 0.32 0.813z"></path>
<path fill="#ff8300" style="fill: var(--color171, #ff8300)" d="M23.733 12.747c-0.533-0.96-1.253-1.787-2.107-2.467 1.48-2.773 2.773-2.76 3.053-2.72v0c0.333 1.893-0.947 5.2-0.947 5.2z"></path>
<path fill="#ff8300" style="fill: var(--color171, #ff8300)" d="M24.733 7.56s-0.040 0-0.053 0h0.053z"></path>
<path fill="#ff9300" style="fill: var(--color170, #ff9300)" d="M11.533 9.573s-0.453 0.227-1.080 0.693c0 0 0 0 0 0-1.533-2.773-2.88-2.76-3.16-2.72 0.053-0.32 0.16-0.6 0.333-0.813 0 0 1.507 0.147 3.92 2.84z"></path>
<path fill="#ff8300" style="fill: var(--color171, #ff8300)" d="M10.453 10.267c-0.667 0.52-1.533 1.32-2.187 2.467 0 0-1.32-3.307-0.987-5.2v0c0.28-0.040 1.64-0.040 3.16 2.72z"></path>
<path fill="#ff8300" style="fill: var(--color171, #ff8300)" d="M7.293 7.547s-0.040 0-0.053 0h0.053z"></path>
<path fill="#fff" style="fill: var(--color3, #fff)" d="M20.16 14.573s-1.133 0.067-0.987-0.813 1.027-0.987 1.267-0.96 1.24 0.387 1.067 1.133-0.427 0.6-0.56 0.64-0.773 0-0.773 0z"></path>
<path fill="#fff" style="fill: var(--color3, #fff)" d="M11.813 14.573s-1.133 0.067-0.987-0.813 1.027-0.987 1.267-0.96 1.24 0.387 1.067 1.133-0.427 0.6-0.56 0.64-0.773 0-0.773 0z"></path>
</symbol></defs><use xlink:href="#icon-currency-shib" stroke="#557086" fill="#557086" stroke-width="0px"></use></svg>