<svg xmlns:xlink="http://www.w3.org/1999/xlink" xmlns="http://www.w3.org/2000/svg" class="svg-icon svelte-10mcogx" width="32"  height="32" ><defs><symbol id="icon-currency-trx" viewBox="0 0 32 32">
<path fill="#eb0a29" style="fill: var(--color28, #eb0a29)" d="M31.965 16.035c0 8.817-7.148 15.965-15.965 15.965s-15.965-7.148-15.965-15.965c0-8.817 7.148-15.965 15.965-15.965s15.965 7.148 15.965 15.965z"></path>
<path fill="#fff" style="fill: var(--color3, #fff)" d="M6.355 7c0.215 0.064 0.474 0.119 0.74 0.152l0.025 0.003 15.215 2.785c0.078 0.010 0.147 0.045 0.2 0.095l-0-0 4.020 3.825c0.065 0.060 0.075 0.095 0 0.17q-1.68 2.035-3.35 4.075l-6.265 7.655-2.070 2.5-0.065 0.070-0.335-0.83q-1.945-4.88-3.88-9.76-2.090-5.275-4.205-10.565c-0.021-0.049-0.040-0.108-0.054-0.168l-0.001-0.007zM14.755 25.165h0.030c0.055-0.5 0.115-1 0.175-1.5 0.115-0.925 0.225-1.845 0.34-2.77 0.1-0.85 0.2-1.7 0.305-2.55s0.205-1.71 0.31-2.565c0.003-0.013 0.005-0.028 0.005-0.043 0-0.069-0.035-0.131-0.089-0.166l-0.001-0-7.22-6.005h-0.025zM15.915 25.225l8.545-10.41h-0.115l-3.345 0.62-3.895 0.7c-0.1 0-0.125 0.065-0.135 0.155 0 0.275-0.060 0.54-0.095 0.81-0.11 0.925-0.225 1.85-0.335 2.775s-0.205 1.71-0.31 2.565zM9.415 8.725v0.030l0.85 0.745 6.065 5c0.027 0.035 0.068 0.057 0.115 0.057s0.088-0.022 0.115-0.056l0-0q1.92-1.61 3.85-3.215l0.53-0.44zM17.95 14.82c0.15 0 6.5-1.145 6.665-1.2 0 0 0-0.035-0.035-0.050q-1.14-1.070-2.275-2.165c-0.105-0.1-0.155-0.085-0.255 0-0.95 0.8-1.91 1.595-2.865 2.39-0.4 0.335-0.805 0.67-1.235 1.025z"></path>
</symbol></defs><use xlink:href="#icon-currency-trx" stroke="#557086" fill="#557086" stroke-width="0px"></use></svg>