<svg xmlns:xlink="http://www.w3.org/1999/xlink" xmlns="http://www.w3.org/2000/svg" class="svg-icon svelte-10mcogx" width="32"  height="32" ><defs><symbol id="icon-currency-uni" viewBox="0 0 32 32">
<path fill="#ff007a" style="fill: var(--color172, #ff007a)" d="M32 16c0 8.827-7.16 16-16 16s-16-7.173-16-16c0-5.12 2.4-9.667 6.133-12.6 0.080-0.067 0.173-0.133 0.253-0.187 2.68-2.027 6.013-3.213 9.613-3.213 8.84 0 16 7.16 16 16z"></path>
<path fill="#fff" style="fill: var(--color3, #fff)" d="M12.36 5.627c-0.307-0.040-0.32-0.053-0.173-0.080 0.28-0.040 0.933 0.013 1.387 0.12 1.067 0.253 2.013 0.893 3.040 2.040l0.267 0.307 0.387-0.053c1.64-0.267 3.32-0.053 4.72 0.587 0.387 0.173 0.987 0.533 1.067 0.613 0.027 0.027 0.080 0.227 0.107 0.413 0.107 0.693 0.053 1.213-0.16 1.6-0.12 0.227-0.12 0.28-0.040 0.467 0.053 0.147 0.24 0.253 0.4 0.253 0.36 0 0.72-0.56 0.893-1.347l0.080-0.307 0.133 0.147c0.747 0.84 1.347 2 1.427 2.827l0.027 0.227-0.133-0.187c-0.227-0.333-0.427-0.56-0.707-0.747-0.507-0.333-1.027-0.44-2.427-0.52-1.267-0.080-1.987-0.173-2.693-0.413-1.213-0.4-1.827-0.92-3.253-2.813-0.64-0.84-1.027-1.293-1.427-1.68-0.867-0.84-1.733-1.28-2.867-1.453z"></path>
<path fill="#fff" style="fill: var(--color3, #fff)" d="M23.333 7.507c0.027-0.56 0.107-0.933 0.267-1.267 0.053-0.133 0.12-0.253 0.133-0.253s-0.013 0.107-0.053 0.227c-0.12 0.32-0.133 0.787-0.053 1.293 0.107 0.667 0.147 0.747 0.853 1.48 0.32 0.333 0.707 0.76 0.853 0.947l0.253 0.32-0.253-0.24c-0.307-0.293-1.013-0.853-1.173-0.933-0.107-0.053-0.12-0.053-0.187 0.013-0.053 0.053-0.080 0.147-0.080 0.573-0.013 0.667-0.107 1.080-0.32 1.507-0.12 0.227-0.133 0.173-0.027-0.080 0.080-0.187 0.093-0.28 0.093-0.92 0-1.28-0.147-1.587-1.040-2.107-0.227-0.133-0.6-0.32-0.827-0.427-0.24-0.107-0.413-0.187-0.4-0.187 0.027-0.027 0.893 0.227 1.24 0.373 0.52 0.2 0.6 0.227 0.667 0.2 0.040-0.040 0.080-0.16 0.093-0.533z"></path>
<path fill="#fff" style="fill: var(--color3, #fff)" d="M12.96 9.693c-0.613-0.853-1.013-2.187-0.933-3.173l0.027-0.307 0.147 0.027c0.267 0.040 0.72 0.227 0.947 0.36 0.587 0.36 0.853 0.84 1.107 2.053 0.080 0.36 0.173 0.76 0.227 0.893 0.080 0.227 0.36 0.733 0.587 1.067 0.16 0.24 0.053 0.36-0.307 0.32-0.56-0.053-1.307-0.573-1.8-1.24z"></path>
<path fill="#fff" style="fill: var(--color3, #fff)" d="M22.587 16.107c-2.92-1.173-3.947-2.2-3.947-3.92 0-0.253 0.013-0.453 0.013-0.453 0.013 0 0.12 0.093 0.253 0.187 0.587 0.467 1.253 0.68 3.093 0.947 1.080 0.16 1.693 0.28 2.253 0.467 1.787 0.587 2.893 1.8 3.147 3.427 0.080 0.467 0.027 1.373-0.093 1.84-0.107 0.373-0.4 1.040-0.467 1.067-0.013 0-0.040-0.080-0.040-0.187-0.027-0.613-0.333-1.213-0.853-1.667-0.613-0.533-1.413-0.933-3.36-1.707z"></path>
<path fill="#fff" style="fill: var(--color3, #fff)" d="M20.52 16.587c-0.027-0.227-0.107-0.507-0.147-0.613l-0.080-0.227 0.133 0.16c0.187 0.227 0.333 0.48 0.467 0.853 0.107 0.28 0.107 0.373 0.107 0.827s-0.013 0.547-0.107 0.8c-0.147 0.4-0.32 0.68-0.613 0.987-0.533 0.547-1.227 0.84-2.213 0.973-0.173 0.013-0.68 0.053-1.12 0.093-1.107 0.053-1.84 0.173-2.507 0.413-0.093 0.027-0.173 0.053-0.187 0.040-0.027-0.027 0.427-0.293 0.8-0.467 0.52-0.253 1.040-0.387 2.213-0.587 0.573-0.093 1.16-0.2 1.307-0.267 1.453-0.453 2.187-1.587 1.947-2.973z"></path>
<path fill="#fff" style="fill: var(--color3, #fff)" d="M21.867 18.96c-0.387-0.84-0.467-1.64-0.267-2.387 0.027-0.080 0.053-0.147 0.093-0.147s0.12 0.040 0.2 0.107c0.173 0.12 0.547 0.32 1.493 0.84 1.2 0.653 1.867 1.147 2.347 1.72 0.413 0.507 0.667 1.080 0.787 1.787 0.080 0.4 0.027 1.36-0.080 1.76-0.32 1.253-1.067 2.253-2.133 2.827-0.16 0.093-0.293 0.147-0.307 0.147s0.040-0.147 0.133-0.32c0.36-0.747 0.4-1.48 0.133-2.28-0.16-0.507-0.507-1.107-1.173-2.12-0.813-1.173-1-1.493-1.213-1.92z"></path>
<path fill="#fff" style="fill: var(--color3, #fff)" d="M10.88 23.467c1.093-0.92 2.427-1.56 3.667-1.773 0.533-0.093 1.413-0.053 1.907 0.080 0.787 0.2 1.493 0.653 1.853 1.2 0.36 0.533 0.52 0.987 0.68 2 0.053 0.4 0.133 0.813 0.147 0.893 0.12 0.533 0.36 0.947 0.653 1.16 0.453 0.333 1.253 0.36 2.040 0.053 0.133-0.040 0.253-0.093 0.253-0.080 0.027 0.027-0.373 0.293-0.64 0.427-0.373 0.187-0.667 0.253-1.067 0.253-0.707 0-1.307-0.373-1.8-1.107-0.107-0.147-0.307-0.573-0.48-0.973-0.52-1.2-0.787-1.547-1.387-1.947-0.533-0.333-1.213-0.413-1.72-0.16-0.68 0.32-0.853 1.2-0.387 1.72 0.187 0.227 0.547 0.4 0.84 0.44 0.547 0.080 1.013-0.36 1.013-0.893 0-0.36-0.133-0.56-0.48-0.72-0.467-0.2-0.987 0.027-0.973 0.48 0 0.187 0.093 0.307 0.28 0.4q0.12 0.053 0.027 0.040c-0.427-0.093-0.533-0.613-0.187-0.96 0.413-0.413 1.28-0.24 1.573 0.333 0.12 0.24 0.133 0.707 0.027 1-0.253 0.653-0.96 0.987-1.68 0.8-0.48-0.133-0.693-0.267-1.28-0.867-1.027-1.067-1.427-1.267-2.907-1.493l-0.28-0.040 0.307-0.293z"></path>
<path fill="#fff" style="fill: var(--color3, #fff)" d="M12.96 10.467c-0.4-0.453-3.787-4.187-6.573-7.253-0.080 0.053-0.173 0.12-0.253 0.187 2.893 3.533 5.8 7.107 5.987 7.36 0.227 0.307 0.133 0.587-0.227 0.787-0.213 0.12-0.64 0.24-0.84 0.24-0.24 0-0.52-0.12-0.707-0.307-0.133-0.133-0.707-0.973-2.013-3-0.987-1.547-1.827-2.827-1.84-2.84t1.747 3.187c1.133 2.013 1.493 2.733 1.493 2.827 0 0.187-0.053 0.293-0.293 0.56-0.387 0.44-0.573 0.947-0.707 1.987-0.147 1.16-0.547 1.987-1.68 3.387-0.653 0.827-0.76 0.973-0.92 1.307-0.213 0.413-0.267 0.653-0.293 1.187-0.040 0.56 0.027 0.907 0.187 1.44 0.147 0.48 0.307 0.787 0.707 1.387 0.333 0.533 0.547 0.933 0.547 1.080 0 0.12 0.027 0.12 0.56 0 1.267-0.293 2.307-0.8 2.88-1.413 0.36-0.387 0.453-0.6 0.453-1.12 0-0.347 0-0.413-0.107-0.627-0.147-0.32-0.427-0.587-1.027-1-0.8-0.547-1.147-0.987-1.227-1.573-0.080-0.507 0.013-0.84 0.453-1.773 0.453-0.96 0.573-1.347 0.653-2.32 0.040-0.627 0.12-0.88 0.293-1.067 0.187-0.2 0.347-0.28 0.813-0.333 0.747-0.107 1.227-0.293 1.613-0.667 0.347-0.307 0.493-0.613 0.507-1.080v-0.333s-0.187-0.213-0.187-0.213zM7.667 20.707c-0.147 0.267-0.427 0.36-0.64 0.2-0.133-0.107-0.133-0.253-0.027-0.413s0.093-0.24-0.040-0.307c-0.093-0.040-0.12-0.093-0.12-0.147 0-0.227 0.373-0.307 0.627-0.133 0.267 0.173 0.36 0.52 0.2 0.8z"></path>
<path fill="#fff" style="fill: var(--color3, #fff)" d="M14.547 13.053c-0.227-0.12-0.68-0.16-0.92-0.093-0.347 0.107-0.693 0.493-0.787 0.867-0.067 0.24-0.040 0.667 0.067 0.8 0.16 0.2 0.307 0.267 0.72 0.267 0.813 0 1.507-0.36 1.573-0.787 0.080-0.347-0.227-0.84-0.653-1.053zM14.573 13.693c-0.093 0.12-0.36 0.24-0.547 0.24-0.293 0-0.6-0.2-0.6-0.4 0-0.373 0.6-0.587 1-0.333 0.213 0.133 0.267 0.32 0.147 0.493z"></path>
</symbol></defs><use xlink:href="#icon-currency-uni" stroke="#557086" fill="#557086" stroke-width="0px"></use></svg>