<svg xmlns:xlink="http://www.w3.org/1999/xlink" xmlns="http://www.w3.org/2000/svg" class="svg-icon svelte-10mcogx" width="32"  height="32" ><defs><symbol id="icon-currency-usd" viewBox="0 0 32 32">
<path fill="#6cde07" style="fill: var(--color77, #6cde07)" d="M32 16c0 8.837-7.163 16-16 16s-16-7.163-16-16c0-8.837 7.163-16 16-16s16 7.163 16 16z"></path>
<path fill="#1b3802" style="fill: var(--color82, #1b3802)" d="M17.173 24.44v2.187h-1.933v-2.16c-2.52-0.2-4.36-1.187-5.64-2.547l1.573-2.187c0.947 1 2.32 1.893 4.067 2.16v-4.68c-2.493-0.627-5.133-1.547-5.133-4.707 0-2.467 2.013-4.44 5.133-4.707v-2.227h1.933v2.28c1.987 0.2 3.613 0.973 4.867 2.187l-1.627 2.107c-0.893-0.893-2.040-1.453-3.253-1.693v4.173c2.52 0.68 5.24 1.627 5.24 4.867 0 2.467-1.6 4.6-5.24 4.947zM15.24 14.12v-3.773c-1.387 0.147-2.227 0.893-2.227 1.987 0 0.947 0.947 1.427 2.227 1.787zM19.533 19.76c0-1.12-1-1.627-2.347-2.040v4.173c1.667-0.24 2.347-1.213 2.347-2.133z"></path>
</symbol></defs><use xlink:href="#icon-currency-usd" stroke="#B1BAD3" fill="#B1BAD3" stroke-width="0px"></use></svg>