<svg xmlns:xlink="http://www.w3.org/1999/xlink" xmlns="http://www.w3.org/2000/svg" class="svg-icon svelte-10mcogx" width="32"  height="32" ><defs><symbol id="icon-currency-usdc" viewBox="0 0 32 32">
<path fill="#0f97f8" style="fill: var(--color71, #0f97f8)" d="M32 16c0 8.837-7.163 16-16 16s-16-7.163-16-16c0-8.837 7.163-16 16-16s16 7.163 16 16z"></path>
<path fill="#fff" style="fill: var(--color3, #fff)" d="M12.587 28.653c0 0.427-0.347 0.667-0.747 0.547-5.533-1.76-9.52-6.92-9.52-13.040s3.987-11.267 9.52-13.027c0.413-0.133 0.747 0.12 0.747 0.547v1.067c0 0.28-0.213 0.613-0.48 0.707-4.373 1.613-7.493 5.813-7.493 10.707s3.12 9.107 7.493 10.693c0.267 0.093 0.48 0.427 0.48 0.707v1.080z"></path>
<path fill="#fff" style="fill: var(--color3, #fff)" d="M17.133 24.707c0 0.32-0.253 0.573-0.573 0.573h-1.133c-0.32 0-0.573-0.253-0.573-0.573v-1.8c-2.493-0.347-3.707-1.72-4.027-3.627-0.053-0.333 0.2-0.613 0.533-0.613h1.293c0.267 0 0.493 0.2 0.56 0.453 0.24 1.12 0.893 2 2.893 2 1.467 0 2.52-0.827 2.52-2.053s-0.613-1.693-2.773-2.053c-3.187-0.427-4.707-1.4-4.707-3.893 0-1.92 1.467-3.44 3.72-3.747v-1.76c0-0.32 0.253-0.573 0.573-0.573h1.133c0.32 0 0.573 0.253 0.573 0.573v1.813c1.84 0.333 3 1.373 3.387 3.107 0.067 0.333-0.187 0.627-0.533 0.627h-1.2c-0.253 0-0.467-0.173-0.547-0.413-0.333-1.093-1.107-1.587-2.48-1.587-1.507 0-2.293 0.72-2.293 1.747 0 1.080 0.44 1.627 2.76 1.947 3.133 0.427 4.76 1.32 4.76 3.987 0 2.027-1.507 3.667-3.867 4.027v1.827h-0.013z"></path>
<path fill="#fff" style="fill: var(--color3, #fff)" d="M20.16 29.2c-0.413 0.133-0.747-0.12-0.747-0.547v-1.067c0-0.32 0.187-0.613 0.48-0.707 4.36-1.6 7.493-5.8 7.493-10.693s-3.12-9.107-7.493-10.693c-0.267-0.093-0.48-0.427-0.48-0.707v-1.067c0-0.427 0.347-0.667 0.747-0.547 5.533 1.733 9.52 6.907 9.52 13.013s-3.987 11.267-9.52 13.040z"></path>
</symbol></defs><use xlink:href="#icon-currency-usdc" stroke="#557086" fill="#557086" stroke-width="0px"></use></svg>