<svg xmlns:xlink="http://www.w3.org/1999/xlink" xmlns="http://www.w3.org/2000/svg" id="Layer_1" data-name="Layer 1" viewBox="0 0 1000 300" width="1000"  height="300" ><defs><style>.cls-1{fill:#557086;}</style></defs><path class="cls-1" d="M904.33,150.35c-2.47,7.19-3.72,14.69-5.58,22-1.93,7.62-3.8,15.26-5.49,22.94-.47,2.15-1.36,2.83-3.5,2.78-5.45-.12-10.92-.11-16.38,0-2.21,0-2.78-.49-2.22-2.79,3.34-13.71,6.54-27.46,9.72-41.2a30.39,30.39,0,0,0,1.07-8.59c-.28-5.26-3.09-8.1-8.3-8.39-9.3-.52-9.78-.13-11.92,8.86-3.91,16.43-7.91,32.83-11.75,49.28-.48,2.07-1.23,2.9-3.43,2.85-5.46-.14-10.92-.11-16.38,0-2.12,0-2.91-.39-2.33-2.75,5.64-23,11.17-46.09,16.76-69.13.26-1.07.38-2.2,1.81-2.67,12.63-4.16,25.5-6.28,38.74-4.11,10,1.65,16.53,7.41,18.55,17.65.06.28.41.49.63.73Z"/><path class="cls-1" d="M529.43,189.94a30.7,30.7,0,0,1-17,2.7c-13.18-1.65-21.22-10.72-22-24.6-1.42-26.48,14.72-45.65,41.2-49.11a65.89,65.89,0,0,1,33.14,4.21c1.84.72,2.83,1.48,2.27,3.79-5.33,21.81-10.54,43.65-15.82,65.47a63.78,63.78,0,0,1-2,6.28c-5.66,15.87-16.89,24.91-33.7,26.6-11.08,1.11-22,.45-32.53-4-2.68-1.13-3.19-2.13-1.84-4.75a90.27,90.27,0,0,0,4.59-10.87c.92-2.54,1.83-3.28,4.67-2a41.37,41.37,0,0,0,25.19,3.06A17.27,17.27,0,0,0,529.43,189.94Zm-17.24-26.86c.21,3.68.21,8.49,5,10.9,5.24,2.61,10.4,1.28,15.32-1.29a4.72,4.72,0,0,0,2.42-3.23c2.35-9.8,4.68-19.6,7.1-29.37.58-2.34-.22-2.94-2.5-3.14C523.75,135.53,512.3,146,512.19,163.08Z"/><path class="cls-1" d="M326.61,168.2c-.05-23.88,15.57-43.48,38.36-48.09a36.88,36.88,0,0,1,15.58-.33c2.9.66,3.74-.44,4.32-3,2-8.93,4.31-17.78,6.28-26.7.48-2.17,1.34-3.15,3.5-3.45q9-1.23,17.9-2.75c2.73-.46,1.9,1.14,1.59,2.43Q410,103.64,405.78,121c-3.53,14.63-7.1,29.25-10.56,43.9a53.42,53.42,0,0,0,1.31,28.48c.83,2.67.34,3.42-2.41,3.65a110.61,110.61,0,0,0-12.4,1.82c-2.85.58-4.79,0-5.48-2.94-.83-3.63-2.33-3-4.86-1.29-11.2,7.48-25.62,7.3-34.84-.36-7.27-6-9.18-14.46-9.92-23.31C326.54,170.06,326.61,169.12,326.61,168.2Zm47.25-30.9c-21.72-.55-29.85,27-23.12,39.84,2.15,4.1,6.09,4.75,10.19,4.41a14.37,14.37,0,0,0,10.83-6.09c.18-.24.1-.67.14-1,1.17-11.08,4.26-21.76,6.83-32.55,1-4.21.9-4.34-3.47-4.58C374.79,137.28,374.33,137.31,373.86,137.3Z"/><path class="cls-1" d="M742.32,200c-19.74,0-30.94-10.45-31.7-29.69-.65-16.52,4.72-31.06,17.5-42.21,10.17-8.88,22.1-11.53,35.15-8.76,12,2.54,19.49,10.9,21.12,24.6,2.2,18.48-3,34.68-17.51,47.14A35.59,35.59,0,0,1,742.32,200Zm-9.87-35.08c.11,3.55.11,6.2.83,8.81,1.64,5.88,5.65,8.57,11.71,7.73,5.49-.77,9.31-4,12.16-8.44a37.27,37.27,0,0,0,5.55-25.87c-1-7.94-5.73-11.41-13.56-9.89a14.07,14.07,0,0,0-7.2,4C735,148,732.79,156.5,732.45,164.89Z"/><path class="cls-1" d="M439.72,200c-18,0-28.94-9.1-30.44-27.45-1.63-20,5.28-37,22.77-48.4C442,117.65,453,116.73,464.2,120c9.19,2.71,14.78,9.23,17.53,18.27,5.64,18.59-2.68,43.06-18.49,54.36C456.06,197.8,449.17,199.94,439.72,200Zm21.76-47.35c-.09-1.57-.12-3.19-.27-4.8-.92-9.71-9-13.93-17.55-9.13a17.16,17.16,0,0,0-5,4.25c-7.09,8.91-9.1,19.1-7.07,30,1.28,6.94,5.86,9.53,12.82,8.22a14.57,14.57,0,0,0,7.83-4.2C458.92,170.26,461.17,161.83,461.48,152.61Z"/><path class="cls-1" d="M603.16,199.93c-6.08.15-11.62-.31-16.87-2.49-10.77-4.48-15.84-13-17.24-24.16-2.77-22.11,10.51-47.93,36.17-53.86a36.32,36.32,0,0,1,17.94-.1c8.08,2.21,14,7,15.83,15.42,2.07,9.76-.31,18.44-8.06,25.15-6.56,5.67-14.59,7.93-22.95,9.24a93.1,93.1,0,0,1-14.91,1.27c-2.21,0-2.51.84-2,2.71,1.29,5.09,5.36,8.12,11.77,8.53a51.26,51.26,0,0,0,19.27-2.28c2.31-.76,2.86-.09,3,2,.26,4.05.49,8.1,1,12.11.29,2-.52,2.64-2.18,3.15A65.61,65.61,0,0,1,603.16,199.93Zm-6.67-44.79c1.54-.18,4.35-.35,7.07-.88,4.44-.87,8.92-1.8,12.66-4.6a8.62,8.62,0,0,0,3-9.62c-1.31-3.55-4.28-4.27-7.6-4.29-8.61,0-16.13,5.9-19.42,15.34C590.73,155.36,590.73,155.36,596.49,155.14Z"/><path class="cls-1" d="M677.91,200.09A42.41,42.41,0,0,1,663.84,198c-11.35-4.1-18-12.22-19.35-24.08-2.21-19,2.8-35.63,18.87-47.2,14.19-10.22,29.95-10.64,46.15-4.9,2.2.77,2.14,1.8,1.3,3.58-1.91,4.09-3.75,8.22-5.46,12.39-.72,1.76-1.53,2.22-3.35,1.41a28.13,28.13,0,0,0-16.39-1.87C675.5,139,668.47,147,667.12,158.11a40.11,40.11,0,0,0-.25,10c1.2,9.27,5.61,13.38,15,13.35a36.09,36.09,0,0,0,13-2.26c1.89-.72,2.54-.15,2.69,1.65.35,4.38.64,8.78,1.13,13.15.21,1.92-.9,2.43-2.3,2.82-3.24.9-6.45,2-9.75,2.56A77.93,77.93,0,0,1,677.91,200.09Z"/><path class="cls-1" d="M798.05,198.07c-2.78,0-5.57-.09-8.36,0-2.17.09-2.78-.39-2.2-2.75,3.77-15.38,7.36-30.81,11-46.22,2-8.55,4.12-17.08,6.06-25.65.5-2.22,1.25-3.27,3.84-3.14a151.87,151.87,0,0,0,15.68,0c3.08-.16,3.11,1.05,2.54,3.4q-7.75,32-15.41,64.07c-.59,2.47-1.39,4.92-1.73,7.42s-1.57,3-3.77,2.87C803.17,198,800.61,198.07,798.05,198.07Z"/><path class="cls-1" d="M819.25,110.86c-7.32-.06-12-4.47-11.85-11.21.16-7.87,7.19-14.65,15.22-14.66,7.15,0,12,4.5,12,11.15A15,15,0,0,1,819.25,110.86Z"/><path class="cls-1" d="M185.11,60.57A89.43,89.43,0,1,0,274.54,150,89.43,89.43,0,0,0,185.11,60.57Zm2.8,142.93H152.08V155.88H139.45V144.2h12.63V96.59h30.81c7.29,0,55.43-1.66,55.43,54.28C238.32,207.73,187.91,203.5,187.91,203.5Z"/><path class="cls-1" d="M186.31,116.19h-14v28h22.4v11.65h-22.4v28h14.84v-.14c3.81,0,31.2.37,31.15-32.52S191.6,116.19,186.31,116.19Z"/></svg>