<svg xmlns:xlink="http://www.w3.org/1999/xlink" xmlns="http://www.w3.org/2000/svg" id="Layer_1" data-name="Layer 1" viewBox="0 0 1000 300" width="1000"  height="300" ><defs><style>.cls-1{fill:#557086;}</style></defs><path class="cls-1" d="M342.67,127.85H332.1V110.11a8.7,8.7,0,0,0-3-6.63,8.9,8.9,0,0,0-7.22-2,8.68,8.68,0,0,0-7.18,8.67v17.66h-9.93a8.83,8.83,0,0,0-8.71,8.72,8.62,8.62,0,0,0,8.71,8.71h9.93v58.09a8.73,8.73,0,0,0,8.71,8.72,8.83,8.83,0,0,0,8.71-8.72V145.28h10.57a8.62,8.62,0,0,0,8.72-8.71A8.73,8.73,0,0,0,342.67,127.85Z"/><path class="cls-1" d="M234,126.38h-.07c-22.4,0-40.62,19.49-40.62,43.45s18.22,43.45,40.62,43.45c15,0,28.47-7.17,35.09-18.71l.15-.29a8.79,8.79,0,0,0,.92-5.59,8.59,8.59,0,0,0-5.08-6.48,8.74,8.74,0,0,0-10.76,3.2c-5,7.17-11.28,10.36-20.28,10.36-10.94,0-18.58-8.09-21.64-17.27H266a8.82,8.82,0,0,0,8.83-8.79h0C274.73,145.79,256.44,126.38,234,126.38Zm-21.67,34.7C215.38,151.9,223,143.8,234,143.8c10.74,0,18.64,8,21.69,17.28Z"/><path class="cls-1" d="M413.82,126.58A33.4,33.4,0,0,0,394.13,133V76.05a8.72,8.72,0,0,0-8.71-8.71,8.83,8.83,0,0,0-8.72,8.71V203a8.71,8.71,0,0,0,3,6.64,8.93,8.93,0,0,0,7.22,2,8.68,8.68,0,0,0,7.18-8.68v-29c0-.12,0-.7-.09-1.38,0-.47-.1-1-.11-1.21v-.36c-.57-8.79,1.71-16.62,6.26-21.46,3.4-3.63,8-5.48,13.68-5.48,11.15,0,16.23,10.56,16.23,20.37V203a8.62,8.62,0,0,0,8.71,8.72,8.73,8.73,0,0,0,8.71-8.72V164.37C447.51,146.05,435.71,126.58,413.82,126.58Z"/><path class="cls-1" d="M822,128.66l-.19-.06a8.59,8.59,0,0,0-7.64,1.36,8.79,8.79,0,0,0-3.56,7V161.7c0,16.05-2.22,34.47-19.49,34.47-11.15,0-16.23-10.55-16.23-20.36V137a8.72,8.72,0,0,0-8.71-8.71,8.83,8.83,0,0,0-8.71,8.71v38.85c0,9.75,3,18.9,8.48,25.78a32,32,0,0,0,45.21,4.78,8.61,8.61,0,0,0,8.2,5.72,8.72,8.72,0,0,0,8.71-8.72V137.12A8.91,8.91,0,0,0,822,128.66Z"/><path class="cls-1" d="M515.4,126.38h-.07c-22.4,0-40.63,19.49-40.63,43.45s18.23,43.45,40.63,43.45c15,0,28.47-7.17,35.09-18.71l.15-.29a8.79,8.79,0,0,0,.92-5.59,8.59,8.59,0,0,0-5.08-6.48,8.74,8.74,0,0,0-10.76,3.2c-5,7.17-11.28,10.36-20.28,10.36-10.94,0-18.58-8.09-21.64-17.27h53.66a8.83,8.83,0,0,0,8.84-8.79h0C556.18,145.79,537.87,126.38,515.4,126.38Zm-21.67,34.7c3.06-9.19,10.7-17.28,21.64-17.28,10.74,0,18.64,8,21.69,17.28Z"/><path class="cls-1" d="M947.8,126.58A33.94,33.94,0,0,0,920.85,140a31.75,31.75,0,0,0-26.2-13.37,33.68,33.68,0,0,0-20.3,6.77,8.62,8.62,0,0,0-2.41-3.38,8.9,8.9,0,0,0-7.22-2,8.68,8.68,0,0,0-7.18,8.67V203a8.7,8.7,0,0,0,3,6.64,8.8,8.8,0,0,0,5.73,2.08,9.08,9.08,0,0,0,1.46-.12,8.68,8.68,0,0,0,7.25-8.68V174.4a8.51,8.51,0,0,0,0-2.33V172c-.36-10.37,1.83-18.33,6.34-23,3.23-3.34,7.6-5,13.35-5,12.81,0,16.23,12.66,16.23,20.13V203a8.62,8.62,0,0,0,8.71,8.72,8.72,8.72,0,0,0,8.71-8.72V173c0-10,4.08-29,19.5-29,12.8,0,16.22,12.66,16.22,20.13V203a8.62,8.62,0,0,0,8.71,8.72,8.73,8.73,0,0,0,8.72-8.72V164.13C981.49,145.93,969.68,126.58,947.8,126.58Z"/><path class="cls-1" d="M689.45,126.38h-.08c-22.4,0-40.62,19.49-40.62,43.45s18.22,43.45,40.62,43.45c15,0,28.48-7.17,35.09-18.71l.16-.29a8.79,8.79,0,0,0,.92-5.59,8.59,8.59,0,0,0-5.08-6.48,8.74,8.74,0,0,0-10.76,3.2c-5,7.17-11.28,10.36-20.29,10.36-10.93,0-18.57-8.09-21.63-17.27H721.4a8.83,8.83,0,0,0,8.84-8.79h0C730.19,145.79,711.89,126.38,689.45,126.38Zm-21.67,34.7c3.06-9.19,10.7-17.28,21.63-17.28,10.75,0,18.65,8,21.7,17.28Z"/><path class="cls-1" d="M621.63,127.89c-7.3,0-14.13,3.06-19.72,7.43A8.72,8.72,0,0,0,599,130a8.92,8.92,0,0,0-7.22-2,8.69,8.69,0,0,0-7.19,8.67v66.09a8.65,8.65,0,0,0,8.76,8.72,9.45,9.45,0,0,0,1.49-.12,8.68,8.68,0,0,0,7.18-8.68v-29c0-7.63,2-25.68,20.9-28.42a8.69,8.69,0,0,0,7.74-8.9,8.17,8.17,0,0,0-2.52-5.9A9.23,9.23,0,0,0,621.63,127.89Z"/><polygon class="cls-1" points="87.01 209.02 18.51 169.3 87.01 264.14 155.5 169.3 87.01 209.07 87.01 209.02"/><polygon class="cls-1" points="155.5 156.56 87.01 44.95 18.51 156.56 87.01 196.33 87.01 196.33 155.5 156.56"/></svg>