<svg xmlns:xlink="http://www.w3.org/1999/xlink" xmlns="http://www.w3.org/2000/svg" id="Layer_1" data-name="Layer 1" viewBox="0 0 1000 300" width="1000"  height="300" ><defs><style>.cls-1{fill:#557086;}</style></defs><g id="Layer_2" data-name="Layer 2"><g id="yXywv0"><path class="cls-1" d="M229.58,238.84a38.78,38.78,0,0,1-28.69,9.84c-21.14-1.73-36-16.4-39-38.44-2.66-20.13,2.05-37.83,19.3-50.17a41.41,41.41,0,0,1,57.7,9.9,44,44,0,0,1,3.08,5.1c1.76,3.57,1.64,5.49-2.38,6.48-.57,0-1.06.41-1.6.57-3.19,1.15-6.27,3.81-9.55,3.2s-3.36-5.08-5.16-7.62a22.31,22.31,0,0,0-37.37,1.23,40.51,40.51,0,0,0-1,41.71c5,9.06,14.43,12.91,25.49,11.32a20.7,20.7,0,0,0,17.05-16.15c1-3.73,0-4.63-3.65-4.43-4.3.25-8.69,0-13,0s-5.33-1.23-5.37-5.2c0-9.84-.2-9.84,9.31-9.84h25.57c3,0,4.1.95,3.85,4.1v41c0,4.1-1.76,5.53-5.57,5.25a21.3,21.3,0,0,0-2.26,0C231.83,246.63,226.83,247.49,229.58,238.84Z"/><path class="cls-1" d="M162,77.54v-41c0-2.18-.53-4.63,3.36-4.63,13.44.45,26.93-.87,40.33.81a26.81,26.81,0,0,1,23.56,22c2.46,13.44-2.25,24-13.93,30-2.87,1.48-2.83,2.58-1.48,5,5.45,9.75,10.7,19.59,16.4,29.3,1.84,3.28,1.76,4.51-2.54,4.47-18.08-.33-13.77,1.72-21.72-12.54-3.45-6.11-6.56-12.3-9.92-18.52-1.44-2.63-14.22-4.43-15.94-2.18a7,7,0,0,0-.58,3.77v23.32c0,4.43-1.8,6-6.1,6.11-11.07.33-11.07.41-11.07-10.86Zm17.13-16.4V71.88c0,1.89,0,3.4,2.63,3.32A119.83,119.83,0,0,0,201,74.55,12.54,12.54,0,0,0,212,60.68l0-.23a12.87,12.87,0,0,0-12-12.71,55.16,55.16,0,0,0-6.8-.41C179.13,47,179.13,47,179.13,61.06Z"/><path class="cls-1" d="M344.37,187.16c15.9-10.65,26.1-10.2,37.87,1.6a27.23,27.23,0,0,1,27.33-8.2,18.32,18.32,0,0,1,15,18.24c.29,14.18,0,28.4.25,42.62,0,3.49-1.27,5.08-5,5.21-10.78.49-10.78.61-10.78-10.13V206.38c0-7.25-2.3-10.24-7.75-11.51a13,13,0,0,0-13.93,6.51,25.85,25.85,0,0,0-2.87,13.2v27.25c0,3.73-1.06,4.88-4.83,4.84-10.86,0-10.86,0-10.86-10.58V208.27c0-8.2-3.2-12.79-9.23-13.61a14.1,14.1,0,0,0-14.26,10.7,71.58,71.58,0,0,0-1.43,20.9V241c0,4.1-1.72,5.74-5.86,5.62-12.3-.33-9.8,1.43-9.92-9.72V189.17c0-2.7-.2-5.86,2.75-6.88a20.93,20.93,0,0,1,12.29,0C344.74,182.53,343.51,185.24,344.37,187.16Z"/><path class="cls-1" d="M676.65,236.83a32.07,32.07,0,0,1-19.84,5.94,29.76,29.76,0,0,1-11.51-2.7C631.94,233.84,626,215,632.1,198.39a28.69,28.69,0,0,1,34.06-17.66,30.07,30.07,0,0,1,10.2,5.9c1.6-4.1,12.79-7,15.9-4.43,1.19,1,.7,2.46.7,3.69,0,18.94.24,37.91,0,56.84-.29,15.25-7,22.3-22,24.59a52.74,52.74,0,0,1-23.6-1.14A20.5,20.5,0,0,1,633,251.42c-1-3.07,0-4.1,3-4.1H646.2a4.51,4.51,0,0,1,4.1,1.68,16.39,16.39,0,0,0,20.12,4.92C675.91,251.42,677.92,246.38,676.65,236.83Zm-30.37-25.2c0,10.41,6.06,16.88,15.65,16.84s15.7-6.43,15.7-17.09-5.86-17.46-15.61-17.46-15.82,6.64-15.74,17.5Z"/><path class="cls-1" d="M453.67,186A28.72,28.72,0,0,1,476,180c16.15,3,26.56,18.89,24.59,37.54a52.43,52.43,0,0,1-2,9.43c-5.61,18.56-26,28.68-43.77,15.4-2.58,7.38-8.77,3.73-13.27,3.86s-3.41-4.67-3.41-7.54V161.34c0-4.63,1.11-6.22,5.91-6,11.31.53,9.87-1.72,10,10C453.71,171.84,453.67,178.39,453.67,186Zm30.9,27a60.39,60.39,0,0,0-1.44-7.54,14.5,14.5,0,0,0-13.6-11,15,15,0,0,0-14.67,10.49,25.61,25.61,0,0,0,.69,19.38,13.6,13.6,0,0,0,12.83,8.77,14.75,14.75,0,0,0,13.85-8.19A28.77,28.77,0,0,0,484.57,212.94Z"/><path class="cls-1" d="M699.15,119c-1.77,3.77-11.72,6.6-15.37,4.39-1.44-.86-1.11-2.3-1.11-3.57V37c0-3.41,1.23-4.64,4.63-4.84,10.82-.61,10.82-.7,10.82,10.53V58c0,2.87.37,4.47,3.77,2.58,20.49-11.19,39.63,3.28,42.58,23.44a47.71,47.71,0,0,1-.57,16.89C740.37,118,720.29,134.91,699.15,119Zm29.58-28.69a51.18,51.18,0,0,0-.53-6.18,15.42,15.42,0,0,0-14.46-13A14,14,0,0,0,699,82.05a27.68,27.68,0,0,0,1.64,20.49,13.7,13.7,0,0,0,13.53,7.62,12.91,12.91,0,0,0,11.88-8.2,25.94,25.94,0,0,0,2.66-11.51Z"/><path class="cls-1" d="M392.77,63.52a27.24,27.24,0,0,1,43.56,11.72,43.84,43.84,0,0,1,.94,30c-5,15.74-24.26,27.58-44.62,13.93,0,6.68-.29,12.79,0,18.86.28,4.87-1.19,6.68-6.32,6.51-9.54-.37-9.59,0-9.59-9.63V69.55c0-12.3-1.55-10.5,11.64-10.78C391.7,58.69,393.06,59.79,392.77,63.52Zm-.29,27c-.33,11.23,5,18.93,13.61,19.79,10.41,1,17.25-6.43,17.33-19,0-11.35-6.19-19.26-15.45-19.59S392.77,79.09,392.48,90.49Z"/><path class="cls-1" d="M317,246.46H302.16c-.74,0-2,0-2.17-.28-3-5.78-6.44-1.48-9.55-.33a31.44,31.44,0,0,1-20.49.74,19.71,19.71,0,0,1-14.43-18,20.5,20.5,0,0,1,12.3-19.43,88.77,88.77,0,0,1,17.5-4.59c2.74-.7,5.57-1.11,8.19-1.93,1.85-.53,4.63-.32,4.67-3.19a6.77,6.77,0,0,0-3.48-6.11,14.55,14.55,0,0,0-19.75,5.7,3.36,3.36,0,0,1-3.9,2.29l-5.65-.32c-7.3-.5-8.2-1.64-5.17-8.2a19.44,19.44,0,0,1,12.3-11,46.77,46.77,0,0,1,27.37-.7c10.09,2.58,14.18,7.83,14.39,18.32.2,11.72,0,23.48,0,35.2A18.47,18.47,0,0,0,317,246.46Zm-34.05-12.29c11.19,0,16.64-5.86,15.57-16.39,0-1.56,0-2.95-2.46-2.3-5.78,1.56-11.76,2.54-17.54,4.1a7.17,7.17,0,0,0-5.08,10.9,9.85,9.85,0,0,0,9.34,3.73Z"/><path class="cls-1" d="M277.16,94.3c-6.27,0-12.5.29-18.77,0-4.63-.25-4.47,1.6-3.11,5a19,19,0,0,0,30,5.94c1.39-1.27,2.21-4.3,4.79-3.07a87.17,87.17,0,0,1,11.15,6.64c.78.49-.33,1.63-.86,2.37-6.72,10.33-23.65,16.39-37.58,13.61s-22.58-12.3-25.25-27.25,3.16-29.22,13.85-36.07A31.76,31.76,0,0,1,300.6,84.3c1.68,12,2.21,9.84-8.73,10C287,94.38,282.08,94.3,277.16,94.3ZM269,82.78h11.27c3.73,0,4.1-1.47,2.95-4.46a13.44,13.44,0,0,0-14.13-8.94A15.29,15.29,0,0,0,255.11,80c-.65,2.58.45,2.86,2.5,2.82,3.77-.08,7.54,0,11.31,0Z"/><path class="cls-1" d="M814.75,94.3H795.41c-3.73,0-4.1,1.35-3.07,4.42a18.61,18.61,0,0,0,24.3,10.09,18.8,18.8,0,0,0,5.82-3.81,5.91,5.91,0,0,1,8.21-1.5,5.78,5.78,0,0,1,.76.63c8.9,5.5,9,5.5,1,12.3-20,17.17-50.74,8.85-56.8-15.33-4.1-17.13,2.21-34.22,15.53-41,23.15-11.64,48,4.34,47.66,30.49,0,2.75-.9,3.65-3.57,3.61C828.36,94.22,821.56,94.3,814.75,94.3Zm-8.19-11.52h11.31c3,0,3.56-.86,2.66-3.64a13.56,13.56,0,0,0-13.69-9.8,15.24,15.24,0,0,0-14.46,10.49c-.7,2.46.29,3,2.46,3,4-.08,7.95,0,11.92,0Z"/><path class="cls-1" d="M479.61,125.32a32.77,32.77,0,0,1-33.15-32.41,28.44,28.44,0,0,1,.12-3.2c.69-20.29,15-33.52,35.49-32.79,18.44.58,31.88,15.86,31.31,35.53S498.62,125.85,479.61,125.32Zm17-34.55a21.64,21.64,0,0,0-2-9.67,15.53,15.53,0,0,0-15.78-9.75,15,15,0,0,0-14.3,10.74,25.2,25.2,0,0,0,.53,18.32,16.4,16.4,0,0,0,20,9.79C492.19,108.31,496.57,101.14,496.57,90.77Z"/><path class="cls-1" d="M537.15,64.34a29.54,29.54,0,0,1,21-7.58,18.73,18.73,0,0,1,18.73,17.83c.65,14.91.37,29.91.57,45.08,0,2.78-1.06,4.09-4.1,4.09-11.88.95-11.84,1-11.84-10.73V84.59c0-7.22-3.32-11.23-8.81-12a12.87,12.87,0,0,0-14.39,8.52,29.25,29.25,0,0,0-1.51,10.62v26.14c0,4.1-.95,5.82-5.41,5.78-10.86,0-10.86.21-10.86-10.65V66.43c0-7.66,0-7.66,7.46-7.7a22.74,22.74,0,0,0,2.86,0C534.56,58.28,537.51,58.85,537.15,64.34Z"/><path class="cls-1" d="M614.85,125.32a45.1,45.1,0,0,1-27-9c-2.5-1.89-2.83-3.24,0-5a19.83,19.83,0,0,0,3.48-2.91c3.08-3.28,5.58-4.35,9.76-.66a21.2,21.2,0,0,0,20.49,3.57c3.24-.91,6.15-2.63,6.15-6.52s-3.37-4.55-6.36-5.29c-7.33-1.84-15-2.29-22-5.49-13.12-6-15.37-20.49-4.84-30.2a18.89,18.89,0,0,1,6.15-4.1,38.49,38.49,0,0,1,39,5c3.12,2.34,4.47,4.63.41,7.34a8.6,8.6,0,0,0-1.64,1.55c-3.28,3.57-5.74,6.23-10.24.45-4.1-5-10.58-5.53-16.85-4.42-3.32.57-6.51,1.88-6.8,5.74s3.16,5.36,6.31,6.1c5.9,1.35,11.89,2.34,17.79,3.61,9.59,2,15.12,7.25,16.39,15.08a20.79,20.79,0,0,1-11,20.78A36.92,36.92,0,0,1,614.85,125.32Z"/><path class="cls-1" d="M337,125.24a43,43,0,0,1-24.05-8.69c-2.63-1.92-3.32-3.48,0-5.37a8.61,8.61,0,0,0,1.76-1.43c3.77-3.89,6.84-6.27,12.29-1.27a20.09,20.09,0,0,0,20,2.62,6.5,6.5,0,0,0,5.41-6.47c0-3.65-3.11-4.39-5.94-5-6.07-1.4-12.3-2.42-18.24-4.1-10-2.91-15.37-9.06-15.65-17.17A20.49,20.49,0,0,1,327.28,59a38.15,38.15,0,0,1,36.56,5.49c3.68,2.71,4.91,5.13.53,8.2a4.43,4.43,0,0,0-.82.74c-3.48,4.1-6.19,6.19-11.07.57S340.72,68.36,334,70.41A5.76,5.76,0,0,0,329.29,76a5.16,5.16,0,0,0,4.47,5.12c6.43,1.56,12.95,2.75,19.38,4.1,10,2.17,15.57,7.5,16.72,16A21.12,21.12,0,0,1,358,121.51,39.53,39.53,0,0,1,337,125.24Z"/><path class="cls-1" d="M580.42,188.27a29.18,29.18,0,0,1,15.74-8.2,20,20,0,0,1,24.83,19c.66,14.34.25,28.68.41,43.15,0,3.12-1.18,4.1-4.38,4.43-11.43.65-11.43.73-11.43-10.49v-28.4c0-6.89-3.37-11.36-8.69-12.3a13,13,0,0,0-14.47,8.44,32.3,32.3,0,0,0-1.8,11.15v26.68c0,3.73-1.31,4.92-5,5-11,0-11,.28-11-10.37V188c0-5.16,1.81-6.88,6.6-6.35a16.1,16.1,0,0,0,3.4,0C578.7,180.85,581.53,181.88,580.42,188.27Z"/><path class="cls-1" d="M767.46,78.19V118c0,4.59-1.15,6.31-6,6.23-10.25-.21-10.25,0-10.25-10.09v-74c0-8.19,0-8.19,8.2-8.19a24.11,24.11,0,0,0,3.4,0c3.57-.46,4.47,1.18,4.43,4.59V78Z"/><path class="cls-1" d="M525.06,200.6v40.29c0,4.1-.82,5.74-5.33,5.7-10.49,0-10.49,0-10.49-10.5V162.33c0-2.5-1.19-6.15,1.8-7.13a24,24,0,0,1,12.87,0c1.76.45,1,3,1,4.63Q525.1,180.15,525.06,200.6Z"/><path class="cls-1" d="M536.94,213.47V185.69c0-3.2.82-4.1,4.1-4.1,11.84,0,11.84-.37,11.84,11.35V240.6c0,4.72-1.47,6.23-6.19,6.11-9.79,0-9.79,0-9.79-9.84Z"/><path class="cls-1" d="M654.15,91V62.58c0-2.91.74-3.81,3.77-4.1C670,58.11,670,58,670,70.16v46.56c0,5-1.19,7.09-6.68,6.84-9.14-.45-9.18,0-9.18-9.43Z"/></g><rect class="cls-1" x="538.09" y="157.33" width="12.29" height="12.29" rx="2.46"/><rect class="cls-1" x="655.91" y="34.38" width="12.29" height="12.29" rx="2.46"/></g></svg>