<svg xmlns:xlink="http://www.w3.org/1999/xlink" xmlns="http://www.w3.org/2000/svg" id="Layer_1" data-name="Layer 1" viewBox="0 0 1000 300" width="1000"  height="300" ><defs><style>.cls-1{fill:#557086;}.cls-2{isolation:isolate;}</style></defs><path class="cls-1" d="M185.53,60.3A89.7,89.7,0,1,1,95.84,150a89.7,89.7,0,0,1,89.69-89.7M171.31,94.83l-13.95,52.72-9.61,3.72-4.62,17.3,9.61-3.63-8,30.16h85.8l5.89-22.38H184.8l5.89-21.93,9.42-3.54,4.62-17.3-9.43,3.63L205.54,94.8H171.31Z"/><g class="cls-2"><path class="cls-1" d="M314.13,204.77,337.6,92.71h23L341.11,186h57l-3.9,18.73Z"/><path class="cls-1" d="M426,123.59H447.9l-17,81.18H409Zm6.42-30.88h21.94l-4.13,19.87H428.25Z"/><path class="cls-1" d="M458,139.87l3.36-16.28h10.7l2.68-13,25.15-15.13L494,123.59h13.38L504,139.87H490.55l-7.11,34q-1.9,9.26-1.91,10.55a5,5,0,0,0,1.61,3.94c1.07.94,3,1.41,5.81,1.41,1,0,3.39-.17,7.26-.53l-3.44,16.28a58.71,58.71,0,0,1-11.62,1.15q-11.62,0-16.89-4.48T459,189.78q0-3.74,2.83-17.27l6.8-32.64Z"/><path class="cls-1" d="M583.65,171h-55c0,.87-.08,1.53-.08,2q0,8.1,4.63,13.07a14.82,14.82,0,0,0,11.27,5q10.93,0,17-11.32L581.13,183q-5.73,11.85-15.32,17.77a40.14,40.14,0,0,1-21.52,5.93q-16.37,0-26.6-10.36t-10.24-27.4a49.9,49.9,0,0,1,9.24-29.66q12.62-17.58,36-17.58,14.89,0,23.69,9.21t8.79,25.8A61.09,61.09,0,0,1,583.65,171ZM565.16,157.6c.05-1,.07-1.7.07-2.21q0-9-4.05-13.53a13.86,13.86,0,0,0-10.85-4.51,17.24,17.24,0,0,0-12.2,5.12q-5.39,5.11-7.29,15.13Z"/><path class="cls-1" d="M646.72,174.19,668,177.63q-5.26,14.22-15.59,21.63a40,40,0,0,1-23.93,7.42q-15.51,0-24.61-9.25T594.81,172a58.3,58.3,0,0,1,5.51-25,42.21,42.21,0,0,1,16.59-18.54,45.74,45.74,0,0,1,24.3-6.76q14.37,0,22.93,7.49t9.64,19.72l-20.87,2.22q-.76-6.81-4.17-10a12.43,12.43,0,0,0-8.9-3.21A17.85,17.85,0,0,0,628,142.62q-5.5,4.74-8.45,14.18a59.65,59.65,0,0,0-2.94,17.7q0,7.19,3.52,11.08a11.33,11.33,0,0,0,8.79,3.9,16.36,16.36,0,0,0,10.16-3.82Q644,181.84,646.72,174.19Z"/><path class="cls-1" d="M682,171.06q0-22.56,12.72-36t33.44-13.41q18,0,28.06,9.89t10.09,26.64a50,50,0,0,1-12.61,34.1Q741,206.68,719.87,206.68a43.56,43.56,0,0,1-20.33-4.59,30,30,0,0,1-13.23-13A38.71,38.71,0,0,1,682,171.06Zm62.52-15.67q0-7.8-4.55-12.5a15.57,15.57,0,0,0-11.73-4.7,19.64,19.64,0,0,0-12.61,4.39Q710.08,147,707,155.35a45.15,45.15,0,0,0-3.06,15.4q0,8.72,4.74,13.84a15.56,15.56,0,0,0,11.92,5.12q9,0,15.14-7.72Q744.49,171.05,744.48,155.39Z"/><path class="cls-1" d="M791.34,123.59h21.94l-17,81.18H774.37Zm6.42-30.88H819.7l-4.13,19.87H793.63Z"/><path class="cls-1" d="M835.14,123.59h20.79l-2.14,10.54a57.27,57.27,0,0,1,14.56-9.59,36.18,36.18,0,0,1,14.26-2.86q10,0,15.78,5.73t5.77,15.21q0,4.27-2.52,16.21l-9.55,45.94H870.15l9.63-46.1q2.15-10.32,2.14-12.3a8.82,8.82,0,0,0-2.48-6.62,9.56,9.56,0,0,0-6.92-2.4q-4.82,0-10.7,4.05a28.12,28.12,0,0,0-9.25,10.7q-2.45,4.74-5.51,19.34l-6.95,33.33H818.17Z"/></g></svg>