<svg xmlns:xlink="http://www.w3.org/1999/xlink" xmlns="http://www.w3.org/2000/svg" id="Layer_1" data-name="Layer 1" viewBox="0 0 1000 300" width="1000"  height="300" ><defs><style>.cls-1{fill:#557086;}</style></defs><path class="cls-1" d="M140.69,41.55c1.9.89,4,.91,6,1.32,5.27,1.07,10.56,2,15.84,3,5,.92,10.06,1.79,15.08,2.72,6.25,1.15,12.49,2.34,18.74,3.49,5,.93,10,1.8,15.07,2.73,6.25,1.15,12.48,2.34,18.73,3.48,7.13,1.3,14.27,2.53,21.39,3.83s14.23,2.7,21.34,4c7.56,1.39,15.13,2.72,22.69,4.09,2.14.38,4.27.88,6.43,1.15,1.72.21,2.56,1.57,3.62,2.56,5.21,4.84,10.29,9.8,15.44,14.71q11.32,10.8,22.68,21.57c1.66,1.57,1.74,1.57.31,3.32-4.42,5.41-8.89,10.78-13.32,16.18-3.89,4.73-7.76,9.5-11.65,14.24s-7.93,9.59-11.88,14.4-7.76,9.5-11.65,14.24c-3.13,3.81-6.28,7.6-9.41,11.4l-10.22,12.46q-5.91,7.22-11.85,14.44l-11.68,14.2q-6,7.28-11.93,14.54L228.73,254c-.85,1-1.72,2-2.69,3.17-1.55-3.9-3-7.68-4.56-11.46Q206.75,208.61,192,171.55q-25.51-64.11-51-128.21c-.23-.58-.38-1.19-.56-1.79Zm117.4,78.92a1.86,1.86,0,0,0,1.19,0c3.63-.65,7.26-1.32,10.89-2l44.08-8,11.1-2c-.25-.28-.35-.42-.47-.53-7.7-7.31-15.43-14.6-23.08-22-1-.94-1.46-.9-2.46-.07q-19.87,16.64-39.82,33.21c-.5.42-1.16.69-1.4,1.38l-.21.09s.08.07.12.07S258.18,120.57,258.09,120.47Zm-94.82-53-.25.18L225.57,225a22.94,22.94,0,0,0,.72-4q2-16.28,4-32.56,1.81-15,3.61-30,1.69-14.07,3.44-28.13a2.23,2.23,0,0,0-.94-2.27Q201,98.71,165.61,69.36C164.84,68.72,164.05,68.09,163.27,67.46Zm160.24,53.08a5.57,5.57,0,0,0-.73,0l-18.2,3.3q-27.3,4.95-54.61,9.86c-1.28.23-1.75.65-1.89,2-.86,7.83-1.83,15.64-2.78,23.46q-1.56,13.06-3.16,26.14Q240.6,198.14,239,211c-.57,4.71-1.13,9.42-1.74,14.52C266.15,190.39,294.77,155.53,323.51,120.54ZM171.59,59l-.1.32,5.9,4.9q32.09,26.6,64.16,53.21c.95.79,1.42.56,2.2-.09q16.74-14,33.52-27.94l10.77-9Z"/><path class="cls-1" d="M859.58,212.94c-.6,0-.9-.49-1.2-.83-2.12-2.46-4.37-4.8-6.49-7.25-1-1.21-2.16-2.37-3.23-3.55-2.18-2.41-4.41-4.77-6.48-7.26-.9-1.09-1.9-2.12-2.87-3.17-2.32-2.51-4.63-5-6.84-7.64-.86-1-1.82-2-2.7-3-2.91-3.31-6-6.49-8.93-9.75-2.39-2.62-4.81-5.23-7.12-7.94-2.67-3.14-5.5-6.14-8.23-9.24-1.91-2.16-3.9-4.27-5.83-6.42-2.91-3.24-5.83-6.47-8.71-9.72-1.85-2.09-3.76-4.16-5.64-6.23-2.18-2.4-4.4-4.76-6.48-7.25-1-1.15-2.06-2.22-3.08-3.34a9.63,9.63,0,0,1-1.86-2.23,2.22,2.22,0,0,0-.2,1.44q0,42,0,84.07c0,1.75,0,1.75-1.81,1.75-3.06,0-6.13,0-9.2,0-.91,0-1.09-.28-1.09-1.14q0-58.52,0-117c0-.29,0-.59,0-1.15,2,2.21,3.85,4.21,5.67,6.22,2.79,3.1,5.55,6.22,8.34,9.33q8.18,9.12,16.38,18.23c3.45,3.84,6.93,7.65,10.39,11.49,4.58,5.1,9.14,10.23,13.73,15.33,2.67,3,5.38,5.9,8.05,8.87,4.62,5.13,9.21,10.29,13.83,15.42,3,3.28,6,6.53,9.23,10.11v-1.94q0-42,0-83.93c0-1.2.26-1.58,1.53-1.55,3.6.09,7.21,0,10.81,0Z"/><path class="cls-1" d="M606.46,205.42c-4.34,0-8.67,0-13,0-.8,0-1.09-.41-1.4-1q-2.58-4.95-5.2-9.89c-2.55-4.84-5.09-9.69-7.66-14.53-2.91-5.5-5.86-11-8.72-16.5a2.07,2.07,0,0,0-2.16-1.3q-12.51.08-25,0c-1.06,0-1.35.27-1.35,1.35,0,13.47,0,26.94,0,40.41,0,1.2-.29,1.49-1.47,1.46-3.15-.09-6.31-.06-9.47,0-.8,0-1.06-.17-1.06-1q0-26.62,0-53.25c0-1.11.49-1.09,1.29-1.09,13.52,0,27.05,0,40.58,0,6.81,0,12.3-2.82,16.73-7.7a20.13,20.13,0,0,0,5-10.67A22.2,22.2,0,0,0,575,106.18a29,29,0,0,0-4.38-.27c-16.32,0-32.65,0-49,0-1.11,0-1.39.24-1.39,1.38q0,48.11,0,96.23c0,1.95,0,1.95-2,1.95-2.93,0-5.86,0-8.79,0-.93,0-1.22-.21-1.21-1.18,0-4.73,0-9.46,0-14.19q0-47.37,0-94.75c0-1.23.2-1.64,1.56-1.63,20.74,0,41.48,0,62.23.06A33.12,33.12,0,0,1,597.37,105a32.64,32.64,0,0,1,8.43,18.14,34.54,34.54,0,0,1-22,37c-.8.3-1,.43-.54,1.26q8.19,15.3,16.3,30.63,3.27,6.18,6.53,12.35A2,2,0,0,1,606.46,205.42Z"/><path class="cls-1" d="M682.36,205.37c-30.77-.22-52.28-24.48-54.88-49.17-1.77-16.92,2.85-32,14.4-44.52s26.21-18.44,43.28-17.93a55.83,55.83,0,0,1-2.8,111.62Zm44.51-55.79a43.79,43.79,0,0,0-87.57-.14c-.06,24,19.6,43.81,43.38,43.81A43.78,43.78,0,0,0,726.87,149.58Z"/><path class="cls-1" d="M434.82,93.72c15.87,0,31.73,0,47.6,0,1.15,0,1.4.3,1.37,1.4-.08,3.15-.05,6.31,0,9.46,0,.89-.15,1.23-1.15,1.23q-47.88,0-95.74,0c-.93,0-1.11-.3-1.1-1.15.05-3.15.07-6.31,0-9.46,0-1.13.19-1.49,1.43-1.48C403.09,93.74,419,93.72,434.82,93.72Z"/><path class="cls-1" d="M429.92,166q0,19,0,38c0,1.13-.26,1.42-1.39,1.39-3.15-.08-6.31-.06-9.47,0-.87,0-1.23-.12-1.23-1.14q0-38.12,0-76.22c0-.9.25-1.13,1.12-1.12,3.25,0,6.5.07,9.74,0,1.09,0,1.22.35,1.21,1.29Q429.9,147.12,429.92,166Z"/><path class="cls-1" d="M451.61,166.18q0,18.9,0,37.82c0,1.11-.24,1.43-1.38,1.4-3.15-.09-6.31-.06-9.46,0-.93,0-1.21-.18-1.21-1.16q0-38.1,0-76.19c0-.86.19-1.15,1.1-1.13,3.2,0,6.4.06,9.6,0,1,0,1.34.23,1.34,1.31Q451.58,147.2,451.61,166.18Z"/><path class="cls-1" d="M783.66,144.88c3.92,4.35,7.75,8.62,11.6,12.86a1.78,1.78,0,0,1,.43,1.34q0,22.62,0,45.25c0,.91-.28,1.12-1.15,1.11-3.33-.05-6.66,0-10,0-.64,0-1.07,0-1.07-.87q0-29.66,0-59.29A1.39,1.39,0,0,1,783.66,144.88Z"/><path class="cls-1" d="M258.09,120.47c.09.1.06.17-.06.19s-.08,0-.12-.07l.21-.09Z"/><path class="cls-1" d="M683.1,157.57a8.07,8.07,0,0,1,0-16.13,8.07,8.07,0,0,1,0,16.13Z"/></svg>