<svg xmlns="http://www.w3.org/2000/svg" xmlns:xlink="http://www.w3.org/1999/xlink" version="1.1" x="0px" y="0px" viewBox="0 0 370.291 268.26" style="enable-background:new 0 0 370.291 268.26;" xml:space="preserve" width="370.291"  height="268.26" >
<style type="text/css">
	.st0{fill:#FFFFFF;}
	.st1{fill-rule:evenodd;clip-rule:evenodd;fill:#ED2127;}
	.st2{fill-rule:evenodd;clip-rule:evenodd;fill:#FBEE23;}
	.st3{fill-rule:evenodd;clip-rule:evenodd;}
</style>
<g id="Layer_3">
	<g>
		<path class="st0" d="M33.981,243.83l-9.569,24.432h-3.156l-9.569-24.432v24.432H4.46v-33.951h10.129l8.246,21.174l8.246-21.174    h10.18v33.951h-7.279V243.83z"/>
		<path class="st0" d="M69.616,262.408H54.448l-2.138,5.854h-7.94l13.132-33.951h9.06l13.081,33.951h-7.889L69.616,262.408z     M56.382,256.148h11.249l-5.599-15.576L56.382,256.148z"/>
		<path class="st0" d="M82.803,234.311h7.228v33.951h-7.228V234.311z"/>
		<path class="st0" d="M103.978,245.459v22.803H96.75v-33.951h7.432l15.728,21.989v-21.989h7.227v33.951h-6.973L103.978,245.459z"/>
		<path class="st0" d="M146.892,234.311h15.88c7.38,0,11.401,4.989,11.401,10.944c0,5.904-4.071,10.842-11.401,10.842h-8.653v12.165    h-7.228V234.311z M161.806,240.522h-7.686v9.365h7.686c2.85,0,4.987-1.832,4.987-4.682    C166.793,242.405,164.655,240.522,161.806,240.522z"/>
		<path class="st0" d="M196.522,262.408h-15.168l-2.138,5.854h-7.94l13.132-33.951h9.059l13.081,33.951h-7.889L196.522,262.408z     M183.288,256.148h11.248l-5.599-15.576L183.288,256.148z"/>
		<path class="st0" d="M222.23,256.097h-5.293v12.165h-7.228v-33.951h15.88c7.075,0,11.402,4.632,11.402,10.944    c0,6.006-3.766,9.213-7.431,10.078l7.635,12.929h-8.296L222.23,256.097z M224.52,240.522h-7.583v9.365h7.583    c2.902,0,5.091-1.832,5.091-4.682C229.611,242.354,227.422,240.522,224.52,240.522z"/>
		<path class="st0" d="M249.77,240.674h-9.926v-6.363h27.079v6.363h-9.874v27.588h-7.278V240.674z"/>
		<path class="st0" d="M278.785,245.459v22.803h-7.227v-33.951h7.432l15.728,21.989v-21.989h7.227v33.951h-6.973L278.785,245.459z"/>
		<path class="st0" d="M308.667,234.311h24.024v6.21h-16.796v7.38h16.44v6.21h-16.44v7.889h16.796v6.261h-24.024V234.311z"/>
		<path class="st0" d="M350.866,256.097h-5.294v12.165h-7.227v-33.951h15.88c7.075,0,11.402,4.632,11.402,10.944    c0,6.006-3.767,9.213-7.431,10.078l7.635,12.929h-8.296L350.866,256.097z M353.157,240.522h-7.584v9.365h7.584    c2.902,0,5.091-1.832,5.091-4.682C358.247,242.354,356.059,240.522,353.157,240.522z"/>
	</g>
</g>
<g id="Layer_2">
	<g transform="translate(21)">
		<polygon class="st1" points="164.145,204.399 255.296,113.491 225.299,44.857 242.248,44.857 242.248,0 86.037,0 86.037,44.857     102.992,44.857 72.995,113.491   "/>
		<polygon class="st2" points="94.584,36.333 233.707,36.333 233.707,8.524 94.584,8.524   "/>
		<path class="st3" d="M164.148,44.857H112.32c-7.944,18.175-26.085,59.679-29.163,66.717c6.984,6.971,70.965,70.78,80.991,80.779    V44.857z"/>
		<path class="st2" d="M215.971,44.857h-51.828v147.496c10.027-10,74.001-73.808,80.991-80.779    C242.056,104.535,223.914,63.032,215.971,44.857"/>
		<polygon class="st3" points="114.405,18.81 117.438,32.809 121.393,32.809 126.072,13.021 122.459,13.021 119.448,28.235     116.432,13.021 112.631,13.021 109.571,28.235 106.505,13.021 102.837,13.021 107.516,32.809 111.626,32.809   "/>
		<path class="st3" d="M139.446,32.811h3.798l-6.374-17.286h-3.768l-6.374,17.286h3.798l1.306-4.026h6.312L139.446,32.811z     M132.808,25.782l2.181-6.723l2.18,6.723H132.808z"/>
		<polygon class="st3" points="143.308,15.529 143.308,18.534 148.053,18.534 148.053,32.809 151.688,32.809 151.688,18.534     156.34,18.534 157.058,15.529   "/>
		<polygon class="st3" points="160.14,15.529 160.14,32.809 163.654,32.809 163.654,25.318 168.907,25.318 168.907,22.318     163.654,22.318 163.654,18.534 169.753,18.534 170.471,15.529   "/>
		<path class="st3" d="M180.771,15.307c-5.902,0-8.374,4-8.374,8.941c0,4.934,2.472,8.94,8.374,8.94s8.378-4.005,8.378-8.94    C189.145,19.312,186.673,15.307,180.771,15.307 M180.771,30.51c-3.456,0-4.311-2.806-4.311-6.263c0-3.458,0.855-6.264,4.311-6.264    s4.311,2.806,4.311,6.264C185.083,27.705,184.223,30.51,180.771,30.51 M201.835,25.508v-0.186c1.162,0,4.079-1.096,4.079-4.79    c0-3.69-2.824-5.003-6.057-5.003h-6.566V32.81h3.58v-7.209h0.301c1.207,0,5.446,7.209,5.446,7.209h4.519L201.835,25.508z     M199.607,23.033h-2.731v-4.501h2.731c0.989,0,2.482,0.155,2.482,2.108S200.597,23.033,199.607,23.033L199.607,23.033z     M217.017,15.529h-6.156V32.81h6.156c5.523,0,7.824-3.69,7.824-8.593C224.842,19.313,222.542,15.529,217.017,15.529     M217.138,29.807h-2.742V18.531h2.742c2.363,0,3.726,2.28,3.726,5.68C220.868,27.617,219.505,29.807,217.138,29.807     M134.82,58.469c0,0.527,0.057,0.858,0.104,1.158c0.052,0.32,0.108,0.646,0.108,1.483c0,2.636-0.606,3.871-1.026,3.871    c-0.089,0-0.129-0.005-0.161-0.01c-0.046-0.057-0.133-0.17-0.202-0.274c-0.715-1.018-1.694-2.098-4.327-2.098    c-2.445,0-4.083,1.731-4.083,4.305c0,3.777,0.959,6.832,1.725,9.286c0.451,1.426,0.833,2.656,0.833,3.478    c0,0.656-0.316,1.302-0.507,1.442c-0.96-0.015-1.275-0.325-1.954-0.987c-0.912-0.899-2.166-2.134-4.974-2.134    c-1.196,0-3.97,0.408-3.97,4.206c0,1.654,0.58,3.07,1.135,4.434c0.596,1.452,1.207,2.951,1.207,4.921    c0,0.155-0.015,1.55-0.472,1.55c-1.798,0-2.477-1.111-3.513-3.069c-0.907-1.711-2.031-3.83-4.637-3.83    c-4.28,0-4.28,6.377-4.28,8.775c0,13.56,12.903,18.475,21.578,18.475c1.649,0,2.611-0.14,3.545-0.274    c0.964-0.14,1.871-0.274,3.664-0.274c5.265,0,9.249,1.049,11.649,3.034c-1.321-0.502-2.897-0.833-4.772-0.833    c-4.529,0-6.202,1.075-7.793,2.372c-0.596,0.491-1.036,0.847-1.845,1.08l-6.436,1.835l6.529,1.457    c2.725,0.61,4.233,2.744,5.834,5.003c1.705,2.408,3.633,5.142,7.178,5.142c0.331,0,0.642-0.026,0.942-0.073    c-0.306,1.669-0.559,3.783-0.559,6.227c0,3.529,0.865,4.904,2.006,6.336l0.544,0.723c0.507,0.739,1.047,1.457,1.576,2.15    c1.865,2.46,3.632,4.79,3.632,7.979c0,1.7,0.083,3.074,0.161,4.397c0.083,1.328,0.15,2.579,0.15,4.15    c0,4.703,3.259,6.16,5.01,6.94c0.176,0.082,0.389,0.176,0.555,0.259c0.336,1.607,1.928,2.134,2.922,2.454l0.347,0.114l0.363,0.144    c0.507,0.217,1.196,0.517,2.45,0.517c3.259,0,4.69-2.414,4.985-4.424c0.057-0.026,0.114-0.046,0.166-0.072    c1.435-0.636,4.425-1.949,4.425-6.139c0-2.197-0.274-3.855-0.519-5.318c-0.176-1.08-0.336-2.016-0.336-2.94    c0-2.656,1.093-4.005,2.59-5.866c2.02-2.511,4.544-5.627,4.544-12.65c0-2.486-0.14-4.388-0.326-5.825    c0.409,0.093,0.833,0.16,1.275,0.16c4.663,0,6.275-2.791,7.446-5.101c2.187-4.326,6.415-4.072,6.415-4.072    s-3.347-5.777-11.322-5.777c-2.43,0-4.296,0.485-5.706,1.121c0.654-1.871,1.768-2.702,2.685-3.193    c2.202-1.163,5.471-1.267,8.369-1.267c1.778,0,3.036,0.129,4.26,0.259c1.15,0.118,2.337,0.243,3.866,0.243    c11.758,0,14.846-3.716,18.111-7.648c2.777-3.338,4.618-6.579,4.618-11.592c0-3.369-0.974-6.966-3.721-6.966    c-2.373,0-3.394,2.211-4.212,3.989c-0.98,2.119-1.555,3.008-2.565,3.008c-1.321,0-2.394-1.297-2.394-2.889    c0-1.473,0.98-3.333,1.928-5.132c1.078-2.057,2.202-4.18,2.202-6.289c0-1.189-0.492-2.249-1.389-2.982    c-0.746-0.615-1.705-0.956-2.705-0.956c-2.088,0-3.752,1.731-5.362,3.406c-1.026,1.07-2.425,2.522-3.276,2.574    c-0.17-0.15-0.435-0.739-0.435-1.209c0-1.462,0.653-3.623,1.291-5.705c0.684-2.243,1.32-4.367,1.32-6.067    c0-3.675-2.146-5.313-4.274-5.313c-1.938,0-3.197,0.905-4.208,1.633c-0.757,0.543-1.244,0.858-1.84,0.905    c-0.015-0.026-0.025-0.046-0.032-0.073c0-0.077,0.005-1.757,0.005-1.757c0-0.533,0.005-1.049,0.005-1.545    c0-3.892-0.161-6.537-1.674-8.051c-0.736-0.739-1.699-1.112-2.86-1.112c-5.342,0-7.741,7.039-7.741,14.01    c0,3.235,0.134,6.093,0.264,8.853c0.125,2.636,0.238,5.116,0.238,7.814c0,6.47-1.327,11.767-2.462,14.537    c-0.368-3.086-0.932-7.731-4.534-7.731c-2.984,0-3.684,3.803-4.487,8.206c-0.725,3.954-1.726,9.369-4.188,9.369    c-2.067,0-2.663-3.767-3.238-8.693c-0.56-4.826-1.197-10.294-5.503-10.294c-4.685,0-4.99,6.057-5.187,10.062    c-0.026,0.502-0.058,1.095-0.104,1.669c-1.145-2.238-2.524-6.088-2.524-9.623c0-4.486,0.28-8,0.559-11.401    c0.265-3.256,0.539-6.625,0.539-10.718c0-9.023-2.25-11.462-4.233-13.612l-0.14-0.15c-1.332-1.442-2.586-2.806-4.56-2.806    C136.301,53.182,134.82,55.843,134.82,58.469"/>
		<path class="st1" d="M216.909,88.954c-2.829,0-2.638,6.992-6.784,6.992c-2.29,0-4.104-2.046-4.104-4.594    c0-3.716,4.125-7.979,4.125-11.421c0-1.473-1.244-2.233-2.388-2.233c-2.784,0-5.612,5.995-8.685,5.995    c-1.446,0-2.098-1.882-2.098-2.926c0-3.338,2.616-8.785,2.616-11.772c0-2.398-1.093-3.613-2.566-3.613    c-2.731,0-3.642,2.558-6.208,2.558c-0.98,0-1.57-1.07-1.57-1.757c0-6.703,0.342-10.806-2.818-10.806    c-4.094,0-6.027,6.17-6.027,12.31c0,6.233,0.502,11.054,0.502,16.671c0,8.698-2.104,15.989-3.938,17.561    c0,0-0.456,5.064,1.55,5.064c4.052,0,10.633-11.317,18.799-11.317c3.684,0,3.938,2.258,3.938,3.173    c0,2.961-4.187,4.47-4.187,6.346c0,0.961,1.461,1.044,3.264,1.044c5.358,0,9.296-3.296,9.296-3.296s-3.85,4.553-9.876,4.553    c-2.643,0-4.69-0.832-4.69-2.383c0-2.46,4.985-4.424,4.985-6.889c0-0.75-0.834-1.793-2.72-1.793    c-6.658,0-13.691,12.568-19.172,12.568c-1.13,0-2.7-0.749-2.7-3.607c0-2.439-0.193-12.516-3.249-12.516    c-3.674,0-1.911,17.576-8.679,17.576c-7.146,0-2.881-18.987-8.742-18.987c-3.56,0-3.001,5.142-3.56,9.767    c-0.462,3.788-1.559,7.235-3.891,7.235c-3.078,0-5.254-1.411-7.877-3.029c-1.668-1.028-3.441-2.041-4.912-3.142    c-2.388-1.783-3.701-3.566-6.057-3.566c-1.254,0-2.638,0.687-2.638,1.968c0,2.506,2.638,3.478,2.638,5.638    c0,1.22-1.787,2.191-3.835,2.191c-6.218,0-9.953-4.067-9.953-5.7c0,0,3.109,4.382,10.234,4.382c1.539,0,2.104-0.341,2.104-1.095    c0-1.406-2.135-2.661-2.135-5.385c0-1.721,1.348-3.131,3.296-3.131c2.482,0,4.161,1.809,6.722,3.664    c3.684,2.672,8.477,5.695,12.151,5.695c1.41,0,2.353-0.625,2.353-2.088c0-1.39-4.176-5.204-4.176-13.008    c0-8.919,1.098-13.901,1.098-22.118c0-8.568-2.057-10.583-3.923-12.609c-1.399-1.525-2.166-2.258-3.296-2.258    c-1.948,0-2.606,2.129-2.606,3.591c0,0.894,0.218,0.95,0.218,2.641c0,3.039-0.72,5.571-2.731,5.571    c-2.353,0-1.129-2.383-4.69-2.383c-1.705,0-2.373,1.22-2.373,2.6c0,5.886,2.559,10.087,2.559,12.759    c0,1.334-0.772,3.148-2.146,3.148c-3.549,0-2.922-3.131-6.995-3.131c-1.736,0-2.265,1.002-2.265,2.506    c0,2.909,2.342,5.137,2.342,9.348c0,1.86-0.627,3.256-2.176,3.256c-5.295,0-4.638-6.904-8.146-6.904    c-1.792,0-2.571,2.341-2.571,7.07c0,12.651,12.395,16.775,19.867,16.775c3.172,0,3.513-0.543,7.209-0.543    c17.343,0,15.944,10.589,15.944,10.589s-2.218-4.987-9.068-4.987c-6.68,0-5.954,2.459-9.172,3.385    c6.669,1.493,7.259,10.103,12.643,10.103c2.405,0,3.597-1.834,3.597-1.834s-1.508,3.875-1.508,9.7    c0,3.979,1.176,4.522,2.254,6.103c2.296,3.364,5.503,6.335,5.503,11.09c0.766,0,1.348-3.54,1.778-3.54    c0.28,0,0.519,0.548,0.519,1.328c0,1.814-1.975,5.008-1.975,10.76c0,3.447,2.166,4.564,3.782,5.292    c0.393,0,2.658-4.739,2.658-4.739c-1.358,3.69-0.943,5.762-0.943,6.01c0,0.982,0.959,1.184,2.181,1.587    c0.694,0.233,1.051,0.574,2.27,0.574c2.84,0,3.337-2.522,3.337-3.515c0-1.003-1.026-2.884-1.026-4.01c0,0-0.041-0.688,0.124-0.688    c0.353,0,1.855,3.938,1.855,3.938c1.332-0.589,3.575-1.448,3.575-4.656c0-3.736-2.27-8.811-2.27-11.095    c0-0.527,0.186-0.879,0.378-0.879c0.44,0,1.182,2.068,1.182,2.068c0.979-5.716,7.006-6.259,7.006-16.862    c0-6.713-1.026-8.874-1.026-8.874s1.788,1.504,3.679,1.504c6.487,0,4.954-6.449,10.047-8.599c0-0.641-2.741-2.945-7.513-2.945    c-6.027,0-7.975,3.261-7.975,3.261c0-9.437,6.628-10.001,13.312-10.001c3.58,0,5.12,0.502,8.126,0.502    c10.97,0,13.664-3.261,16.809-7.049c2.793-3.365,4.208-6.264,4.208-10.491C218.92,91.931,218.354,88.954,216.909,88.954     M146.094,125.031c0,0.439,1.404,0.775,2.217,0.775c0,0.502-0.984,1.23-1.902,1.23c-3.54,0-1.824-5.472-8.897-6.847    c0,0,0.378-0.166,1.295-0.166c5.585,0,7.202,4.321,10.24,4.321C148.162,124.442,146.094,124.509,146.094,125.031 M158.126,147.594    v-2.713c0-0.755-0.336-1.081-1.005-1.081l1.762-4.01v-0.398c-3.119,0-5.824-0.625-5.824-2.837h-0.881    c-0.186,0-0.591-0.212-0.591-0.589c0-0.274,1.046-1.457,3.518-1.457c1.886,0,3.016,0.791,3.016,0.791s-1.068-2.506-3.939-2.506    c-1.694,0-2.135,0.227-2.135,0.227s1.026-1.317,2.405-1.317c4.331,0,5.461,2.713,5.461,7.493    C159.93,144.255,158.126,147.594,158.126,147.594 M186.404,120.99c0.704,0,1.098,0.124,1.098,0.124    c-4.223,0.77-4.176,5.861-7.555,5.861c-0.736,0-1.223-0.33-1.223-0.33c0.476-0.925,2.057-1.148,2.057-2.393    c-1.093,0-1.896,0.093-2.97,0.31C177.817,124.152,181.196,120.99,186.404,120.99 M176.719,133.568l-0.29,0.476    c0,0-1.612-0.522-3.098-0.522c-2.68,0-3.664,1.835-3.664,1.835s0.881-0.522,2.616-0.522c2.301,0,3.975,1.23,3.975,1.69    c0,0.476-0.71,0.728-1.28,0.728c0,1.106-1.508,2.631-6.052,2.631c0,2.233,1.384,3.716,1.384,4.367    c-1.155,0-1.321,1.106-1.321,3.07c0,0-1.59-6.284-1.59-8.811c0-3.737,1.508-6.558,4.71-6.558    C174.398,131.96,176.719,133.568,176.719,133.568"/>
		<path class="st1" d="M169.496,137.909l-0.249,0.543c0,0,0.524,0.377,1.649,0.377c2.264,0,3.259-1.829,3.036-2.046    c-0.218-0.217-1.196,1.401-2.954,1.401C169.931,138.182,169.496,137.909,169.496,137.909"/>
		<path class="st1" d="M171.946,137.284c0,0.171-0.223,0.316-0.502,0.316c-0.274,0-0.502-0.14-0.502-0.316    c0-0.171,0.223-0.316,0.502-0.316C171.723,136.968,171.946,137.113,171.946,137.284 M154.64,136.447    c0.233,0.176,0.704,1.359,1.943,1.359c0.902,0,1.026-0.335,1.306-0.491c0.28-0.155,0.575,0.14,0.398,0.398    c-0.176,0.264-0.514,0.594-1.664,0.594c-1.488,0-2.353-1.209-2.467-1.504C153.95,136.291,154.162,136.116,154.64,136.447"/>
		<path class="st1" d="M156.805,136.798c0,0.16-0.186,0.29-0.415,0.29c-0.232,0-0.42-0.129-0.42-0.29    c0-0.155,0.186-0.285,0.42-0.285C156.618,136.513,156.805,136.643,156.805,136.798"/>
	</g>
</g>
</svg>