<svg xmlns:xlink="http://www.w3.org/1999/xlink" xmlns="http://www.w3.org/2000/svg" id="Layer_1" data-name="Layer 1" viewBox="0 0 500 300" width="500"  height="300" ><defs><style>.cls-1{fill:#557086;}</style></defs><g id="Layer_2" data-name="Layer 2"><path class="cls-1" d="M146.84,224.72V99.56l-24,25.4-11.24-11.47,37.51-38.62h16.42V224.72Z"/><path class="cls-1" d="M194.8,186.75c0-20,17.07-33.72,35.71-39.32-17.3-5-33.26-16.18-33.26-35.93-.09-27,26.23-38.9,51.15-38.9s51.43,11.93,51.43,38.9c0,19.75-16.14,31-33.43,35.93,18.5,5.6,35.7,19.34,35.7,39.32,0,25.39-24.28,40.65-53.7,40.65S194.8,212.37,194.8,186.75Zm88.52-2c0-19.52-25.62-27.75-34.82-29-9.25,1.11-35.06,9.25-35.06,29,0,16.19,16.42,26.09,35.06,26.09s34.73-9.9,34.73-26.09ZM281.06,114c0-15.5-14.57-24.7-32.38-24.7S216.31,98.5,216.31,114c0,18.22,23.63,24.28,32.6,25.85,8.7-1.57,32-7.63,32-25.85Z"/><path class="cls-1" d="M361.3,159v30.89H345.58V159H318.52V144.66h27.15V114.87H361.3v29.79h27.15V159Z"/></g></svg>