<svg xmlns:xlink="http://www.w3.org/1999/xlink" xmlns="http://www.w3.org/2000/svg" class="svg-icon svelte-10mcogx" width="32"  height="32" ><defs><symbol id="icon-list" viewBox="0 0 32 32">
<path d="M29.867 0h-27.733c-1.178 0-2.133 0.955-2.133 2.133v0 27.867c0 1.105 0.895 2 2 2v0h28c1.105 0 2-0.895 2-2v0-27.867c0-1.178-0.955-2.133-2.133-2.133v0zM9 25.12l-4-4 2.133-2.133 1.933 1.947 4.867-4.933 2.133 2.133zM9 15.12l-4-4 2.067-2.187 1.933 1.947 4.933-4.947 2.133 2.133zM27 22.507h-7v-3.013h7zM27 12.507h-7v-3.013h7z"></path>
</symbol></defs><use xlink:href="#icon-list" stroke="#B1BAD3" fill="#B1BAD3" stroke-width="0px"></use></svg>