<svg xmlns:xlink="http://www.w3.org/1999/xlink" xmlns="http://www.w3.org/2000/svg" id="Layer_1" data-name="Layer 1" viewBox="0 0 1000 300" width="1000"  height="300" ><defs><style>.cls-1{fill:#557086;}</style></defs><path class="cls-1" d="M81.5,220.65c-3.07-1.47-6.49-1.48-9.72-2.33A71.3,71.3,0,0,1,81.64,78.58c39.43-4.92,75.79,24,79.7,63.35,3.84,38.56-22.24,71.94-61,78.07-.55.09-1.28-.18-1.53.65ZM116,151.39c5.85-3.25,7.56-5.09,8.75-9.4,2.43-8.8-.91-15.06-10.18-19.4-2.09-1-5.39-.92-6.07-2.94s.76-4.52,1.27-6.82c1.45-6.52,1.44-6.47-5.1-7.75-1.67-.33-2.46,0-2.73,1.76-.36,2.33-.9,4.62-1.4,6.93-1,4.49-1,4.45-5.56,3.37-1.34-.32-1.89-.76-1.49-2.28.81-3.07,1.44-6.19,2-9.3.2-1,.92-2.4-1-2.53-2.44-.16-4.73-2.17-7.27-.61-.3.18-.21,1-.32,1.47-.65,3-1.39,6-1.93,9-.33,1.83-1.14,2.29-2.93,1.85-4.09-1-8.26-1.71-12.34-2.76-1.8-.46-2.22.07-2.61,1.74-1.52,6.54-1.59,6.53,4.69,8.31a6.91,6.91,0,0,1,.9.21c2.25,1,3.46,2.5,2.9,5.06q-3.86,17.87-7.68,35.74c-.5,2.32-1.69,3.26-4.13,3-2-.24-4.33-1.94-5.84-.55s-1.79,3.8-2.62,5.78a8.8,8.8,0,0,1-.47,1.14c-1.11,1.87-.22,2.4,1.58,2.72,3.34.6,6.65,1.36,10,2.1,4.44,1,4.43,1,3.44,5.6-.23,1.1-.44,2.21-.67,3.31-1.32,6.25-1.31,6.2,5.12,7.38,1.65.31,2.43,0,2.74-1.75q.89-4.83,2-9.62c.78-3.24,2.93-.94,4.46-.94s2.62.22,2,2.35c-.89,3-1.3,6.21-2.1,9.28-.51,2,.21,2.68,2.07,3.09,6,1.29,6,1.34,7.33-4.65.56-2.5.37-5.82,1.93-7.26,1.72-1.59,5,0,7.57.18,12.46.8,19.87-4.86,22.09-16.92,1.07-5.84-.85-10.46-5.6-14C117.92,152.63,117,152,116,151.39Z"/><path class="cls-1" d="M226.13,84.8c-3.3,13.72-6.57,27.3-9.94,41.28,4.2-1.25,7.94-2.61,12-2.7,17.21-.39,28.43,8.94,31.16,26.73,4.17,27.16-11.89,53.62-38.4,60.9-15.7,4.31-31.17,2.07-46.33-3.29-2.28-.81-1.88-2.2-1.48-3.85q8.44-35.22,16.88-70.44c3.39-14.13,6.81-28.25,10.1-42.41.44-1.88,1.14-2.7,3.11-3,7.23-1,14.42-2.22,21.64-3.33A6.3,6.3,0,0,1,226.13,84.8Zm9.45,75.49a27.54,27.54,0,0,0-1.38-9.71,9.14,9.14,0,0,0-7.71-6.64,20.82,20.82,0,0,0-13.41,2.39,5.08,5.08,0,0,0-2.59,3.57q-4.73,20-9.7,39.94c-.5,2-.06,2.73,1.88,2.93,6.86.72,13.39-.08,19.05-4.35C231.08,181.37,235.2,171.72,235.58,160.29Z"/><path class="cls-1" d="M896.33,210.79c3-12.46,5.88-24.69,8.82-36.92,6.53-27.18,13.12-54.34,19.53-81.55.69-2.92,1.83-4.22,4.87-4.58,7-.83,14-2,21.61-3.18-3.31,13.65-6.54,27-9.85,40.6,5.59-.74,10.79-1.67,16.17-1.34,15.92,1,23.32,12,23.83,25.76.36,9.93-2.72,19.22-4.87,28.68-2.27,10-4.84,19.9-7.14,29.87-.47,2-1.22,2.8-3.44,2.73-6.28-.18-12.57-.21-18.85,0-2.67.09-2.8-.82-2.27-3,3.57-14.73,7.12-29.47,10.55-44.23.92-4,2-8,1.18-12.14-1-5.25-3.72-7.59-9.09-7.82a52.29,52.29,0,0,0-8,.54c-2.06.23-3,1.12-3.43,3.11-3.69,15.75-7.47,31.48-11.23,47.22-1.15,4.78-2.32,9.55-3.47,14.33-.24,1-.32,1.93-1.82,1.91C911.81,210.76,904.2,210.79,896.33,210.79Z"/><path class="cls-1" d="M786.37,123.21c12.59.25,22.53,1.47,32.06,5.17,2,.75,2.56,1.54,2,3.82-3.34,13.29-6.3,26.68-9.68,40a61,61,0,0,0,1.21,34.2c.71,2.24.47,3-2,3.25-5.11.54-10.21,1.27-15.26,2.19-2.7.49-4.63.25-5.3-2.77a1.15,1.15,0,0,0-.11-.29c-1.78-3.91-1.81-3.95-5.29-1.6a33.12,33.12,0,0,1-26.16,5.25c-12.2-2.54-19.08-10.47-21.83-22.33-5.07-21.87,3.53-45.08,21.47-57.57C766.86,126,777.33,122.85,786.37,123.21Zm-27.43,52.44a30.94,30.94,0,0,0,1,8.52c1.76,6.16,5.43,8.7,11.84,8.4,4.34-.21,7.84-2.12,11-4.93a5.11,5.11,0,0,0,1.66-3.44c.59-4.46,1.18-8.94,2.17-13.32,1.85-8.28,4-16.5,6-24.74.27-1.1.92-2.17-1-2.41-7.17-.87-13.93-.26-19.82,4.52C763.06,155.34,759.33,164.71,758.94,175.65Z"/><path class="cls-1" d="M522.88,158.44c-.59,19.15-6.64,35.78-23.09,47.19-11.06,7.67-23.44,9.24-36.27,6-12.35-3.08-19.1-11.71-21.76-23.82-4.58-20.78,4.94-45.28,22.28-57.28,11.09-7.68,23.33-9.47,36.23-6.3,13.05,3.2,21.55,14.26,22.6,28.64C523,154.74,522.88,156.6,522.88,158.44Zm-24,2a33.13,33.13,0,0,0-.63-6.75c-1.49-8.06-6.69-11.59-14.7-9.9a16.81,16.81,0,0,0-7.57,4c-9.14,8-13.72,26.81-9.29,38.13a9.51,9.51,0,0,0,8.6,6.42,15.83,15.83,0,0,0,13.19-4.72C496,180.13,498.35,170.65,498.84,160.48Z"/><path class="cls-1" d="M567.48,210.8c3.59-14.91,7.11-29.54,10.65-44.16,2.81-11.64,5.69-23.27,8.42-34.93a4.18,4.18,0,0,1,3.21-3.46,98.48,98.48,0,0,1,36.81-4.85,33.73,33.73,0,0,1,12,2.72c9.83,4.36,13.59,12.54,14.19,22.64.44,7.49-1.53,14.64-3.24,21.81-3,12.55-6.11,25.07-9.05,37.63-.45,1.92-1.07,2.7-3.17,2.65-6.39-.15-12.78-.2-19.16,0-2.77.09-2.65-.9-2.15-3q5.63-23.59,11.08-47.24a28.46,28.46,0,0,0,.87-7.31c-.19-6.17-3.43-9.46-9.62-9.62-2.47-.06-4.92.25-7.38.41s-3.34,1.13-3.85,3.33c-3.47,14.85-7,29.68-10.57,44.52-1.31,5.48-2.64,10.95-3.87,16.44-.39,1.71-1,2.48-3,2.44C582.31,210.71,575,210.8,567.48,210.8Z"/><path class="cls-1" d="M849.31,213.16c-9.95-.31-19.63-1.76-28.65-6.33-1.8-.91-2.4-1.58-1.4-3.59,2.15-4.3,4.12-8.7,5.92-13.16,1-2.45,1.86-3.21,4.55-1.74A39.66,39.66,0,0,0,855.34,193a14.5,14.5,0,0,0,4.14-1.16c5.56-2.65,6.16-8.33,1.21-11.95-3.25-2.38-7.05-3.77-10.66-5.48-4.75-2.26-9.31-4.74-12.85-8.82-8-9.2-6.84-29.8,9.17-37.84,8.95-4.49,18.52-5.21,28.27-4.78a58.94,58.94,0,0,1,20.28,4.86c1.89.8,2.48,1.57,1.45,3.61-2.22,4.38-4.26,8.85-6.19,13.37-.82,1.93-1.59,2.32-3.62,1.41-6.65-3-13.6-4.58-21-3.8a13.42,13.42,0,0,0-5.3,1.49c-4.46,2.5-4.76,8.15-.37,10.73,5,3,10.34,5.48,15.46,8.31,6.12,3.39,11,7.77,12.68,15,2.78,12.41-2.34,23.69-13.66,29.74C866.53,211.91,858,213,849.31,213.16Z"/><path class="cls-1" d="M374,125.24c-1.54,6.3-3.05,12.33-4.49,18.38-.37,1.57-1.49,1.42-2.62,1.42-7.21,0-14.43.11-21.63-.07-2.48-.06-3.32.78-3.83,3.09-2.33,10.5-5.05,20.91-7.26,31.42-1.78,8.48,1.82,12.65,10.51,12.93a39,39,0,0,0,13.65-2.13c1.61-.54,2.22-.32,2.36,1.42.42,5,.93,10,1.46,15a1.84,1.84,0,0,1-1.49,2.24c-11.64,3.95-23.56,5.44-35.52,2.23-11.79-3.16-16.2-12.1-15.73-24,.53-13.62,5-26.52,7.93-39.69,3-13.59,6.43-27.1,9.61-40.65.45-2,1-3.08,3.43-3.37,6.83-.81,13.63-2,20.42-3.15,1.91-.33,2.35,0,1.84,1.94-1.73,6.64-3.2,13.34-5,20-.64,2.37-.45,3.19,2.31,3.13C357.85,125.12,365.78,125.24,374,125.24Z"/><path class="cls-1" d="M663.75,175.94c.71-20.54,8.21-37.44,27.17-47.35,14.77-7.72,30.24-7.51,45.73-1.68,1.94.73,2.21,1.53,1.35,3.35q-3.42,7.22-6.48,14.6c-.71,1.73-1.43,2.07-3.16,1.33a31.73,31.73,0,0,0-19.34-2c-10.71,2.26-16.47,9.49-18.9,19.63a34.89,34.89,0,0,0,.07,18.53c2,6.53,6,9.54,12.87,10a41.8,41.8,0,0,0,17.28-2.49c1.73-.63,2.57-.65,2.71,1.54.34,5,.87,10,1.32,15,.11,1.13.28,2.13-1.25,2.69-13.08,4.73-26.37,6.14-39.49.87-14-5.63-19.39-17.18-19.88-31.53C663.73,177.58,663.75,176.76,663.75,175.94Z"/><path class="cls-1" d="M429.58,189.08c.6,6.12,1.16,12,1.76,17.9A1.68,1.68,0,0,1,430,209c-12.84,4.71-25.87,6-38.89,1.15-12.3-4.59-18.68-14.15-20.11-26.82-1.8-16,1.6-30.86,12.28-43.36,11.33-13.25,26.25-18,43.36-17a54.8,54.8,0,0,1,17,4c1.76.71,2,1.41,1.24,3.11-2.22,4.72-4.36,9.49-6.32,14.33-.82,2-1.63,2.63-3.78,1.67a31.19,31.19,0,0,0-14.14-2.49c-9.57.38-16.79,4.56-21.12,13.09a35.5,35.5,0,0,0-2.81,24.53c1.66,7.35,6,10.66,13.53,11.14C416.89,192.76,423.15,191.4,429.58,189.08Z"/><path class="cls-1" d="M525.37,210.8c4.06-17.06,8-33.78,12-50.5,2.59-10.85,5.25-21.69,7.72-32.57.46-2,1.27-2.58,3.27-2.54,6.48.12,13,.14,19.46,0,2.19,0,2.33.73,1.9,2.5q-9.82,40.59-19.57,81.2c-.31,1.3-.66,2-2.14,1.94C540.63,210.76,533.22,210.8,525.37,210.8Z"/><path class="cls-1" d="M307.1,125.24c-3.58,14.93-7.08,29.56-10.59,44.19-3.08,12.84-6.2,25.67-9.22,38.53-.48,2.09-1.24,3-3.62,2.91-6.17-.21-12.36-.2-18.54,0-2.5.07-2.88-.6-2.32-2.9q7.83-32.39,15.52-64.82c1.28-5.37,2.6-10.74,3.89-16.12.21-.87.17-1.81,1.56-1.8C291.48,125.26,299.18,125.24,307.1,125.24Z"/><path class="cls-1" d="M298.27,114.87c-10.15,0-15.83-7.91-12.48-17.47a17,17,0,0,1,17.32-11.14c10,1,14.66,8.93,10.83,18.16A16.92,16.92,0,0,1,298.27,114.87Z"/><path class="cls-1" d="M548.14,102.7a16.78,16.78,0,0,1,20.7-16.07c6.1,1.51,9.46,5.76,9.42,11.93-.08,10.94-11.35,19-21.8,15.58C550.79,112.29,548.14,108.64,548.14,102.7Z"/><path class="cls-1" d="M95.68,172.07a53.51,53.51,0,0,1-11.87-1.68c-1.35-.29-2-.69-1.63-2.21,1.12-4.89,2.12-9.8,3.2-14.7.19-.9.37-1.7,1.79-1.42,5.15,1,10.31,1.92,14.93,4.6,4,2.33,5.75,5.47,5,9-.88,4-3.75,6.13-8.62,6.45C97.53,172.12,96.61,172.07,95.68,172.07Z"/><path class="cls-1" d="M98.52,144.92c-3.41,0-7.58.19-9.77-1.77-2.34-2.09.68-5.87.81-9a8,8,0,0,1,.35-1.49c1.4-6.24,1.4-6.22,7.82-4.56a25.23,25.23,0,0,1,7.13,2.8c3.37,2.09,4.67,5,3.81,8.56-.74,3-3.36,5.05-7.07,5.42A28.75,28.75,0,0,1,98.52,144.92Z"/></svg>