<svg xmlns:xlink="http://www.w3.org/1999/xlink" xmlns="http://www.w3.org/2000/svg" id="Layer_1" data-name="Layer 1" viewBox="0 0 1000 300" width="1000"  height="300" ><defs><style>.cls-1{fill:#557086;}</style></defs><path class="cls-1" d="M173.33,122.63l-4.7,18.86c5.33,1.32,21.77,6.75,24.43-3.92h0C195.84,126.44,178.67,124,173.33,122.63Z"/><path class="cls-1" d="M166.26,151l-5.19,20.8c6.4,1.59,26.15,7.93,29.07-3.8C193.19,155.77,172.66,152.6,166.26,151Z"/><path class="cls-1" d="M194.58,66.48a86.08,86.08,0,1,0,62.7,104.35h0A86.08,86.08,0,0,0,194.58,66.48Zm17.15,71.26c-1.24,8.38-5.89,12.44-12.06,13.87,8.47,4.41,12.78,11.18,8.68,22.91-5.1,14.56-17.21,15.79-33.32,12.75l-3.91,15.66-9.45-2.35,3.86-15.46c-2.45-.61-4.95-1.25-7.53-2l-3.87,15.53-9.43-2.36,3.91-15.69c-2.21-.57-4.45-1.17-6.74-1.74l-12.29-3.06L134.27,165s7,1.85,6.86,1.71a3.44,3.44,0,0,0,4.34-2.24l6.17-24.77,1,.25a7,7,0,0,0-1-.31L156.07,122c.11-2-.58-4.54-4.41-5.5.15-.09-6.86-1.7-6.86-1.7l2.52-10.09,13,3.25v0c2,.49,4,1,6,1.42l3.86-15.51,9.45,2.35-3.8,15.21q3.8.86,7.57,1.78l3.77-15.11,9.44,2.35L192.79,116C204.72,120.12,213.44,126.28,211.73,137.74Z"/><path class="cls-1" d="M340,116a41.19,41.19,0,0,1,18.08,3.7,36.38,36.38,0,0,1,12.67,10,42.13,42.13,0,0,1,7.4,14.82,67.53,67.53,0,0,1,2.38,18.3,74.56,74.56,0,0,1-20.69,51.76,71.3,71.3,0,0,1-22.67,15.67,69.18,69.18,0,0,1-28.31,5.78c-1.31,0-3.62,0-6.88-.11a100.24,100.24,0,0,1-11.2-1,132.93,132.93,0,0,1-13.41-2.64,67.14,67.14,0,0,1-13.41-4.78l37.7-158.41,33.77-5.23-13.5,56.21a52.59,52.59,0,0,1,8.71-3A38.76,38.76,0,0,1,340,116Zm-28.32,93.27a29.7,29.7,0,0,0,14.38-3.7,37.88,37.88,0,0,0,11.67-9.92,49.87,49.87,0,0,0,7.73-14.06,48,48,0,0,0,2.84-16.35c0-7-1.17-12.41-3.49-16.34S338.17,143,331.93,143A40,40,0,0,0,324,144.1a19.85,19.85,0,0,0-8.84,4.59l-14.38,59.69c.87.16,1.64.3,2.29.44a16.26,16.26,0,0,0,2.05.32,22.17,22.17,0,0,0,2.63.13ZM415.53,233H383.28l27.23-114.6H443Zm15.69-128.57a20,20,0,0,1-12.2-4c-3.65-2.67-5.46-6.78-5.46-12.32a20.4,20.4,0,0,1,1.84-8.59,23,23,0,0,1,4.92-7,24.09,24.09,0,0,1,7.07-4.69A21.67,21.67,0,0,1,436,66.12a20,20,0,0,1,12.2,4q5.43,4,5.44,12.31a20.39,20.39,0,0,1-1.86,8.62,22.65,22.65,0,0,1-4.89,7,23.78,23.78,0,0,1-7.08,4.68,21.15,21.15,0,0,1-8.6,1.73Zm40-14.59L505,84.64l-8.3,33.78h36.18L526.37,145H490.42l-9.58,40.08a45.44,45.44,0,0,0-1.52,9.37A17,17,0,0,0,480.4,202a9.42,9.42,0,0,0,4.68,4.89c2.25,1.17,5.47,1.76,9.69,1.76a51.31,51.31,0,0,0,10.15-1,70.75,70.75,0,0,0,9.9-2.72l2.41,24.85a118.23,118.23,0,0,1-14.16,4.13A81.87,81.87,0,0,1,485,235.62q-15,0-23.32-4.44A25.9,25.9,0,0,1,449.88,219a38.88,38.88,0,0,1-3-17.75,114.22,114.22,0,0,1,3-21.14l21.37-90.2Zm60.24,97.4a80.57,80.57,0,0,1,4.79-27.9A68.73,68.73,0,0,1,550,136.48,64.48,64.48,0,0,1,571.7,121a69.24,69.24,0,0,1,28.42-5.67,75.09,75.09,0,0,1,17.54,1.86,70.88,70.88,0,0,1,14.07,4.9L620.61,147.4q-4.46-1.78-9.05-3.16a39.26,39.26,0,0,0-11.43-1.43c-10.77,0-19.28,3.72-25.61,11.11S565,171.29,565,183.78q0,11.11,4.81,18c3.19,4.58,9.09,6.86,17.64,6.86a56.69,56.69,0,0,0,12.21-1.3,59.74,59.74,0,0,0,10.46-3.27L612.56,230a118.1,118.1,0,0,1-13.5,4.26,75.07,75.07,0,0,1-17.66,1.84q-13.51,0-22.88-3.92a43.38,43.38,0,0,1-15.46-10.57A39.66,39.66,0,0,1,534.23,206a64.1,64.1,0,0,1-2.74-18.73Zm143.26,48.8a52.76,52.76,0,0,1-20-3.5,37.06,37.06,0,0,1-14.05-9.8,42.45,42.45,0,0,1-8.39-14.92,60.38,60.38,0,0,1-2.81-19,84.16,84.16,0,0,1,4.23-26.16,74.32,74.32,0,0,1,12.54-23.53A67,67,0,0,1,666.47,122c8-4.42,17.14-6.64,27.44-6.64a53.09,53.09,0,0,1,20,3.49A37.3,37.3,0,0,1,728,128.65a42.54,42.54,0,0,1,8.37,14.93,60.3,60.3,0,0,1,2.83,19.06,87,87,0,0,1-4.12,26.16,75.56,75.56,0,0,1-12.21,23.52,63.88,63.88,0,0,1-20.15,17.1q-12.07,6.65-28,6.65Zm16.12-93.25a20.4,20.4,0,0,0-12.63,4.12,35.8,35.8,0,0,0-9.14,10.47,51.92,51.92,0,0,0-5.57,13.84,59.38,59.38,0,0,0-1.84,14.26q0,10.92,3.48,17c2.33,4.05,6.53,6.09,12.64,6.09a20.29,20.29,0,0,0,12.64-4.15A35.64,35.64,0,0,0,699.59,194a51.87,51.87,0,0,0,5.58-13.84A60.88,60.88,0,0,0,707,165.91c0-7.25-1.17-12.93-3.5-17s-6.54-6.1-12.64-6.1ZM774.38,233H742.1l27.24-114.6h32.48L774.38,233Zm15.67-128.57a19.91,19.91,0,0,1-12.19-4q-5.46-4-5.47-12.32a20.41,20.41,0,0,1,1.86-8.59,22.63,22.63,0,0,1,4.91-7,24,24,0,0,1,7.08-4.69,21.52,21.52,0,0,1,8.59-1.74,20,20,0,0,1,12.21,4c3.63,2.7,5.46,6.8,5.46,12.31a20.68,20.68,0,0,1-1.87,8.62,22.62,22.62,0,0,1-4.88,7,24,24,0,0,1-7.08,4.68,21.21,21.21,0,0,1-8.62,1.73Zm35,19.18c2.45-.72,5.19-1.58,8.16-2.52q4.95-1.53,10-2.59a117.88,117.88,0,0,1,12.41-2,139.17,139.17,0,0,1,15.56-.78q25.51,0,35.21,14.83t3.39,40.53L895,233H862.53l14.38-60.58c.88-3.78,1.56-7.44,2.08-11a26.22,26.22,0,0,0-.12-9.37,11.18,11.18,0,0,0-4-6.54c-2.12-1.67-5.34-2.5-9.7-2.5a65.31,65.31,0,0,0-12.85,1.32L831.16,233H798.69l26.37-109.37Z"/></svg>