<svg xmlns:xlink="http://www.w3.org/1999/xlink" xmlns="http://www.w3.org/2000/svg" class="svg-icon svelte-10mcogx" width="32"  height="32" ><defs><symbol id="icon-hyperlink" viewBox="0 0 32 32">
<path d="M28.005 15.646c-0.193 0.758-0.433 1.414-0.73 2.038l0.028-0.066c-0.335 0.705-0.697 1.308-1.108 1.872l0.023-0.033c1 0.882 1.627 2.166 1.627 3.597 0 0.746-0.171 1.452-0.475 2.082l0.012-0.029c-0.794 1.655-2.456 2.777-4.38 2.777-0.75 0-1.459-0.17-2.093-0.474l0.029 0.013-7.37-3.467c-1.604-0.77-2.703-2.362-2.752-4.215l-0-0.006c-0.009-0.109-0.015-0.236-0.015-0.364s0.005-0.255 0.016-0.38l-0.001 0.016c0-0.146 0-0.278 0-0.423 0.018-0.119 0.041-0.222 0.071-0.322l-0.004 0.018c0.088-0.304 0.182-0.559 0.293-0.805l-0.015 0.038c0.149-0.295 0.302-0.547 0.474-0.784l-0.011 0.016 0.119-0.146c0.182-0.235 0.377-0.443 0.591-0.631l0.005-0.004c0.844-0.733 1.954-1.18 3.168-1.18 0.054 0 0.107 0.001 0.161 0.003l-0.008-0c0.009-0 0.020-0 0.030-0 0.74 0 1.439 0.171 2.062 0.476l-0.028-0.012 2.223 1.045c-0.84 0.708-1.934 1.139-3.129 1.139-0.026 0-0.051-0-0.077-0.001l0.004 0h-1.085c-0.838 0.005-1.561 0.495-1.9 1.205l-0.005 0.013c-0.126 0.261-0.2 0.568-0.2 0.892 0 0.675 0.32 1.276 0.817 1.658l0.005 0.004c0.709 0.205 1.523 0.325 2.366 0.331l0.003 0c4.904-0.039 8.864-4.023 8.864-8.932 0-3.522-2.039-6.568-5-8.022l-0.053-0.023-7.344-3.467c-1.233-0.682-2.703-1.083-4.266-1.083-4.94 0-8.945 4.005-8.945 8.945 0 3.746 2.302 6.954 5.569 8.286l0.060 0.022 1.323 0.609c-0.106 0.516-0.166 1.109-0.166 1.717 0 3.546 2.067 6.61 5.062 8.052l0.053 0.023 7.357 3.467c1.121 0.546 2.439 0.865 3.831 0.865 3.553 0 6.621-2.078 8.055-5.085l0.023-0.054c0.525-1.104 0.832-2.398 0.832-3.765 0-3.094-1.573-5.82-3.962-7.423l-0.032-0.020zM5.021 7.111c0.796-1.653 2.456-2.775 4.379-2.779h0.001c0.745 0.001 1.451 0.171 2.080 0.476l-0.029-0.012 7.41 3.467c1.558 0.802 2.612 2.384 2.646 4.217l0 0.005-2.091-0.992c-1.111-0.534-2.416-0.845-3.793-0.845-2.876 0-5.435 1.36-7.069 3.471l-0.015 0.021-1.323-0.595c-1.601-0.809-2.68-2.441-2.68-4.325 0-0.766 0.178-1.491 0.496-2.134l-0.013 0.028z"></path>
</symbol></defs><use xlink:href="#icon-hyperlink" stroke="#B1BAD3" fill="#B1BAD3" stroke-width="0px"></use></svg>