<svg xmlns="http://www.w3.org/2000/svg" xmlns:xlink="http://www.w3.org/1999/xlink" version="1.1" x="0px" y="0px" viewBox="0 0 370.291 268.26" style="enable-background:new 0 0 370.291 268.26;" xml:space="preserve" width="370.291"  height="268.26" >
<style type="text/css">
	.st0{fill:#00019E;}
	.st1{fill:#FFFFFF;}
</style>
<g id="Layer_1">
	<g>
		<path class="st0" d="M284.756,128.796c-0.043-0.097-0.123-0.174-0.223-0.213l-12.415-4.787c0.232-0.852,0.68-2.071,1.531-3.309    l6.402,2.834c0.209,0.092,0.427,0.137,0.652,0.137c0.583,0,1.122-0.314,1.407-0.816c0.178-0.272,0.669-1.07,1.078-2.124    c0.648-1.663,0.787-3.148,0.415-4.411c-0.384-1.308-1.321-2.32-2.706-2.928l-17.085-7.852c-0.03-0.016-0.07-0.034-0.111-0.052    l-0.025-0.012c-0.643-0.281-1.881-0.645-3.386-0.139c0.01-0.525,0.014-1.052,0.012-1.586c-0.004-1.354-0.047-2.746-0.126-4.133    c-0.083-1.44-0.207-2.914-0.369-4.381c-0.961-8.703-2.989-15.042-3.816-17.363l-0.276-0.775    c-3.345-9.379-5.986-16.787-5.922-25.648c0.049-6.67,8.383-16.056,11.59-19.109l3.002-2.852l-31.62-28.871l-2.493,1.642    c-5.79,3.812-13.282,5.912-21.094,5.912c-8.196,0-15.949-2.276-21.833-6.411L185.138,0l-2.205,1.549    c-5.884,4.134-13.638,6.411-21.832,6.411c-7.813,0-15.306-2.1-21.096-5.912l-2.493-1.642l-28.565,26.082l-3.051,2.789l2.994,2.852    c3.208,3.055,11.543,12.442,11.591,19.111c0.065,8.862-2.577,16.27-5.921,25.649l-0.277,0.774    c-0.827,2.321-2.856,8.66-3.817,17.362c-0.163,1.472-0.287,2.947-0.369,4.382c-0.079,1.389-0.121,2.779-0.126,4.132    c-0.002,0.531,0.003,1.057,0.012,1.581c-1.499-0.5-2.73-0.136-3.371,0.144l-0.026,0.012c-0.04,0.019-0.08,0.036-0.11,0.052    l-17.085,7.852c-1.385,0.607-2.321,1.62-2.706,2.928c-0.372,1.263-0.233,2.747,0.414,4.411c0.411,1.054,0.901,1.852,1.079,2.124    c0.285,0.502,0.824,0.816,1.407,0.816c0.225,0,0.444-0.046,0.653-0.137l6.402-2.834c0.851,1.238,1.299,2.457,1.531,3.309    l-12.414,4.787c-0.101,0.039-0.18,0.116-0.224,0.213c-0.043,0.098-0.045,0.209-0.005,0.309l0.749,1.876    c7.758,19.448,20.94,36.073,38.121,48.078c15.96,11.16,34.655,17.684,54.074,18.875l6.389,6.347    c0.079,0.078,0.181,0.117,0.285,0.117c0.102,0,0.206-0.039,0.285-0.117l6.388-6.347l0,0c19.418-1.192,38.112-7.716,54.072-18.875    c17.181-12.005,30.364-28.63,38.121-48.078l0.748-1.876C284.801,129.005,284.799,128.895,284.756,128.796 M138.313,159.384    c-10.86-7.587-19.656-17.564-25.793-29.164l3.057-1.101c0.097,0.184,0.191,0.372,0.291,0.554c0.681,1.246,1.434,2.465,2.237,3.622    c0.084,0.12,0.193,0.284,0.329,0.489l0.058,0.087c13.739,20.658,33.972,33.542,56.988,36.299l3.679,3.687    C164.436,172.783,150.42,167.836,138.313,159.384 M231.979,159.384c-12.113,8.454-26.135,13.404-40.865,14.477l3.684-3.691    c23.016-2.757,43.25-15.641,56.988-36.299l0.058-0.086c0.136-0.204,0.246-0.37,0.331-0.492c0.802-1.157,1.554-2.374,2.235-3.619    c0.101-0.184,0.199-0.373,0.296-0.559l3.065,1.104C251.635,141.821,242.838,151.797,231.979,159.384"/>
		<path class="st1" d="M283.264,130.684c-7.7,19.303-20.783,35.805-37.835,47.719c-15.88,11.103-34.488,17.583-53.812,18.74    c-0.098,0.006-0.19,0.047-0.261,0.116l-6.21,6.171l-6.211-6.171c-0.07-0.069-0.162-0.11-0.261-0.116    c-19.324-1.157-37.931-7.637-53.811-18.74c-17.052-11.915-30.136-28.416-37.836-47.719l-0.598-1.5l23.541-9.07    c0.624-0.241,1.266-0.031,1.627,0.509l0.025,0.041c0.145,0.242,0.475,0.699,0.904,1.111c0.196,0.621,0.405,1.232,0.624,1.838    c-1.222-0.462-2.107-1.631-2.451-2.153l-0.082-0.124c-0.039-0.058-0.106-0.097-0.182-0.097c-0.03,0-0.058,0.006-0.084,0.017    v-0.001l-1.668,0.647l-0.751,0.291l0.139,0.348c0.053,0.13,0.107,0.258,0.16,0.388c0.695,1.712,1.447,3.392,2.248,5.045    c0.117,0.242,0.235,0.484,0.354,0.724l0.763-0.274l3.081-1.111c0.171,0.367,0.348,0.729,0.527,1.088l-3.061,1.103l-0.764,0.275    c0.123,0.241,0.251,0.478,0.376,0.718c6.199,11.755,15.098,21.861,26.094,29.544c12.478,8.71,26.963,13.733,42.166,14.676    l1.295,1.298c-15.93-0.733-31.13-5.868-44.171-14.972c-13.602-9.504-24.05-22.66-30.215-38.049l-0.139-0.346l-18.754,7.232    l0.141,0.352c7.611,19.08,20.544,35.391,37.399,47.168c15.873,11.099,34.472,17.513,53.794,18.554l5.51,5.479l0.27,0.264    l5.781-5.743c19.322-1.042,37.921-7.455,53.794-18.554c16.856-11.777,29.788-28.088,37.399-47.168l0.141-0.352l-18.755-7.232    l-0.139,0.346c-6.164,15.389-16.612,28.545-30.214,38.049c-13.048,9.107-28.255,14.244-44.192,14.973l1.296-1.298    c15.21-0.941,29.701-5.964,42.184-14.678c10.996-7.683,19.896-17.789,26.094-29.544c0.126-0.239,0.254-0.477,0.378-0.718    l-0.765-0.275l-3.073-1.106c0.18-0.36,0.356-0.723,0.527-1.088l3.093,1.114l0.763,0.274c0.119-0.241,0.237-0.482,0.355-0.724    c0.8-1.653,1.553-3.333,2.248-5.045c0.053-0.13,0.107-0.258,0.16-0.388l0.139-0.348l-0.75-0.291l-1.667-0.645l0,0    c-0.026-0.011-0.054-0.017-0.084-0.017c-0.076,0-0.141,0.039-0.181,0.097v-0.001l-0.082,0.125c-0.347,0.523-1.237,1.7-2.468,2.159    c0.217-0.601,0.425-1.208,0.621-1.825c0.438-0.416,0.776-0.886,0.923-1.13l0.025-0.041c0.361-0.54,1.003-0.75,1.626-0.509    l23.542,9.07L283.264,130.684z"/>
		<path class="st1" d="M158.505,180.839l1.352,1.173c0.928,0.809,1.402,1.747,1.028,2.98c-0.591,1.949-2.501,2.617-4.365,2.058    c-0.886-0.266-1.908-0.763-2.698-1.339c-0.198-0.134-0.237-0.249-0.201-0.37c0.021-0.067,0.073-0.141,0.125-0.213l0.699-0.987    c0.082-0.123,0.187-0.225,0.364-0.171c0.068,0.02,0.131,0.054,0.215,0.123c0.589,0.457,1.303,0.848,1.998,1.055    c0.571,0.172,1.382,0.09,1.584-0.573c0.156-0.514-0.175-0.893-0.538-1.209l-1.571-1.385c-0.868-0.762-1.281-1.8-0.936-2.938    c0.524-1.732,2.562-2.185,4.155-1.708c0.98,0.293,1.771,0.721,2.518,1.344c0.189,0.16,0.242,0.28,0.205,0.401    c-0.016,0.055-0.064,0.114-0.117,0.188l-0.742,0.929c-0.121,0.156-0.223,0.199-0.346,0.162c-0.068-0.02-0.142-0.073-0.225-0.141    c-0.484-0.41-1.162-0.82-1.72-0.987c-0.545-0.163-1.219-0.142-1.411,0.492C157.747,180.155,158.21,180.589,158.505,180.839"/>
		<path class="st1" d="M150.496,183.291c0.211,0.084,0.253,0.285,0.178,0.468l-0.282,0.695c-0.064,0.156-0.228,0.259-0.412,0.185    l-3.389-1.36c-0.198-0.079-0.271-0.277-0.213-0.42l0.287-0.709c0.096-0.235,0.271-0.288,0.468-0.207l0.606,0.242l2.606-6.422    l-0.699-0.279c-0.211-0.086-0.252-0.285-0.178-0.469l0.281-0.694c0.064-0.158,0.228-0.259,0.412-0.186l3.533,1.417    c0.199,0.079,0.272,0.276,0.213,0.42l-0.288,0.708c-0.096,0.235-0.269,0.287-0.467,0.208l-0.713-0.286l-2.606,6.423    L150.496,183.291z"/>
		<path class="st1" d="M139.943,171.149c-0.252-0.131-0.286-0.308-0.155-0.558l0.487-0.926c0.112-0.214,0.278-0.255,0.505-0.137    l6.135,3.188l0.643,0.334c0.227,0.118,0.262,0.264,0.177,0.427c-0.007,0.012-0.014,0.024-0.027,0.049l-0.621,0.937    c-0.157,0.237-0.354,0.215-0.618,0.078l-2.217-1.153l-3.55,6.751c-0.145,0.276-0.209,0.306-0.461,0.175l-1.424-0.74    c-0.265-0.138-0.271-0.187-0.132-0.451l3.563-6.777L139.943,171.149z"/>
		<path class="st1" d="M137.356,167.368l-1.227-0.794c-0.226-0.147-0.411-0.098-0.599,0.033l-7.808,5.756    c-0.054,0.032-0.086,0.079-0.117,0.126c-0.07,0.107-0.065,0.228,0.067,0.313l1.358,0.879c0.214,0.139,0.395,0.07,0.544-0.053    l1.407-1.112l0.417,0.27l2.097,1.357l0.429,0.277l-0.423,1.683c-0.06,0.247-0.039,0.447,0.247,0.633l1.335,0.863    c0.166,0.108,0.312,0.067,0.405-0.076c0.031-0.047,0.058-0.114,0.081-0.2l2.047-9.417    C137.655,167.713,137.594,167.521,137.356,167.368 M135.12,169.85l-0.778,2.819l-1.954-1.265l2.271-1.835    c0.247-0.195,0.473-0.386,0.672-0.561l0.024,0.016C135.282,169.264,135.207,169.535,135.12,169.85"/>
		<path class="st1" d="M125.722,166.468l-0.927-1.872c-0.514-1.032-0.501-2.149,0.25-3.071c1.145-1.407,3.203-1.06,4.496-0.02    c0.796,0.64,1.365,1.334,1.82,2.191c0.114,0.218,0.118,0.349,0.038,0.447c-0.036,0.044-0.102,0.081-0.179,0.129l-1.04,0.582    c-0.172,0.099-0.283,0.1-0.383,0.021c-0.055-0.045-0.103-0.12-0.154-0.216c-0.292-0.563-0.763-1.196-1.217-1.56    c-0.442-0.356-1.074-0.591-1.494-0.075c-0.286,0.351-0.023,0.927,0.155,1.27l0.806,1.595c0.552,1.097,0.632,2.144-0.181,3.143    c-1.288,1.582-3.31,1.483-4.825,0.267c-0.718-0.579-1.475-1.424-1.988-2.254c-0.131-0.197-0.125-0.319-0.044-0.418    c0.045-0.054,0.121-0.102,0.197-0.151l1.023-0.65c0.122-0.083,0.258-0.137,0.402-0.023c0.055,0.045,0.102,0.101,0.152,0.197    c0.372,0.644,0.884,1.273,1.448,1.726c0.464,0.374,1.246,0.603,1.685,0.065C126.101,167.372,125.94,166.897,125.722,166.468"/>
		<path class="st1" d="M115.987,160.31c0.183,0.199,0.155,0.397-0.034,0.569l-0.794,0.728c-0.23,0.21-0.429,0.141-0.593-0.034    l-3.66-3.95c-0.202-0.219-0.256-0.381,0.026-0.639l6.629-6.07c0.188-0.172,0.38-0.175,0.562,0.023l0.972,1.049    c0.212,0.229,0.216,0.38-0.024,0.599l-5.541,5.074L115.987,160.31z"/>
		<path class="st1" d="M108.938,153.031c0.138,0.179,0.073,0.372-0.086,0.492l-0.597,0.456c-0.136,0.103-0.329,0.108-0.45-0.049    l-2.225-2.881c-0.13-0.168-0.092-0.375,0.031-0.47l0.609-0.464c0.203-0.155,0.38-0.112,0.51,0.055l0.398,0.516l5.525-4.215    l-0.458-0.593c-0.139-0.18-0.073-0.373,0.085-0.493l0.598-0.457c0.136-0.102,0.329-0.108,0.45,0.049l2.319,3.004    c0.13,0.169,0.092,0.375-0.032,0.47l-0.609,0.465c-0.203,0.155-0.379,0.111-0.509-0.056l-0.467-0.606l-5.525,4.215    L108.938,153.031z"/>
		<path class="st1" d="M104.783,139.118l-4.71,2.881c-0.267,0.163-0.438,0.102-0.587-0.14l-0.693-1.119    c-0.171-0.276-0.185-0.434,0.105-0.612l7.677-4.695c0.315-0.191,0.465-0.085,0.621,0.169l0.626,1.012    c0.149,0.239,0.151,0.405,0.051,0.649l-2.624,6.548l0.015,0.024l4.746-2.903c0.267-0.163,0.433-0.083,0.582,0.157l0.723,1.168    c0.194,0.313,0.039,0.441-0.167,0.567l-7.652,4.679c-0.315,0.193-0.458,0.098-0.592-0.119l-0.633-1.023    c-0.134-0.216-0.161-0.448-0.062-0.693l2.587-6.526L104.783,139.118z"/>
		<path class="st1" d="M185.624,189.642c0.227,0.005,0.339,0.175,0.336,0.373l-0.012,0.749c-0.003,0.17-0.119,0.323-0.317,0.32    l-3.653-0.054c-0.214-0.003-0.353-0.161-0.351-0.315l0.011-0.763c0.005-0.255,0.148-0.365,0.361-0.362l0.654,0.01l0.104-6.922    l-0.753-0.012c-0.228-0.003-0.338-0.175-0.336-0.372l0.011-0.749c0.003-0.17,0.119-0.323,0.318-0.32l3.808,0.056    c0.213,0.004,0.353,0.161,0.35,0.316l-0.011,0.763c-0.004,0.255-0.148,0.366-0.361,0.363l-0.768-0.012l-0.104,6.923    L185.624,189.642z"/>
		<path class="st1" d="M178.532,181.555l-1.105,8.864c-0.045,0.365-0.209,0.416-0.464,0.383l-1.199-0.148    c-0.254-0.031-0.453-0.155-0.582-0.385l-3.51-6.086l-0.029-0.003l-0.68,5.456c-0.039,0.308-0.193,0.402-0.475,0.368l-1.312-0.162    c-0.325-0.039-0.457-0.126-0.415-0.464l1.109-8.892c0.045-0.364,0.224-0.413,0.52-0.377l1.185,0.146    c0.282,0.035,0.412,0.136,0.542,0.366l3.505,6.129l0.029,0.003l0.685-5.497c0.039-0.308,0.206-0.388,0.488-0.353l1.369,0.169    C178.559,181.117,178.562,181.316,178.532,181.555"/>
		<path class="st1" d="M191.414,183.647c0.036,0.451,0.625,0.688,0.992,0.815l1.688,0.603c1.16,0.419,1.944,1.122,2.046,2.404    c0.163,2.028-1.372,3.341-3.313,3.494c-0.921,0.073-2.055-0.023-3.002-0.273c-0.232-0.053-0.311-0.146-0.321-0.273    c-0.005-0.07,0.016-0.156,0.038-0.244l0.291-1.171c0.032-0.144,0.092-0.276,0.277-0.291c0.071-0.006,0.142,0.003,0.245,0.037    c0.716,0.213,1.523,0.318,2.246,0.262c0.595-0.048,1.321-0.416,1.266-1.107c-0.042-0.535-0.489-0.77-0.944-0.931l-1.968-0.723    c-1.087-0.397-1.851-1.215-1.946-2.398c-0.144-1.803,1.589-2.961,3.246-3.092c1.02-0.08,1.914,0.033,2.837,0.343    c0.235,0.082,0.328,0.173,0.338,0.3c0.005,0.055-0.018,0.129-0.039,0.215l-0.352,1.134c-0.055,0.189-0.135,0.266-0.263,0.276    c-0.07,0.006-0.158-0.016-0.261-0.05c-0.6-0.208-1.382-0.344-1.963-0.298C191.981,182.722,191.361,182.984,191.414,183.647"/>
		<path class="st1" d="M202.89,188.001l0.701-0.121c0.224-0.039,0.365,0.109,0.4,0.304l0.129,0.737    c0.029,0.168-0.057,0.34-0.252,0.374l-3.6,0.621c-0.209,0.036-0.376-0.092-0.404-0.246l-0.131-0.752    c-0.043-0.25,0.077-0.385,0.287-0.422l0.645-0.112l-1.193-6.821l-0.742,0.128c-0.224,0.039-0.365-0.109-0.399-0.304l-0.129-0.737    c-0.029-0.168,0.056-0.339,0.252-0.374l3.754-0.649c0.21-0.035,0.377,0.094,0.404,0.247l0.131,0.752    c0.044,0.25-0.077,0.385-0.286,0.422l-0.756,0.131L202.89,188.001z"/>
		<path class="st1" d="M219.329,179.798c-0.921-2.718-3.039-4.321-5.854-3.378c-2.68,0.898-3.631,3.453-2.659,6.318    c0.976,2.879,3.148,4.284,5.855,3.377C219.202,185.268,220.35,182.81,219.329,179.798 M216.125,184.285    c-1.28,0.428-2.32-0.252-3.037-2.367c-0.671-1.983-0.226-3.279,0.946-3.673c1.281-0.427,2.289,0.204,3.02,2.36    C217.756,182.681,217.31,183.887,216.125,184.285"/>
		<path class="st1" d="M236.466,176.316c0.161,0.266,0.153,0.337-0.091,0.482l-1.378,0.818c-0.257,0.153-0.303,0.131-0.456-0.124    l-3.943-6.563l-2.233,1.327c-0.243,0.145-0.415,0.081-0.56-0.162l-0.539-0.897c-0.124-0.206-0.072-0.369,0.147-0.499l5.944-3.529    l0.622-0.369c0.22-0.13,0.363-0.084,0.458,0.073c0.008,0.013,0.014,0.024,0.03,0.048l0.478,1.018    c0.121,0.257-0.001,0.412-0.257,0.564l-2.149,1.274L236.466,176.316z"/>
		<path class="st1" d="M243.711,170.098l0.572-0.42c0.184-0.135,0.376-0.065,0.494,0.094l0.447,0.602    c0.102,0.137,0.103,0.33-0.057,0.446l-2.939,2.158c-0.172,0.127-0.379,0.086-0.472-0.039l-0.456-0.614    c-0.152-0.206-0.105-0.38,0.066-0.506l0.526-0.386l-4.139-5.57l-0.606,0.444c-0.183,0.135-0.376,0.065-0.494-0.093l-0.448-0.603    c-0.102-0.136-0.103-0.328,0.058-0.446l3.065-2.251c0.171-0.125,0.378-0.085,0.471,0.041l0.456,0.614    c0.152,0.204,0.106,0.379-0.067,0.505l-0.617,0.454L243.711,170.098z"/>
		<path class="st1" d="M247.916,156.008c-0.081-0.253-0.062-0.463,0.168-0.672l0.731-0.672c0.209-0.192,0.349-0.186,0.533-0.009    l6.498,6.309c0.01,0.011,0.019,0.021,0.029,0.031c0.183,0.197,0.176,0.378-0.012,0.55l-1.045,0.96    c-0.272,0.249-0.46,0.171-0.741-0.11l-3.423-3.458l-0.021,0.019l1.915,5.207c0.109,0.285-0.008,0.431-0.144,0.555l-0.387,0.355    c-0.198,0.181-0.342,0.256-0.64,0.145l-5.289-2.091l-0.021,0.019l3.342,3.724c0.27,0.291,0.163,0.446-0.056,0.648l-0.856,0.786    c-0.241,0.22-0.432,0.243-0.635,0.025c-0.01-0.011-0.02-0.021-0.029-0.032l-5.794-6.801c-0.22-0.259-0.183-0.448,0.016-0.629    l0.752-0.691c0.24-0.221,0.412-0.224,0.689-0.113l6.668,2.575l0.021-0.02L247.916,156.008z"/>
		<path class="st1" d="M259.003,150.986l-3.783-3.124c-0.22-0.181-0.176-0.366-0.012-0.562l0.899-1.075    c0.173-0.207,0.318-0.271,0.547-0.081l3.893,3.215c2.46,2.032,2.508,4.185,0.764,6.271c-1.871,2.239-3.94,2.239-6.258,0.324    l-3.903-3.224c-0.219-0.181-0.166-0.376-0.003-0.572l0.9-1.075c0.173-0.207,0.318-0.271,0.548-0.081l3.771,3.116    c1.717,1.417,2.7,1.237,3.544,0.227C260.709,153.388,260.697,152.385,259.003,150.986"/>
		<path class="st1" d="M262.623,137.133c-0.144-0.223-0.182-0.43-0.016-0.693l0.528-0.839c0.151-0.24,0.288-0.271,0.512-0.148    l7.939,4.387c0.012,0.008,0.025,0.015,0.036,0.022c0.229,0.142,0.27,0.318,0.134,0.533l-0.755,1.199    c-0.196,0.311-0.398,0.286-0.742,0.087l-4.217-2.439l-0.015,0.024l3.225,4.522c0.18,0.246,0.106,0.416,0.008,0.573l-0.279,0.443    c-0.143,0.227-0.262,0.337-0.579,0.306l-5.655-0.633l-0.015,0.024l4.21,2.718c0.337,0.21,0.275,0.388,0.117,0.639l-0.619,0.984    c-0.174,0.275-0.353,0.347-0.606,0.19c-0.012-0.008-0.024-0.015-0.036-0.024l-7.389-5.044c-0.282-0.192-0.296-0.383-0.152-0.611    l0.543-0.863c0.173-0.275,0.337-0.323,0.635-0.288l7.114,0.739l0.015-0.023L262.623,137.133z"/>
		<path class="st1" d="M227.231,174.368c-0.317-0.679-0.878-1.278-1.582-1.576c-0.993-0.414-2.144-0.194-3.64,0.496l-2.012,0.929    c-0.296,0.136-0.351,0.256-0.201,0.575l3.783,8.101c0.144,0.307,0.327,0.331,0.559,0.225l1.29-0.596    c0.297-0.137,0.327-0.307,0.225-0.524l-1.233-2.641c0.148-0.052,0.559-0.211,0.727-0.289    C227.134,178.153,228.196,176.432,227.231,174.368 M224.399,177.498c-0.103,0.048-0.529,0.244-0.703,0.309l-1.299-2.781    l0.631-0.292c0.967-0.447,1.726-0.298,2.182,0.675C225.641,176.334,225.366,177.052,224.399,177.498"/>
		<path class="st1" d="M110.005,105.986c-0.557-0.226-1.072-0.313-1.524-0.313c-0.662,0-1.204,0.177-1.542,0.325    c-0.049,0.023-0.081,0.037-0.113,0.054l-17.101,7.859c-1.167,0.513-1.948,1.349-2.264,2.422c-0.4,1.358-0.007,2.868,0.393,3.897    c0.393,1.012,0.877,1.785,1.016,1.998c0.215,0.378,0.669,0.524,1.043,0.36l7-3.098l0.192,0.262    c1.015,1.383,1.547,2.767,1.821,3.752l1.141-0.439c-0.289-0.999-0.807-2.318-1.741-3.681l-0.272-0.398l8.12-3.583    c0.391-0.17,0.585-0.623,0.434-1.011l-0.136-0.32c-0.674-1.522-0.915-3.116-0.673-4.483c0.206-1.172,0.766-2.065,1.535-2.448    l0.101-0.047c0.332-0.144,0.671-0.214,1.016-0.214c0.532,0,1.07,0.168,1.605,0.489    C110.036,106.911,110.019,106.45,110.005,105.986 M89.737,121.352l-0.178-0.325c-0.435-0.794-1.395-2.807-0.939-4.357    c0.219-0.743,0.743-1.286,1.602-1.664l14.625-6.723l-0.176,0.79c-0.022,0.103-0.043,0.206-0.062,0.31    c-0.253,1.433-0.05,3.113,0.572,4.73l0.136,0.354L89.737,121.352z"/>
		<path class="st1" d="M282.83,116.333c-0.316-1.073-1.096-1.91-2.263-2.422l-17.102-7.859c-0.032-0.016-0.064-0.031-0.112-0.054    c-0.339-0.148-0.88-0.325-1.542-0.325c-0.457,0-0.976,0.087-1.538,0.32c-0.014,0.464-0.031,0.926-0.053,1.384    c0.54-0.325,1.083-0.496,1.62-0.496c0.345,0,0.684,0.07,1.016,0.213l0.102,0.047c0.767,0.384,1.327,1.277,1.534,2.449    c0.242,1.367,0.002,2.961-0.673,4.482l-0.135,0.321c-0.15,0.388,0.044,0.841,0.434,1.011l8.12,3.583l-0.272,0.398    c-0.934,1.363-1.452,2.682-1.741,3.681l1.14,0.439c0.275-0.985,0.806-2.369,1.821-3.752l0.192-0.262l7,3.098    c0.375,0.164,0.828,0.017,1.044-0.36c0.138-0.213,0.623-0.985,1.015-1.998C282.837,119.201,283.231,117.69,282.83,116.333     M280.732,121.027l-0.177,0.325l-15.58-6.884l0.136-0.355c0.622-1.618,0.825-3.297,0.572-4.73c-0.019-0.105-0.04-0.208-0.062-0.31    l-0.175-0.79l14.624,6.723c0.858,0.377,1.382,0.921,1.602,1.663C282.127,118.22,281.166,120.233,280.732,121.027"/>
		<path class="st1" d="M232.644,1.941l-1.706,1.123c-5.985,3.942-13.714,6.112-21.761,6.112c-8.442,0-16.443-2.355-22.529-6.63    l-1.51-1.061l-1.509,1.061c-6.087,4.276-14.087,6.63-22.528,6.63c-8.048,0-15.776-2.17-21.762-6.111l-1.706-1.123l-27.868,25.446    l-2.088,1.908l2.049,1.952c3.311,3.153,11.917,12.891,11.969,19.984c0.066,9.077-2.608,16.575-5.992,26.067l-0.276,0.774    c-0.813,2.281-2.807,8.512-3.753,17.087c-0.16,1.45-0.282,2.904-0.363,4.317c-0.078,1.367-0.12,2.736-0.124,4.067    c-0.038,9.906,1.896,18.501,5.746,25.545c0.66,1.21,1.39,2.39,2.168,3.511c0.087,0.126,0.201,0.297,0.343,0.51l0.058,0.086    c13.58,20.42,33.585,33.131,56.33,35.792l0.209,0.025l9.097,9.116l9.102-9.116l0.209-0.025    c22.744-2.66,42.749-15.371,56.329-35.79l0.058-0.087c0.143-0.214,0.257-0.386,0.345-0.513c0.777-1.12,1.507-2.3,2.167-3.508    c3.85-7.046,5.783-15.64,5.746-25.545c-0.004-1.333-0.046-2.702-0.123-4.068c-0.082-1.418-0.204-2.871-0.364-4.317    c-0.947-8.575-2.94-14.807-3.753-17.088l-0.276-0.774c-3.385-9.493-6.058-16.99-5.992-26.067    c0.053-7.095,8.657-16.83,11.968-19.983l2.054-1.951L232.644,1.941z M245.953,51.212c-0.071,9.797,2.854,17.735,6.421,27.747    c1.341,3.764,2.865,9.678,3.616,16.49c0.151,1.36,0.271,2.755,0.351,4.178c0.074,1.29,0.117,2.601,0.121,3.927    c0.03,8.137-1.339,16.798-5.422,24.27c-0.611,1.118-1.282,2.209-2.018,3.267c-2.135,3.069-19.366,31.671-55.988,35.4l-0.129,0.129    v-0.004l-7.769,7.786l-7.764-7.782l-0.13-0.129c-36.621-3.729-53.851-32.33-55.987-35.4c-0.736-1.058-1.407-2.149-2.018-3.267    c-4.083-7.472-5.453-16.133-5.422-24.27c0.005-1.326,0.046-2.637,0.12-3.927c0.081-1.422,0.201-2.818,0.352-4.178    c0.752-6.812,2.273-12.726,3.615-16.49c3.568-10.013,6.493-17.95,6.422-27.747s-12.789-21.878-12.789-21.878l26.359-24.068    c6.186,4.073,14.309,6.544,23.205,6.544c9.306,0,17.756-2.694,24.037-7.108c6.283,4.413,14.734,7.108,24.039,7.108    c8.896,0,17.018-2.471,23.205-6.544l26.36,24.068C258.742,29.335,246.024,41.415,245.953,51.212"/>
		<path class="st1" d="M159.845,41.572c-0.758-0.176-1.8,0.055-2.791,0.694c-0.992,0.638-1.689,1.528-1.933,2.346    c0.759,0.176,1.801-0.056,2.791-0.692C158.903,43.282,159.604,42.391,159.845,41.572"/>
		<path class="st1" d="M155.764,27.309c0.096-0.856-0.196-1.994-0.847-3.041c-0.651-1.048-1.504-1.753-2.256-1.955    c-0.097,0.857,0.195,1.993,0.846,3.042C154.158,26.402,155.011,27.106,155.764,27.309"/>
		<path class="st1" d="M155.815,31.032c-0.121,0.764,0.091,1.798,0.63,2.773c0.539,0.973,1.274,1.65,1.94,1.872    c0.122-0.762-0.09-1.798-0.628-2.771C157.216,31.931,156.482,31.256,155.815,31.032"/>
		<path class="st1" d="M157.308,28.601c0.481-0.676,0.764-1.817,0.696-3.088c-0.066-1.274-0.465-2.369-1.015-2.978    c-0.482,0.677-0.762,1.817-0.695,3.09C156.36,26.895,156.759,27.992,157.308,28.601"/>
		<path class="st1" d="M158.77,34.581c0.727-0.296,1.504-1.103,2.043-2.227c0.541-1.123,0.715-2.29,0.533-3.129    c-0.729,0.296-1.504,1.104-2.045,2.227C158.762,32.576,158.588,33.741,158.77,34.581"/>
		<path class="st1" d="M155.007,29.693c0.801,0.719,1.696,1.085,2.391,1.047c-0.114-0.764-0.623-1.662-1.422-2.381    c-0.8-0.718-1.695-1.084-2.389-1.047C153.7,28.076,154.209,28.974,155.007,29.693"/>
		<path class="st1" d="M158.234,32.218c0.607-0.536,1.115-1.573,1.312-2.83c0.195-1.256,0.031-2.424-0.38-3.157    c-0.607,0.536-1.115,1.576-1.311,2.832C157.66,30.319,157.824,31.486,158.234,32.218"/>
		<path class="st1" d="M161.804,37.916c-0.758-0.175-1.801,0.057-2.791,0.694s-1.692,1.527-1.932,2.347    c0.758,0.175,1.8-0.056,2.79-0.694C160.862,39.626,161.561,38.735,161.804,37.916"/>
		<path class="st1" d="M160.302,36.892c0.732-0.98,1.113-2.086,1.086-2.947c-0.767,0.128-1.673,0.746-2.402,1.726    c-0.733,0.98-1.112,2.084-1.086,2.948C158.667,38.491,159.572,37.871,160.302,36.892"/>
		<path class="st1" d="M155.836,41.616c0.605-0.542,1.107-1.583,1.293-2.841c0.189-1.256,0.016-2.425-0.398-3.154    c-0.605,0.542-1.105,1.585-1.294,2.84C155.25,39.719,155.421,40.886,155.836,41.616"/>
		<path class="st1" d="M155.691,45.222c-1.127,0.226-2.057,0.799-2.536,1.478c0.663,0.452,1.711,0.626,2.838,0.402    c1.126-0.227,2.055-0.799,2.534-1.479C157.866,45.172,156.815,44.996,155.691,45.222"/>
		<path class="st1" d="M135.092,40.957c-0.242-0.82-0.942-1.709-1.933-2.347c-0.99-0.637-2.032-0.869-2.791-0.694    c0.242,0.82,0.943,1.709,1.934,2.347C133.293,40.901,134.334,41.132,135.092,40.957"/>
		<path class="st1" d="M137.052,44.612c-0.244-0.819-0.943-1.708-1.934-2.346c-0.991-0.638-2.032-0.869-2.789-0.694    c0.241,0.818,0.94,1.709,1.931,2.347C135.25,44.556,136.291,44.788,137.052,44.612"/>
		<path class="st1" d="M139.016,46.7c-0.478-0.679-1.407-1.252-2.535-1.478c-1.125-0.226-2.175-0.05-2.836,0.402    c0.476,0.679,1.406,1.252,2.532,1.479C137.306,47.327,138.356,47.152,139.016,46.7"/>
		<path class="st1" d="M154.68,43.895c0.522-1.132,0.679-2.304,0.484-3.139c-0.725,0.31-1.487,1.134-2.011,2.268    c-0.521,1.135-0.676,2.304-0.48,3.138C153.394,45.852,154.158,45.03,154.68,43.895"/>
		<path class="st1" d="M136.531,48.815c0.634,0.496,1.672,0.748,2.808,0.603c1.138-0.147,2.098-0.65,2.614-1.297    c-0.633-0.497-1.673-0.747-2.809-0.602C138.007,47.665,137.047,48.17,136.531,48.815"/>
		<path class="st1" d="M142.001,47.625c0.954,0.707,1.981,1.009,2.746,0.886c-0.194-0.834-0.845-1.771-1.797-2.477    c-0.955-0.703-1.981-1.006-2.748-0.883C140.398,45.985,141.047,46.923,142.001,47.625"/>
		<path class="st1" d="M137.009,40.755c-0.195,0.836-0.039,2.007,0.483,3.139c0.522,1.135,1.286,1.958,2.008,2.266    c0.195-0.834,0.04-2.004-0.484-3.138C138.495,41.889,137.732,41.065,137.009,40.755"/>
		<path class="st1" d="M138.665,25.354c0.652-1.048,0.943-2.185,0.848-3.041c-0.754,0.202-1.607,0.907-2.258,1.955    c-0.651,1.047-0.941,2.185-0.847,3.042C137.161,27.107,138.015,26.402,138.665,25.354"/>
		<path class="st1" d="M137.164,29.693c0.798-0.719,1.309-1.617,1.421-2.382c-0.694-0.037-1.59,0.329-2.387,1.047    c-0.8,0.72-1.312,1.617-1.422,2.381C135.47,30.778,136.363,30.412,137.164,29.693"/>
		<path class="st1" d="M152.832,49.418c1.138,0.145,2.174-0.107,2.809-0.603c-0.515-0.645-1.477-1.149-2.613-1.295    c-1.137-0.145-2.174,0.105-2.808,0.602C150.736,48.767,151.696,49.27,152.832,49.418"/>
		<path class="st1" d="M142.623,48.987c-1.116,0.279-2.022,0.897-2.473,1.599c0.677,0.418,1.733,0.545,2.851,0.264    c1.076-0.27,1.957-0.854,2.423-1.527c0.139,0.126,0.274,0.256,0.406,0.388c-1.245,0.723-2.325,1.683-3.263,2.914    c0.369,0.585,0.554,0.878,0.923,1.462c0.713-1.615,1.584-2.961,2.633-4.069c1.003,1.099,1.76,2.424,2.478,4.048    c0.369-0.584,0.553-0.877,0.922-1.462c-0.941-1.234-1.913-2.173-3.107-2.884c0.133-0.131,0.269-0.259,0.408-0.384    c0.469,0.666,1.345,1.245,2.415,1.513c1.116,0.281,2.173,0.155,2.85-0.264c-0.45-0.701-1.357-1.319-2.474-1.599    c-0.931-0.233-1.819-0.181-2.482,0.084c-0.634,0.254-1.014,0.479-1.014,0.479c-0.284-0.156-0.582-0.299-0.894-0.432    c-0.018-0.008-0.036-0.015-0.053-0.023c-0.007-0.004-0.015-0.007-0.023-0.01c0.001,0.001,0.002,0.002,0.003,0.003    C144.483,48.807,143.576,48.749,142.623,48.987"/>
		<path class="st1" d="M133.401,34.581c0.183-0.84,0.01-2.005-0.532-3.129c-0.54-1.124-1.316-1.931-2.044-2.227    c-0.182,0.839-0.008,2.006,0.532,3.129C131.898,33.478,132.673,34.285,133.401,34.581"/>
		<path class="st1" d="M150.171,47.625c0.954-0.702,1.603-1.64,1.799-2.473c-0.766-0.123-1.794,0.18-2.747,0.883    c-0.953,0.705-1.603,1.643-1.798,2.477C148.191,48.634,149.218,48.331,150.171,47.625"/>
		<path class="st1" d="M136.336,41.616c0.413-0.73,0.586-1.897,0.399-3.155c-0.187-1.256-0.69-2.299-1.293-2.84    c-0.414,0.729-0.587,1.898-0.4,3.154C135.23,40.033,135.733,41.075,136.336,41.616"/>
		<path class="st1" d="M130.784,33.945c-0.028,0.861,0.353,1.967,1.083,2.947c0.732,0.98,1.638,1.599,2.405,1.727    c0.028-0.864-0.353-1.968-1.086-2.948C132.455,34.691,131.55,34.073,130.784,33.945"/>
		<path class="st1" d="M135.729,33.805c0.537-0.975,0.751-2.009,0.628-2.773c-0.666,0.224-1.401,0.899-1.94,1.873    c-0.538,0.974-0.751,2.01-0.628,2.772C134.455,35.455,135.19,34.778,135.729,33.805"/>
		<path class="st1" d="M135.879,25.625c0.067-1.273-0.215-2.413-0.696-3.09c-0.55,0.61-0.95,1.704-1.016,2.978    c-0.068,1.271,0.216,2.412,0.697,3.088C135.414,27.992,135.813,26.895,135.879,25.625"/>
		<path class="st1" d="M133.937,32.218c0.41-0.732,0.575-1.899,0.379-3.156c-0.195-1.256-0.703-2.296-1.312-2.832    c-0.41,0.733-0.574,1.901-0.378,3.157C132.822,30.644,133.329,31.682,133.937,32.218"/>
		<path class="st1" d="M157.912,43.92c-0.99,0.636-2.032,0.868-2.791,0.692c0.243-0.819,0.941-1.708,1.933-2.346    c0.991-0.638,2.033-0.869,2.791-0.693C159.604,42.391,158.903,43.281,157.912,43.92"/>
		<path class="st1" d="M158.527,45.624c-0.479,0.679-1.408,1.252-2.534,1.479c-1.127,0.225-2.176,0.05-2.838-0.402    c0.479-0.679,1.409-1.252,2.536-1.478C156.815,44.996,157.866,45.172,158.527,45.624"/>
		<path class="st1" d="M158.384,35.677c-0.667-0.222-1.402-0.899-1.94-1.872c-0.538-0.975-0.75-2.009-0.629-2.773    c0.667,0.223,1.401,0.899,1.941,1.874C158.294,33.879,158.507,34.915,158.384,35.677"/>
		<path class="st1" d="M158.986,35.671c0.731-0.98,1.635-1.598,2.403-1.726c0.026,0.861-0.354,1.967-1.087,2.947    c-0.73,0.98-1.635,1.599-2.401,1.727C157.874,37.755,158.254,36.651,158.986,35.671"/>
		<path class="st1" d="M156.731,35.621c0.413,0.729,0.587,1.898,0.398,3.154c-0.186,1.257-0.688,2.299-1.293,2.841    c-0.415-0.73-0.586-1.897-0.399-3.155C155.626,37.205,156.126,36.162,156.731,35.621"/>
		<path class="st1" d="M157.081,40.957c0.241-0.82,0.942-1.709,1.932-2.347c0.99-0.637,2.033-0.869,2.791-0.694    c-0.242,0.82-0.942,1.709-1.933,2.347C158.881,40.901,157.839,41.132,157.081,40.957"/>
		<path class="st1" d="M161.347,29.225c0.182,0.839,0.008,2.006-0.533,3.129c-0.539,1.124-1.316,1.931-2.043,2.227    c-0.182-0.84-0.008-2.005,0.532-3.128C159.843,30.329,160.618,29.521,161.347,29.225"/>
		<path class="st1" d="M159.167,26.231c0.411,0.733,0.575,1.901,0.38,3.157c-0.197,1.256-0.705,2.294-1.312,2.83    c-0.411-0.732-0.574-1.899-0.378-3.156C158.051,27.807,158.56,26.767,159.167,26.231"/>
		<path class="st1" d="M156.989,22.535c0.55,0.61,0.95,1.704,1.015,2.978c0.068,1.271-0.214,2.411-0.696,3.088    c-0.549-0.61-0.949-1.706-1.014-2.977C156.227,24.351,156.507,23.212,156.989,22.535"/>
		<path class="st1" d="M157.398,30.74c-0.694,0.038-1.59-0.328-2.391-1.047c-0.798-0.718-1.308-1.617-1.42-2.381    c0.694-0.037,1.589,0.329,2.389,1.047C156.775,29.079,157.284,29.976,157.398,30.74"/>
		<path class="st1" d="M152.66,22.312c0.751,0.202,1.605,0.907,2.256,1.955c0.651,1.047,0.943,2.185,0.847,3.041    c-0.753-0.203-1.605-0.907-2.257-1.955C152.855,24.306,152.563,23.169,152.66,22.312"/>
		<path class="st1" d="M153.153,43.023c0.523-1.134,1.285-1.958,2.011-2.268c0.196,0.836,0.038,2.007-0.484,3.139    c-0.522,1.135-1.286,1.958-2.008,2.267C152.477,45.327,152.632,44.157,153.153,43.023"/>
		<path class="st1" d="M153.028,47.519c1.136,0.147,2.098,0.651,2.613,1.296c-0.635,0.497-1.671,0.748-2.809,0.603    c-1.136-0.147-2.096-0.65-2.612-1.297C150.853,47.623,151.891,47.374,153.028,47.519"/>
		<path class="st1" d="M149.222,46.034c0.954-0.703,1.982-1.006,2.747-0.883c-0.195,0.834-0.845,1.772-1.799,2.474    c-0.953,0.707-1.979,1.009-2.746,0.886C147.62,47.677,148.27,46.74,149.222,46.034"/>
		<path class="st1" d="M145.17,49.095c0.017,0.008,0.035,0.015,0.053,0.023c0.312,0.133,0.611,0.276,0.894,0.432    c0,0,0.379-0.225,1.013-0.478c0.664-0.266,1.551-0.318,2.482-0.085c1.117,0.28,2.024,0.897,2.474,1.599    c-0.676,0.419-1.733,0.545-2.85,0.264c-1.07-0.268-1.946-0.847-2.415-1.513c-0.138,0.125-0.274,0.253-0.407,0.384    c1.194,0.711,2.167,1.649,3.107,2.884c-0.369,0.585-0.553,0.878-0.922,1.462c-0.718-1.624-1.476-2.948-2.478-4.048    c-1.049,1.108-1.92,2.453-2.633,4.068c-0.369-0.584-0.554-0.877-0.923-1.462c0.938-1.23,2.018-2.191,3.263-2.913    c-0.132-0.132-0.267-0.262-0.406-0.388c-0.466,0.672-1.347,1.256-2.423,1.527c-1.117,0.281-2.173,0.155-2.851-0.264    c0.451-0.701,1.357-1.319,2.473-1.599c0.952-0.238,1.859-0.18,2.527,0.101c-0.001,0-0.002-0.001-0.003-0.002    C145.156,49.089,145.163,49.092,145.17,49.095"/>
		<path class="st1" d="M142.95,46.034c0.952,0.706,1.602,1.642,1.797,2.477c-0.766,0.122-1.792-0.179-2.746-0.886    c-0.954-0.702-1.603-1.64-1.799-2.474C140.97,45.028,141.996,45.331,142.95,46.034"/>
		<path class="st1" d="M141.953,48.121c-0.515,0.646-1.476,1.15-2.614,1.297c-1.137,0.145-2.174-0.107-2.808-0.603    c0.516-0.645,1.476-1.149,2.612-1.295C140.281,47.374,141.32,47.624,141.953,48.121"/>
		<path class="st1" d="M139.5,46.161c-0.722-0.309-1.486-1.132-2.008-2.267c-0.522-1.132-0.678-2.303-0.483-3.139    c0.723,0.31,1.486,1.133,2.008,2.268C139.54,44.157,139.696,45.327,139.5,46.161"/>
		<path class="st1" d="M137.255,24.267c0.651-1.047,1.504-1.753,2.258-1.955c0.096,0.857-0.195,1.993-0.848,3.042    c-0.65,1.048-1.504,1.753-2.257,1.955C136.314,26.453,136.604,25.315,137.255,24.267"/>
		<path class="st1" d="M136.198,28.359c0.797-0.718,1.692-1.084,2.387-1.047c-0.112,0.765-0.622,1.663-1.42,2.382    c-0.801,0.719-1.696,1.084-2.39,1.047C134.886,29.975,135.397,29.078,136.198,28.359"/>
		<path class="st1" d="M133.789,35.677c-0.122-0.762,0.09-1.798,0.628-2.771c0.539-0.975,1.274-1.65,1.94-1.874    c0.122,0.764-0.092,1.798-0.629,2.773C135.19,34.778,134.455,35.455,133.789,35.677"/>
		<path class="st1" d="M134.272,38.619c-0.767-0.128-1.673-0.747-2.405-1.727c-0.731-0.98-1.111-2.086-1.084-2.947    c0.766,0.128,1.671,0.746,2.403,1.726C133.919,36.651,134.3,37.755,134.272,38.619"/>
		<path class="st1" d="M135.442,35.621c0.602,0.542,1.106,1.585,1.293,2.84c0.187,1.258,0.015,2.425-0.399,3.155    c-0.602-0.542-1.106-1.584-1.294-2.841C134.855,37.519,135.028,36.35,135.442,35.621"/>
		<path class="st1" d="M134.167,25.513c0.066-1.275,0.465-2.368,1.015-2.978c0.482,0.677,0.764,1.816,0.697,3.09    c-0.066,1.271-0.465,2.367-1.016,2.977C134.383,27.925,134.099,26.784,134.167,25.513"/>
		<path class="st1" d="M133.005,26.231c0.608,0.536,1.116,1.576,1.312,2.831c0.196,1.256,0.031,2.424-0.379,3.156    c-0.608-0.536-1.115-1.573-1.311-2.83C132.431,28.132,132.595,26.964,133.005,26.231"/>
		<path class="st1" d="M130.826,29.225c0.727,0.297,1.503,1.104,2.043,2.228c0.541,1.123,0.715,2.289,0.532,3.128    c-0.728-0.296-1.503-1.103-2.044-2.227C130.818,31.231,130.645,30.064,130.826,29.225"/>
		<path class="st1" d="M130.368,37.916c0.759-0.175,1.801,0.057,2.791,0.694c0.991,0.637,1.691,1.527,1.933,2.347    c-0.757,0.175-1.799-0.056-2.789-0.694C131.311,39.626,130.61,38.735,130.368,37.916"/>
		<path class="st1" d="M132.329,41.572c0.757-0.176,1.798,0.055,2.789,0.694c0.991,0.638,1.691,1.528,1.935,2.346    c-0.761,0.176-1.801-0.056-2.793-0.692C133.269,43.282,132.569,42.391,132.329,41.572"/>
		<path class="st1" d="M133.646,45.624c0.66-0.451,1.711-0.627,2.836-0.401c1.126,0.226,2.056,0.799,2.534,1.478    c-0.66,0.452-1.711,0.627-2.837,0.402C135.052,46.875,134.122,46.303,133.646,45.624"/>
		<path class="st1" d="M174.022,156.039c-0.187-0.012-0.559-0.032-0.955-0.032c-0.291,0-0.621,0.01-1.007,0.032l-0.123,0.008    l0.019-0.121c0.143-0.928,0.213-1.899,0.213-2.97v-5.529c0-1.527-0.129-1.693-0.634-1.693c-0.143,0-0.35,0.033-0.614,0.094    l-0.865,0.196c-0.258,0.06-0.43,0.121-0.606,0.192l-0.053,0.02l-0.241-0.183l0.039-0.075c0.12-0.225,0.285-0.625,0.367-0.972    l0.016-0.068l0.071-0.007c0.447-0.048,0.742-0.08,1.261-0.194l1.827-0.392c0.334-0.066,0.703-0.167,1.022-0.259l0.055-0.015    l0.208,0.206l-0.008,0.049c-0.145,1.014-0.21,2.167-0.21,2.858v5.953c0,1.207,0.11,2.165,0.319,2.771l0.049,0.141L174.022,156.039    z"/>
		<path class="st1" d="M186.931,156.151l-0.008,0.091l-0.09,0.001c-0.014,0-1.378,0.016-2.179,0.08l-0.067,0.005l-0.152-0.304    l5.973-10.156h-3.739c-0.583,0-1.333,0.06-1.964,0.519l-0.044,0.033l-0.305-0.121l0.033-0.09c0.198-0.545,0.36-1.458,0.42-1.825    l0.015-0.089l0.091,0.006c0.436,0.031,0.894,0.031,1.378,0.031h4.288c0.558,0,0.812,0,1.313-0.047l0.099-0.01l0.01,0.099    c0.015,0.163,0.129,0.915,0.19,1.085l0.019,0.055l-0.039,0.044c-0.916,1.034-2.016,2.946-2.971,4.679    C187.665,153.04,187.07,154.588,186.931,156.151"/>
		<path class="st1" d="M180.819,149.49c1.109-0.626,2.147-1.388,2.147-2.903c0-1.635-1.36-2.823-3.233-2.823    c-1.93,0-3.442,1.383-3.442,3.149c0,1.458,0.984,2.289,1.992,2.901c-1.596,0.937-2.579,1.852-2.579,3.41    c0,1.845,1.484,3.133,3.607,3.133c2.344,0,4.046-1.483,4.046-3.525C183.358,151.173,182.158,150.237,180.819,149.49     M177.809,146.577c0-1.1,0.836-1.921,1.953-1.921c1.134,0,1.973,0.836,1.973,1.97c0,1.266-0.919,1.908-1.857,2.433    C178.828,148.452,177.809,147.795,177.809,146.577 M179.469,155.5c-1.365,0-2.351-0.984-2.351-2.316    c0-1.431,1.101-2.302,2.252-2.86c1.561,0.855,2.546,1.561,2.546,2.875C181.916,154.497,180.848,155.5,179.469,155.5"/>
		<path class="st1" d="M197.247,149.732c1.107-0.624,2.145-1.386,2.145-2.901c0-1.637-1.358-2.824-3.231-2.824    c-1.93,0-3.442,1.384-3.442,3.151c0,1.46,0.981,2.29,1.989,2.9c-1.594,0.935-2.575,1.85-2.575,3.411    c0,1.845,1.482,3.133,3.604,3.133c2.346,0,4.047-1.482,4.047-3.524C199.783,151.416,198.585,150.48,197.247,149.732     M194.358,146.824c0-1.102,0.838-1.923,1.955-1.923c1.133,0,1.971,0.837,1.971,1.972c0,1.264-0.921,1.906-1.856,2.431    C195.376,148.696,194.358,148.039,194.358,146.824 M196.017,155.745c-1.364,0-2.349-0.987-2.349-2.317    c0-1.429,1.101-2.301,2.25-2.859c1.562,0.854,2.548,1.559,2.548,2.875C198.465,154.742,197.396,155.745,196.017,155.745"/>
		<path class="st1" d="M149.276,131.483c-0.214,0.769-0.891,3.216-0.946,3.416c-3.557-0.118-5.919-0.147-8.009-0.147    c-2.631,0-4.344,0-5.769,0.031c0.253-1.676,0.442-3.608,0.442-6.012v-9.933c0-1.613-0.062-4.685-0.633-6.107    c1.079,0.063,1.806,0.063,2.599,0.063h5.96c2.124,0,2.979-0.063,5.294-0.096c-0.421,1.518-0.865,3.121-1.034,3.732    c-0.169,0.612-0.49,0.154-0.55,0.066c-0.984-1.423-2.885-1.582-4.691-1.582c-0.572,0-1.237,0.032-2.03,0.065    c-0.031,0.536-0.126,2.056-0.126,3.417v3.227h2.631c1.93,0,3.872-0.143,4.628-0.254c0.317-0.048,0.252,0.222,0.252,0.222    c-0.235,0.851-0.555,2.003-0.76,2.744c-2.03-0.189-3.139-0.244-4.533-0.244h-2.251v4.493c0,2.911,0.317,3.861,3.77,3.861    c1.969,0,3.015,0.011,5.134-1.603C149.034,130.549,149.489,130.716,149.276,131.483"/>
		<path class="st1" d="M158.802,131.516c-0.476,1.141-0.7,1.966-0.985,3.235c-0.318-0.03-1.05-0.03-1.781-0.03    c-0.634,0-1.429,0.03-2.034,0.063c-0.222-1.397-0.476-2.285-0.954-3.679l-2.096-6.408c-0.635-1.904-1.4-3.997-2.797-5.616    c2.098,0.063,3.749-0.03,5.752-0.189c0.128,1.554,0.476,3.045,0.921,4.533l1.178,4.031c0.286,0.949,0.89,3.075,0.89,3.075    c0.221-0.696,0.477-1.364,0.697-1.966l1.844-4.758c0.316-0.824,0.731-2.093,0.857-3.393c0-0.444,0.032-0.858,0-1.397    c0.446,0.033,1.272,0.033,1.939,0.033c0.636,0,1.669-0.08,2.154-0.144c0.435-0.054,0.373,0.213,0.229,0.396    c-1.093,1.387-1.97,3.268-2.796,5.203L158.802,131.516z"/>
		<path class="st1" d="M184.294,134.778c-0.514-0.032-1.543-0.064-2.538-0.064c-0.994,0-1.992,0.032-2.601,0.064    c0.289-1.862,0.386-3.4,0.386-5.708v-3.848c0-1.539-0.129-4.296-0.676-5.996c1.222,0,3.118-0.064,4.4-0.128l-0.062,3.655    l1.156-1.507c1.445-1.894,2.441-2.502,3.95-2.502c0.546,0,0.803,0.046,1.38,0.303c-0.453,1.628-0.926,3.34-1.202,4.335    c-0.059,0.213-0.257,0.505-0.546,0.181c-0.614-0.683-0.723-0.938-1.463-0.938c-0.898,0-1.637,0.48-2.184,1.379    c-0.45,0.736-0.642,1.347-0.642,2.885v2.6C183.652,132.245,183.844,133.399,184.294,134.778"/>
		<path class="st1" d="M202.043,119.348c-0.125,0.449-0.489,1.771-0.64,2.316c-1.249-0.145-2.01-0.154-2.85-0.154h-1.422    c-0.067,1.064-0.098,2.356-0.098,3.26v3.646c0,2.453,0.257,4.26,2.392,4.26c0.68,0,1.227-0.155,2.069-0.582    c0.135-0.07,0.465-0.052,0.348,0.375c-0.198,0.708-0.378,1.36-0.601,2.171c-1.919,0.507-2.72,0.649-3.752,0.649    c-2.752,0-4.53-1.196-4.53-5.132v-4.905c0-1.581,0-2.71-0.063-3.775c-0.842,0-1.742,0.102-2.181,0.179    c-0.097,0.016-0.309-0.024-0.214-0.37c0.027-0.098,0.428-1.546,0.572-2.064c0.408,0.04,1.175,0.059,1.952,0.059    c0-1.257-0.067-1.935-0.13-2.905c1.13-0.322,3.181-1.252,4.066-1.811c0.327-0.206,0.494,0.09,0.466,0.437    c-0.029,0.374-0.251,1.439-0.297,4.278h2.231c0.774,0,1.644-0.031,2.456-0.226C201.934,119.028,202.114,119.092,202.043,119.348"/>
		<path class="st1" d="M233.333,134.719c-1.039,0-2.078,0.033-2.63,0.064c0.292-1.751,0.39-3.792,0.39-6.126v-2.818    c0-1.881-0.131-4.052-2.79-4.052c-0.945,0-1.886,0.389-2.599,1.068c-0.812,0.811-1.039,1.493-1.039,3.501v2.301    c0,2.95,0.194,4.733,0.648,6.126c-0.484-0.031-1.557-0.064-2.564-0.064c-1.071,0-2.077,0.033-2.63,0.064    c0.292-1.751,0.39-3.792,0.39-6.126v-3.953c0-1.556-0.13-3.922-0.682-5.64c1.429,0,3.41,0,4.773-0.131l-0.097,2.789l1.298-1.102    c1.591-1.33,2.89-1.881,4.513-1.881c3.702,0,4.967,2.075,4.967,5.737v4.181c0,2.95,0.196,4.733,0.651,6.126    C235.412,134.752,234.338,134.719,233.333,134.719"/>
		<path class="st1" d="M177.033,126.597c0.547,0,0.547-1.359,0.547-1.676c0-3.797-2.439-6.138-6.34-6.138    c-4.531,0-7.668,3.416-7.668,8.352c0,4.873,3.105,8.195,7.987,8.195c1.68,0,3.501-0.469,4.957-0.943    c0.259-0.937,0.339-1.218,0.645-2.324c0.142-0.513-0.145-0.676-0.406-0.497c-1.125,0.781-1.933,1.043-3.296,1.043    c-3.39,0-5.418-2.153-5.485-5.917c1.047-0.064,3.361-0.096,5.008-0.096h4.051V126.597z M167.943,124.731    c0.159-2.595,1.015-4.115,3.043-4.115c1.427,0,2.505,1.077,2.505,2.564c0,1.011-0.539,1.423-1.903,1.455L167.943,124.731z"/>
		<path class="st1" d="M211.054,118.743c-5.661,0-8.684,3.621-8.684,8.607c0,5.017,2.927,7.94,7.923,7.94    c5.249,0,8.619-3.4,8.619-8.735C218.913,121.602,216.082,118.743,211.054,118.743 M210.641,133.511    c-2.417,0-3.752-2.35-3.752-6.795c0-3.78,1.018-6.163,3.657-6.163c2.482,0,3.851,2.383,3.851,6.798    C214.398,131.414,213.091,133.511,210.641,133.511"/>
		<path class="st1" d="M202.698,52.655L186.769,19.15c0.582-1.244-0.572-2.844-1.806-2.844c-1.233,0-2.209,1.61-1.623,2.869    l-15.812,33.66c-3.151,1.692-3.838,3.839-3.189,5.266c0,0,0.373,1.009,1.778,1.428c0.014,2.184,0.038,23.025,0.059,27.032    c0.001,0.056,0.017,0.181-0.026,0.175c-0.642-0.099-1.366,0.325-1.366,1.429c0,1.686,0.007,2.677,0.01,4.313    c0,0.399,0.009,1.568,0.009,1.693c0,1.337,1.373,1.759,1.373,1.759s30.187,10.786,31.182,11.165    c1.436,0.549,2.736,1.001,3.974,1.49c0.413,0.163,0.435,0.4,0.467,1.145v1.53c0,0,0.768,0.035,1.165,0.035    c2.917,0,2.554-1.484,2.64-5.936c0.09-4.676,0.099-6.094-1.24-6.393c-0.105-12.293,0.162-33.836,0.103-39.906    c0.986-0.381,1.848-1.15,1.978-2.333C206.57,55.635,205.388,53.973,202.698,52.655 M185.189,22.864    c0.533,1.139,1.127,2.406,1.754,3.75c-0.553,0.035-1.642,0.121-2.336,0.281c-0.408,0.09-0.482,0.238-0.482,0.379    c0,0.128,0.163,0.332,0.587,0.341c0.873,0.018,2.114,0.077,2.75,0.112c0.192,0.4,0.376,0.807,0.568,1.216    c-0.457,0.136-1.111,0.335-1.294,0.407c-0.287,0.116-0.587,0.221-0.564,0.436c0.019,0.19,0.331,0.215,0.582,0.249    c0.544,0.068,1.359,0.121,1.838,0.108c0.317,0.68,0.548,1.174,0.873,1.871c0.201,0.433-0.405,0.519-0.921,0.553    c-0.607,0.044-2.163,0.04-2.904,0.137c-0.291,0.035-0.402,0.193-0.402,0.359c0,0.157,0.219,0.292,0.495,0.311    c1.062,0.058,2.368,0.166,3.063,0.301c0.576,0.111,1.221,0.256,1.637,0.412c0.204,0.428,0.395,0.855,0.595,1.281    c0.113,0.243-0.217,0.364-0.46,0.385c-0.398,0.033-2.172-0.078-3.119,0.014c-0.417,0.044-0.507,0.145-0.507,0.356    c0,0.152,0.079,0.247,0.485,0.315c0.754,0.123,2.275,0.184,2.755,0.264c0.507,0.08,1.172,0.256,1.7,0.486    c0.325,0.701,0.531,1.14,0.848,1.828c0.131,0.282-0.05,0.378-0.226,0.39c-0.279,0.022-3.488,0.061-3.762,0.077    c-0.328,0.024-0.694,0.117-0.747,0.382c-0.041,0.207,0.238,0.505,0.983,0.553c0.744,0.047,3.548,0.21,4.996,1.25    c0.393,0.843,0.774,1.662,1.139,2.439c-1.096-0.101-4.904-0.424-6.644-0.374c-1.497,0.042-2.116,0-2.173,0.305    c-0.054,0.304,0.258,0.44,1.203,0.535c0.9,0.089,5.858,0.384,8.486,1.406c0.514,1.098,0.973,2.083,1.366,2.917    c-1.381-0.276-4.586-0.754-6.529-0.8c-0.749-0.018-1.042,0.141-1.042,0.455c0,0.317,0.675,0.357,1.135,0.403    c2.429,0.241,5.856,1.074,7.2,1.585c0.141,0.303,0.253,0.54,0.343,0.732c-4.411-0.92-10.7-1.365-13.482-1.365    c-2.751,0-8.672,0.393-13.099,1.448C173.138,48.673,180.952,31.928,185.189,22.864 M173.387,96.576c0,0.132-0.108,0.2-0.243,0.153    c-1.37-0.48-2.055-0.718-3.422-1.187c-0.135-0.047-0.244-0.191-0.244-0.323v-5.703c0-0.133,0.109-0.199,0.244-0.148    c1.368,0.515,2.052,0.77,3.423,1.275c0.135,0.05,0.244,0.195,0.244,0.325C173.388,93.189,173.388,94.318,173.387,96.576     M179.108,98.601c0,0.131-0.111,0.199-0.246,0.151c-1.368-0.487-2.054-0.731-3.423-1.215c-0.135-0.048-0.244-0.192-0.244-0.324    c0.001-2.251,0.001-3.38,0.003-5.585c0-0.129,0.109-0.193,0.245-0.145c1.371,0.496,2.057,0.741,3.429,1.221    c0.135,0.048,0.244,0.189,0.244,0.318C179.112,95.221,179.111,96.356,179.108,98.601 M184.825,100.63    c-0.001,0.13-0.111,0.198-0.245,0.15c-1.368-0.485-2.053-0.726-3.421-1.212c-0.135-0.049-0.245-0.194-0.244-0.325    c0.004-2.247,0.006-3.388,0.011-5.594c0-0.129,0.111-0.195,0.246-0.15c1.37,0.471,2.056,0.699,3.424,1.151    c0.135,0.045,0.245,0.188,0.245,0.319C184.834,97.213,184.831,98.376,184.825,100.63 M190.534,102.633    c-0.001,0.132-0.11,0.2-0.245,0.153c-1.367-0.476-2.049-0.716-3.415-1.197c-0.135-0.048-0.245-0.192-0.244-0.324    c0.007-2.258,0.011-3.434,0.017-5.704c0.001-0.133,0.111-0.204,0.246-0.16c1.368,0.441,2.051,0.656,3.416,1.081    c0.136,0.042,0.245,0.187,0.244,0.324C190.545,99.153,190.542,100.361,190.534,102.633 M196.236,104.612    c0,0.133-0.11,0.203-0.244,0.155c-1.365-0.471-2.047-0.709-3.413-1.183c-0.135-0.047-0.243-0.192-0.243-0.325    c0.009-2.278,0.012-3.501,0.02-5.892c0-0.139,0.11-0.218,0.244-0.177c1.364,0.417,2.046,0.622,3.409,1.031    c0.135,0.04,0.243,0.191,0.243,0.338C196.247,101.057,196.243,102.322,196.236,104.612 M179.241,91.131    c-6.748-2.348-9.801-3.579-9.87-5.541c-0.042-1.215-0.206-6.262-0.081-7.545l-0.126-18.819c-0.006-0.558,0.906-0.886,1.734-1.089    c0.796-0.196,5.768-1.298,14.08-1.298c8.317,0,14.129,1,15.625,1.602c0.328,0.132,0.725,0.287,0.962,0.492l0.02,1.621    c-1.414-0.196-6.782-0.935-9.076-1.089c-1.059-0.073-2.437-0.122-3.783-0.155c-0.005-0.143-0.059-0.281-0.155-0.388    c-0.109-0.121-0.263-0.194-0.427-0.201c-2.934-0.124-3.967-0.125-6.952,0c-0.164,0.007-0.317,0.079-0.427,0.201    c-0.109,0.121-0.167,0.281-0.158,0.444l0.391,7.179c-0.12,0.009-0.225,0.015-0.317,0.021c-1.462,0.12-7.32,0.944-7.713,1.045    c-0.535,0.139-0.668,0.289-0.618,0.486c0.078,0.317,0.498,0.209,0.926,0.16c2.911-0.331,5.532-0.509,7.782-0.597l0.062,1.144    c0.019,0.326,0.287,0.578,0.61,0.578h0.025c2.484-0.104,3.338-0.104,5.822,0c0.328,0.012,0.617-0.243,0.635-0.578l0.062-1.136    c0.935,0.047,1.438,0.095,1.438,0.095c4.18,0.366,9.639,1.163,11.994,2.587l0.018,1.693c-1.374-0.296-4.892-1.028-6.188-1.127    c-1.619-0.123-2.389-0.04-2.659,0c-0.271,0.037-0.499,0.197-0.464,0.404c0.038,0.2,0.268,0.324,0.616,0.359    c0.334,0.038,5.531,0.231,8.718,2.404l0.02,1.716c-1.835-0.369-7.913-1.537-12.13-1.741c-5.52-0.262-12.389,0.402-12.927,0.486    c-0.538,0.076-0.808,0.236-0.771,0.519c0.039,0.286,0.131,0.421,0.888,0.366c0.544-0.04,10.571-0.403,15.819,0.36    c4.28,0.624,7.228,1.334,9.148,2.253l0.025,2.159c-1.702-0.349-5.427-1.071-7.321-1.231c-3.935-0.331-6.441-0.271-6.867-0.271    c-0.39,0-0.552,0.179-0.534,0.422c0.018,0.298,0.299,0.296,0.568,0.305c0.517,0.017,3.425,0.097,6.639,0.596    c2.102,0.323,5.369,0.837,7.538,1.959l0.026,2.187c-1.13-0.13-3.352-0.376-4.289-0.406c-1.271-0.037-2.332-0.008-2.737,0.081    c-0.264,0.06-0.405,0.238-0.369,0.398c0.043,0.162,0.181,0.29,0.446,0.29c0.271,0,2.163,0.12,3.591,0.359    c1.126,0.192,2.469,0.588,3.379,1.04c0,0,0.007,2.139,0.01,2.85c0,0.081-2.426-0.759-4.827-0.912    c-2.173-0.139-4.243-0.107-5.878,0.027c-0.15,0.013-0.607,0.092-0.596,0.489c0.011,0.432,0.506,0.356,0.743,0.365    c1.239,0.046,2.261-0.002,4.438,0.213c3.167,0.315,6.15,1.33,6.15,1.395c0.004,0.873,0.005,1.66,0.005,2.703    c0,0.039-1.362-0.388-3.484-0.67c-0.875-0.116-2.393-0.279-2.969-0.227c-0.389,0.034-0.754,0.103-0.77,0.456    c-0.021,0.506,0.872,0.516,1.187,0.555c0.336,0.042,1.271,0.103,2.907,0.373c1.333,0.219,3.129,0.729,3.129,0.773    c0,2.246-0.005,4.06-0.005,4.06C195.204,96.514,186.305,93.753,179.241,91.131 M193.841,63.827c0.288,0,5.517,0.142,7.808,2.059    l0.028,2.178c-1.463-0.354-4.86-1.108-8.838-1.498c-1.057-0.106-2.11-0.169-3.139-0.213c0,0-0.53-0.016-1.349-0.028l0.333-6.089    c1.548,0.111,3.168,0.26,4.58,0.447c2.271,0.299,6.499,1.058,8.346,1.822l0.02,1.568c-0.908-0.21-2.854-0.63-4.202-0.812    c-1.815-0.24-3.211-0.24-3.52-0.197c-0.312,0.037-0.689,0.061-0.683,0.401C193.229,63.748,193.528,63.827,193.841,63.827     M187.435,60.283l-0.417,7.853c0,0-2.234-0.039-4.011,0l-0.455-7.815C182.552,60.321,185.58,60.17,187.435,60.283     M201.943,106.594c0,0.134-0.111,0.203-0.244,0.155c-1.368-0.479-2.05-0.715-3.416-1.188c-0.134-0.047-0.242-0.191-0.242-0.326    c0.005-2.293,0.007-3.578,0.013-6.133c0-0.149,0.109-0.237,0.243-0.197c1.362,0.405,2.042,0.606,3.403,1.013    c0.134,0.039,0.243,0.2,0.243,0.357L201.943,106.594L201.943,106.594z M202.965,57.106c-0.323,0.563-1.038,0.341-1.787,0    c-0.693-0.315-6.484-2.411-16.199-2.411c-9.713,0-15.013,1.898-15.719,2.069c-0.7,0.173-1.674,0.732-2.214-0.283    c-0.356-0.664,0.108-1.298,1.188-1.747c1.085-0.455,8.936-2.166,16.745-2.243c7.816-0.077,15.278,1.619,17.388,2.975    C202.906,55.805,203.291,56.537,202.965,57.106"/>
		<path class="st1" d="M210.421,40.263c0.991,0.638,2.032,0.869,2.79,0.694c-0.241-0.82-0.941-1.709-1.933-2.346    c-0.989-0.637-2.032-0.869-2.791-0.694C208.731,38.736,209.43,39.625,210.421,40.263"/>
		<path class="st1" d="M215.129,40.755c-0.197,0.836-0.039,2.007,0.483,3.139c0.523,1.135,1.285,1.958,2.008,2.266    c0.195-0.834,0.04-2.004-0.48-3.138C216.615,41.889,215.853,41.065,215.129,40.755"/>
		<path class="st1" d="M211.521,34.581c0.183-0.84,0.01-2.005-0.531-3.129c-0.541-1.124-1.316-1.931-2.044-2.227    c-0.183,0.839-0.008,2.006,0.532,3.129C210.017,33.478,210.794,34.285,211.521,34.581"/>
		<path class="st1" d="M216.786,25.354c0.65-1.048,0.943-2.185,0.847-3.041c-0.753,0.202-1.606,0.907-2.257,1.955    c-0.652,1.047-0.943,2.185-0.847,3.042C215.281,27.107,216.135,26.402,216.786,25.354"/>
		<path class="st1" d="M215.284,29.693c0.799-0.719,1.309-1.617,1.421-2.382c-0.693-0.037-1.591,0.329-2.389,1.047    c-0.798,0.72-1.308,1.617-1.422,2.381C213.589,30.778,214.483,30.412,215.284,29.693"/>
		<path class="st1" d="M212.057,32.218c0.41-0.732,0.574-1.899,0.38-3.156c-0.196-1.256-0.705-2.296-1.311-2.832    c-0.41,0.733-0.575,1.901-0.38,3.157C210.941,30.644,211.451,31.682,212.057,32.218"/>
		<path class="st1" d="M213.999,25.625c0.067-1.273-0.215-2.413-0.696-3.09c-0.551,0.61-0.949,1.704-1.016,2.978    c-0.067,1.271,0.215,2.412,0.696,3.088C213.533,27.992,213.932,26.895,213.999,25.625"/>
		<path class="st1" d="M233.129,29.693c0.799,0.719,1.693,1.085,2.388,1.047c-0.111-0.764-0.622-1.662-1.421-2.381    c-0.797-0.718-1.694-1.084-2.388-1.047C231.82,28.076,232.329,28.974,233.129,29.693"/>
		<path class="st1" d="M230.952,49.418c1.136,0.145,2.174-0.107,2.808-0.603c-0.516-0.645-1.476-1.149-2.612-1.295    c-1.136-0.145-2.177,0.105-2.809,0.602C228.854,48.767,229.816,49.27,230.952,49.418"/>
		<path class="st1" d="M233.884,27.309c0.094-0.856-0.196-1.994-0.847-3.041c-0.652-1.048-1.504-1.753-2.258-1.955    c-0.096,0.857,0.195,1.993,0.847,3.042C232.277,26.402,233.131,27.106,233.884,27.309"/>
		<path class="st1" d="M232.8,43.895c0.522-1.132,0.677-2.304,0.483-3.139c-0.723,0.31-1.486,1.134-2.008,2.268    c-0.524,1.135-0.679,2.304-0.482,3.138C231.515,45.852,232.278,45.03,232.8,43.895"/>
		<path class="st1" d="M235.429,28.601c0.48-0.676,0.764-1.817,0.697-3.088c-0.067-1.274-0.467-2.369-1.015-2.978    c-0.481,0.677-0.765,1.817-0.696,3.09C234.479,26.895,234.878,27.992,235.429,28.601"/>
		<path class="st1" d="M236.354,32.218c0.608-0.536,1.116-1.573,1.311-2.83c0.196-1.256,0.033-2.424-0.378-3.157    c-0.608,0.536-1.117,1.576-1.311,2.832C235.779,30.319,235.945,31.486,236.354,32.218"/>
		<path class="st1" d="M236.503,35.677c0.122-0.762-0.089-1.798-0.628-2.771c-0.538-0.975-1.274-1.65-1.94-1.874    c-0.122,0.764,0.091,1.798,0.628,2.773C235.102,34.778,235.836,35.455,236.503,35.677"/>
		<path class="st1" d="M236.89,34.581c0.728-0.296,1.504-1.103,2.044-2.227c0.54-1.123,0.713-2.29,0.533-3.129    c-0.727,0.296-1.503,1.104-2.045,2.227C236.881,32.576,236.708,33.741,236.89,34.581"/>
		<path class="st1" d="M233.557,38.461c-0.188,1.258-0.015,2.426,0.398,3.155c0.603-0.541,1.106-1.583,1.295-2.841    c0.187-1.256,0.014-2.425-0.398-3.154C234.247,36.162,233.745,37.205,233.557,38.461"/>
		<path class="st1" d="M208.904,33.945c-0.027,0.861,0.353,1.967,1.086,2.947c0.73,0.98,1.635,1.599,2.403,1.727    c0.027-0.864-0.354-1.968-1.086-2.948C210.576,34.691,209.67,34.073,208.904,33.945"/>
		<path class="st1" d="M214.299,47.102c1.127,0.225,2.177,0.05,2.837-0.402c-0.477-0.679-1.409-1.252-2.536-1.478    c-1.124-0.226-2.174-0.051-2.835,0.401C212.244,46.303,213.174,46.875,214.299,47.102"/>
		<path class="st1" d="M228.291,47.625c0.954-0.702,1.603-1.64,1.799-2.473c-0.767-0.123-1.793,0.18-2.747,0.883    c-0.952,0.705-1.603,1.643-1.798,2.477C226.311,48.634,227.338,48.331,228.291,47.625"/>
		<path class="st1" d="M210.447,41.572c0.242,0.819,0.942,1.709,1.933,2.347c0.99,0.636,2.031,0.868,2.792,0.692    c-0.244-0.818-0.942-1.708-1.935-2.346C212.247,41.628,211.206,41.397,210.447,41.572"/>
		<path class="st1" d="M213.849,33.805c0.537-0.975,0.749-2.009,0.628-2.773c-0.666,0.224-1.4,0.899-1.94,1.873    c-0.538,0.974-0.752,2.01-0.63,2.772C212.575,35.455,213.31,34.778,213.849,33.805"/>
		<path class="st1" d="M214.456,41.616c0.415-0.73,0.586-1.897,0.398-3.155c-0.188-1.256-0.688-2.299-1.293-2.84    c-0.415,0.729-0.587,1.898-0.399,3.154C213.351,40.033,213.852,41.075,214.456,41.616"/>
		<path class="st1" d="M214.651,48.815c0.634,0.496,1.672,0.748,2.809,0.603c1.137-0.147,2.097-0.65,2.612-1.297    c-0.633-0.497-1.671-0.747-2.807-0.602C216.127,47.665,215.167,48.17,214.651,48.815"/>
		<path class="st1" d="M220.679,48.987c-1.118,0.279-2.023,0.897-2.474,1.599c0.676,0.418,1.732,0.545,2.85,0.264    c1.069-0.268,1.945-0.847,2.414-1.513c0.138,0.125,0.274,0.252,0.407,0.384c-1.194,0.711-2.166,1.649-3.107,2.884    c0.37,0.585,0.554,0.878,0.923,1.462c0.717-1.624,1.476-2.949,2.478-4.048c1.049,1.108,1.919,2.454,2.632,4.069    c0.369-0.584,0.554-0.878,0.923-1.462c-0.937-1.23-2.018-2.191-3.264-2.914c0.132-0.132,0.267-0.262,0.407-0.388    c0.465,0.672,1.346,1.256,2.423,1.527c1.117,0.281,2.174,0.155,2.85-0.264c-0.45-0.701-1.356-1.319-2.473-1.599    c-0.952-0.238-1.86-0.18-2.527,0.101c0.001,0,0.002-0.002,0.003-0.003c-0.008,0.004-0.015,0.007-0.023,0.01    c-0.018,0.007-0.036,0.015-0.053,0.023c-0.313,0.133-0.611,0.276-0.896,0.432c0,0-0.379-0.225-1.012-0.479    C222.497,48.806,221.611,48.754,220.679,48.987"/>
		<path class="st1" d="M220.121,47.625c0.954,0.707,1.981,1.009,2.746,0.886c-0.194-0.834-0.845-1.771-1.797-2.477    c-0.954-0.703-1.983-1.006-2.748-0.883C218.518,45.985,219.167,46.923,220.121,47.625"/>
		<path class="st1" d="M238.424,36.892c0.731-0.98,1.112-2.086,1.085-2.947c-0.766,0.128-1.673,0.746-2.404,1.726    c-0.733,0.98-1.112,2.084-1.085,2.948C236.787,38.491,237.692,37.871,238.424,36.892"/>
		<path class="st1" d="M235.174,42.266c-0.991,0.637-1.691,1.527-1.933,2.346c0.759,0.176,1.799-0.056,2.791-0.693    c0.992-0.638,1.69-1.529,1.932-2.347C237.206,41.397,236.165,41.628,235.174,42.266"/>
		<path class="st1" d="M237.134,38.61c-0.991,0.637-1.691,1.527-1.934,2.347c0.759,0.176,1.8-0.056,2.791-0.694    c0.99-0.637,1.69-1.527,1.933-2.346C239.166,37.741,238.123,37.973,237.134,38.61"/>
		<path class="st1" d="M233.81,45.222c-1.125,0.226-2.055,0.799-2.534,1.478c0.661,0.452,1.71,0.626,2.837,0.402    c1.127-0.227,2.056-0.799,2.534-1.479C235.985,45.172,234.936,44.996,233.81,45.222"/>
		<path class="st1" d="M239.467,29.225c0.181,0.839,0.008,2.006-0.533,3.129c-0.54,1.124-1.314,1.931-2.043,2.227    c-0.182-0.84-0.01-2.005,0.531-3.128C237.963,30.329,238.739,29.521,239.467,29.225"/>
		<path class="st1" d="M234.564,33.805c-0.538-0.975-0.751-2.009-0.628-2.773c0.665,0.224,1.401,0.899,1.939,1.873    c0.539,0.974,0.751,2.01,0.629,2.772C235.836,35.455,235.102,34.778,234.564,33.805"/>
		<path class="st1" d="M235.25,38.775c-0.188,1.257-0.691,2.299-1.294,2.841c-0.413-0.73-0.586-1.897-0.398-3.156    c0.189-1.255,0.69-2.298,1.294-2.84C235.263,36.35,235.437,37.519,235.25,38.775"/>
		<path class="st1" d="M237.105,35.671c0.731-0.98,1.638-1.598,2.404-1.726c0.028,0.861-0.354,1.967-1.085,2.947    c-0.732,0.98-1.637,1.599-2.404,1.727C235.993,37.755,236.373,36.651,237.105,35.671"/>
		<path class="st1" d="M237.287,26.231c0.411,0.733,0.574,1.901,0.378,3.157c-0.195,1.256-0.702,2.294-1.311,2.83    c-0.409-0.732-0.575-1.899-0.378-3.156C236.17,27.807,236.678,26.767,237.287,26.231"/>
		<path class="st1" d="M235.111,22.535c0.548,0.61,0.948,1.704,1.015,2.978c0.068,1.271-0.216,2.411-0.697,3.088    c-0.551-0.61-0.95-1.706-1.015-2.977C234.346,24.351,234.629,23.212,235.111,22.535"/>
		<path class="st1" d="M235.517,30.74c-0.694,0.038-1.589-0.328-2.388-1.047c-0.8-0.718-1.309-1.617-1.421-2.381    c0.694-0.037,1.591,0.329,2.388,1.047C234.894,29.079,235.406,29.976,235.517,30.74"/>
		<path class="st1" d="M230.779,22.312c0.754,0.202,1.606,0.907,2.258,1.955c0.65,1.047,0.941,2.185,0.846,3.041    c-0.753-0.203-1.607-0.907-2.257-1.955C230.974,24.306,230.683,23.169,230.779,22.312"/>
		<path class="st1" d="M231.276,43.023c0.521-1.134,1.284-1.958,2.007-2.268c0.194,0.836,0.039,2.007-0.482,3.139    c-0.523,1.135-1.286,1.958-2.008,2.267C230.597,45.327,230.752,44.157,231.276,43.023"/>
		<path class="st1" d="M231.148,47.519c1.136,0.147,2.096,0.651,2.613,1.296c-0.634,0.497-1.672,0.748-2.808,0.603    c-1.136-0.147-2.098-0.65-2.614-1.297C228.971,47.623,230.011,47.374,231.148,47.519"/>
		<path class="st1" d="M227.342,46.034c0.954-0.703,1.98-1.006,2.747-0.883c-0.196,0.834-0.845,1.772-1.799,2.474    c-0.953,0.707-1.98,1.009-2.746,0.886C225.74,47.677,226.39,46.74,227.342,46.034"/>
		<path class="st1" d="M224.174,49.55c0.285-0.156,0.582-0.299,0.895-0.431c0.017-0.008,0.035-0.015,0.053-0.023    c0.007-0.004,0.015-0.007,0.022-0.01c-0.001,0.001-0.002,0.002-0.003,0.003c0.668-0.281,1.576-0.339,2.527-0.101    c1.117,0.28,2.023,0.897,2.473,1.599c-0.676,0.419-1.733,0.545-2.85,0.264c-1.077-0.27-1.958-0.854-2.423-1.527    c-0.141,0.126-0.276,0.256-0.407,0.388c1.245,0.723,2.326,1.683,3.264,2.913c-0.369,0.585-0.554,0.878-0.923,1.462    c-0.713-1.615-1.583-2.96-2.633-4.068c-1.001,1.099-1.76,2.424-2.478,4.048c-0.368-0.583-0.552-0.877-0.922-1.462    c0.941-1.234,1.912-2.173,3.107-2.884c-0.133-0.131-0.269-0.259-0.407-0.383c-0.469,0.666-1.345,1.245-2.414,1.513    c-1.118,0.281-2.175,0.155-2.851-0.264c0.451-0.701,1.357-1.319,2.474-1.599c0.931-0.233,1.818-0.181,2.482,0.084    C223.794,49.325,224.174,49.55,224.174,49.55"/>
		<path class="st1" d="M221.07,46.034c0.952,0.706,1.602,1.642,1.797,2.477c-0.765,0.122-1.793-0.179-2.746-0.886    c-0.954-0.702-1.603-1.64-1.799-2.474C219.087,45.028,220.116,45.331,221.07,46.034"/>
		<path class="st1" d="M220.072,48.121c-0.515,0.646-1.475,1.15-2.612,1.297c-1.137,0.145-2.175-0.107-2.809-0.603    c0.516-0.645,1.476-1.149,2.614-1.295C218.401,47.374,219.439,47.624,220.072,48.121"/>
		<path class="st1" d="M211.907,35.677c-0.122-0.762,0.091-1.798,0.63-2.771c0.54-0.975,1.274-1.65,1.94-1.874    c0.121,0.764-0.092,1.798-0.628,2.773C213.31,34.778,212.576,35.455,211.907,35.677"/>
		<path class="st1" d="M212.392,38.619c-0.767-0.128-1.673-0.747-2.403-1.727c-0.732-0.98-1.113-2.086-1.086-2.947    c0.767,0.128,1.673,0.746,2.403,1.726C212.038,36.651,212.419,37.755,212.392,38.619"/>
		<path class="st1" d="M213.561,35.621c0.606,0.542,1.105,1.585,1.293,2.84c0.187,1.258,0.016,2.425-0.399,3.155    c-0.603-0.542-1.105-1.584-1.293-2.841C212.975,37.519,213.147,36.35,213.561,35.621"/>
		<path class="st1" d="M215.172,44.612c-0.761,0.176-1.801-0.056-2.791-0.692c-0.991-0.638-1.692-1.529-1.933-2.347    c0.758-0.176,1.8,0.055,2.79,0.694C214.23,42.904,214.928,43.794,215.172,44.612"/>
		<path class="st1" d="M214.6,45.222c1.127,0.226,2.059,0.799,2.536,1.478c-0.661,0.452-1.711,0.626-2.837,0.402    c-1.125-0.227-2.055-0.799-2.533-1.479C212.427,45.172,213.477,44.996,214.6,45.222"/>
		<path class="st1" d="M217.619,46.161c-0.722-0.309-1.484-1.132-2.008-2.267c-0.522-1.132-0.679-2.303-0.483-3.139    c0.724,0.31,1.487,1.133,2.01,2.268C217.659,44.157,217.815,45.327,217.619,46.161"/>
		<path class="st1" d="M215.376,24.267c0.652-1.047,1.504-1.753,2.257-1.955c0.096,0.857-0.197,1.993-0.847,3.042    c-0.651,1.048-1.505,1.753-2.257,1.955C214.432,26.453,214.723,25.315,215.376,24.267"/>
		<path class="st1" d="M214.316,28.359c0.799-0.718,1.696-1.084,2.39-1.047c-0.113,0.765-0.623,1.663-1.421,2.382    c-0.8,0.719-1.695,1.084-2.39,1.047C213.008,29.975,213.517,29.078,214.316,28.359"/>
		<path class="st1" d="M212.287,25.513c0.067-1.275,0.465-2.368,1.016-2.978c0.481,0.677,0.763,1.816,0.696,3.09    c-0.067,1.271-0.466,2.367-1.016,2.977C212.502,27.925,212.22,26.784,212.287,25.513"/>
		<path class="st1" d="M211.126,26.231c0.606,0.536,1.116,1.576,1.311,2.831c0.194,1.256,0.031,2.424-0.38,3.156    c-0.606-0.536-1.115-1.573-1.311-2.83C210.551,28.132,210.716,26.964,211.126,26.231"/>
		<path class="st1" d="M208.946,29.225c0.727,0.297,1.503,1.104,2.043,2.228c0.541,1.123,0.714,2.289,0.532,3.128    c-0.727-0.296-1.504-1.103-2.043-2.227C208.938,31.231,208.763,30.064,208.946,29.225"/>
		<path class="st1" d="M234.113,47.102c-1.127,0.225-2.177,0.05-2.837-0.402c0.479-0.679,1.409-1.252,2.534-1.478    c1.126-0.226,2.175-0.051,2.837,0.401C236.169,46.303,235.24,46.875,234.113,47.102"/>
		<path class="st1" d="M236.032,43.92c-0.991,0.636-2.032,0.868-2.791,0.692c0.242-0.819,0.941-1.708,1.933-2.346    c0.991-0.638,2.032-0.869,2.79-0.693C237.723,42.391,237.025,43.281,236.032,43.92"/>
		<path class="st1" d="M237.991,40.263c-0.991,0.638-2.032,0.869-2.791,0.694c0.243-0.82,0.943-1.709,1.934-2.346    c0.99-0.637,2.032-0.869,2.79-0.694C239.681,38.736,238.981,39.625,237.991,40.263"/>
		<path class="st1" d="M211.279,38.61c0.991,0.637,1.691,1.527,1.933,2.347c-0.758,0.176-1.799-0.056-2.79-0.694    c-0.991-0.637-1.691-1.527-1.933-2.346C209.247,37.741,210.289,37.973,211.279,38.61"/>
	</g>
</g>
<g id="Layer_3">
	<g>
		<path class="st1" d="M33.981,243.83l-9.569,24.432h-3.156l-9.569-24.432v24.432H4.46v-33.951h10.129l8.246,21.174l8.246-21.174    h10.18v33.951h-7.279V243.83z"/>
		<path class="st1" d="M69.616,262.408H54.448l-2.138,5.854h-7.94l13.132-33.951h9.06l13.081,33.951h-7.889L69.616,262.408z     M56.382,256.148h11.249l-5.599-15.576L56.382,256.148z"/>
		<path class="st1" d="M82.803,234.311h7.228v33.951h-7.228V234.311z"/>
		<path class="st1" d="M103.978,245.459v22.803H96.75v-33.951h7.432l15.728,21.989v-21.989h7.227v33.951h-6.973L103.978,245.459z"/>
		<path class="st1" d="M146.892,234.311h15.88c7.38,0,11.401,4.989,11.401,10.944c0,5.904-4.071,10.842-11.401,10.842h-8.653v12.165    h-7.228V234.311z M161.806,240.522h-7.686v9.365h7.686c2.85,0,4.987-1.832,4.987-4.682    C166.793,242.405,164.655,240.522,161.806,240.522z"/>
		<path class="st1" d="M196.522,262.408h-15.168l-2.138,5.854h-7.94l13.132-33.951h9.059l13.081,33.951h-7.889L196.522,262.408z     M183.288,256.148h11.248l-5.599-15.576L183.288,256.148z"/>
		<path class="st1" d="M222.23,256.097h-5.293v12.165h-7.228v-33.951h15.88c7.075,0,11.402,4.632,11.402,10.944    c0,6.006-3.766,9.213-7.431,10.078l7.635,12.929h-8.296L222.23,256.097z M224.52,240.522h-7.583v9.365h7.583    c2.902,0,5.091-1.832,5.091-4.682C229.611,242.354,227.422,240.522,224.52,240.522z"/>
		<path class="st1" d="M249.77,240.674h-9.926v-6.363h27.079v6.363h-9.874v27.588h-7.278V240.674z"/>
		<path class="st1" d="M278.785,245.459v22.803h-7.227v-33.951h7.432l15.728,21.989v-21.989h7.227v33.951h-6.973L278.785,245.459z"/>
		<path class="st1" d="M308.667,234.311h24.024v6.21h-16.796v7.38h16.44v6.21h-16.44v7.889h16.796v6.261h-24.024V234.311z"/>
		<path class="st1" d="M350.866,256.097h-5.294v12.165h-7.227v-33.951h15.88c7.075,0,11.402,4.632,11.402,10.944    c0,6.006-3.767,9.213-7.431,10.078l7.635,12.929h-8.296L350.866,256.097z M353.157,240.522h-7.584v9.365h7.584    c2.902,0,5.091-1.832,5.091-4.682C358.247,242.354,356.059,240.522,353.157,240.522z"/>
	</g>
</g>
</svg>