<svg xmlns:xlink="http://www.w3.org/1999/xlink" xmlns="http://www.w3.org/2000/svg" class="svg-icon svelte-10mcogx" width="32"  height="32" ><defs><symbol id="icon-coins" viewBox="0 0 32 32">
<path d="M32 25.875v-5.835h-6.75c-0.036-0.002-0.078-0.003-0.121-0.003-1.613 0-2.92 1.307-2.92 2.92s1.307 2.92 2.92 2.92c0.043 0 0.085-0.001 0.127-0.003l-0.006 0zM26.805 22.96c-0.003 0.735-0.599 1.33-1.335 1.33-0.737 0-1.335-0.598-1.335-1.335s0.598-1.335 1.335-1.335v0c0 0 0 0 0 0 0.737 0 1.335 0.598 1.335 1.335 0 0.002 0 0.003 0 0.005v-0z"></path>
<path d="M5.215 10.17c-0.489 0.003-0.885 0.4-0.885 0.89 0 0 0 0 0 0v0 0.095c0 0.489 0.396 0.885 0.885 0.885v0h3.455c-0.38-0.539-0.716-1.155-0.978-1.809l-0.022-0.061z"></path>
<path d="M24.84 10.17c-0.284 0.715-0.62 1.331-1.019 1.899l0.019-0.029h5.16v-1.87z"></path>
<path d="M27.625 8.295v-1.445h-2.125c-0.007 0.516-0.056 1.015-0.143 1.5l0.008-0.055z"></path>
<path d="M25.25 18.165h5.865v-1.59c0-0.002 0-0.003 0-0.005 0-1.465-1.186-2.652-2.65-2.655h-23.395c-1.468-0.102-2.62-1.319-2.62-2.804 0-0.002 0-0.005 0-0.007v0c-0.002-0.038-0.004-0.083-0.004-0.127s0.001-0.089 0.004-0.134l-0 0.006c0.115-1.432 1.304-2.551 2.755-2.555h1.925c-0.078-0.431-0.125-0.931-0.13-1.44l-0-0.005h-3.47c-1.95 0.003-3.53 1.584-3.53 3.535v0 18.55c0.003 1.692 1.373 3.062 3.065 3.065h25.395c1.466 0 2.655-1.189 2.655-2.655v0-1.595h-5.865c-0.046 0.002-0.1 0.003-0.155 0.003-2.648 0-4.795-2.147-4.795-4.795s2.147-4.795 4.795-4.795c0.054 0 0.109 0.001 0.163 0.003l-0.008-0z"></path>
<path d="M22.855 6.75c0-0.002 0-0.005 0-0.007 0-3.648-2.957-6.605-6.605-6.605s-6.605 2.957-6.605 6.605c0 2.161 1.038 4.080 2.643 5.285l0.017 0.012h7.89c1.622-1.212 2.66-3.127 2.66-5.285 0-0.002 0-0.004 0-0.005v0z"></path>
</symbol></defs><use xlink:href="#icon-coins" stroke="#FFFFFF" fill="#FFFFFF" stroke-width="0px"></use></svg>