<svg xmlns:xlink="http://www.w3.org/1999/xlink" xmlns="http://www.w3.org/2000/svg" id="Layer_1" data-name="Layer 1" viewBox="0 0 1000 300" width="1000"  height="300" ><defs><style>.cls-1{fill:#557086;}</style></defs><path class="cls-1" d="M397.62,123.13A38.11,38.11,0,0,0,387,121.72c-12.75,0-26.22,9.92-26.22,22.67v60.22h-29v-107h27.61v10.63c6.4-7.79,18.43-12.75,31.17-12.75,4.24,0,6.4.72,9.92.72l-2.8,26.9ZM430.22,41a18.3,18.3,0,0,1,18.43,18.42c0,10.63-8.52,18.42-19.15,18.42S410.36,70,410.36,59.38A19.55,19.55,0,0,1,430.22,41m14.15,163.65H415.32v-107h29.05Zm85-109.1a51.68,51.68,0,0,0-31.18,10.63V97.63H469.87V257.72h29.05v-60.9A46.41,46.41,0,0,0,528,206.73c15.58,0,31.17-7.08,40.36-18.42,8.51-9.92,13.47-22.66,13.47-37.53,0-31.17-23.38-55.27-52.43-55.27m-3.52,85c-17.71,0-29.74-12-29.74-29.73s12-29.74,29.74-29.74c15.58,0,27.61,13.47,27.61,29.74,0,17-12.75,29.73-27.61,29.73M727.72,47.35h29V204.61h-29ZM873.66,187.59c-10.63,12-27.61,19.14-43.92,19.14-31.89,0-56-21.94-56-55.95,0-29.74,20.54-55.95,52.43-55.95,29.74,0,51,24.78,51,54.55a34.06,34.06,0,0,1-.72,8.51H801.41c1.4,14.87,13.47,25.5,29.05,25.5,12,0,21.94-7.08,26.94-12Zm-26.93-50.28c-.72-9.19-9.19-19.14-21.26-19.14s-21.94,9.19-22.66,19.14ZM658.3,95.51a51.63,51.63,0,0,0-31.17,10.63V97.63H599.51V257.72h29v-60.9c8.52,6.39,17.71,9.91,29.06,9.91,15.58,0,31.17-7.08,40.36-18.42,8.51-9.92,13.47-22.66,13.47-37.53-.72-31.17-24.1-55.27-53.15-55.27m-3.52,85c-17.7,0-29.73-12-29.73-29.73s12-29.74,29.73-29.74c15.59,0,27.62,13.47,27.62,29.74,0,17-12.75,29.73-27.62,29.73"/><path id="SVGID" class="cls-1" d="M234.72,58.66A38.67,38.67,0,0,0,215.58,92c0,7.08,2.83,14.19,6.39,20.55,2.84,5.67,4.24,15.58-5.67,20.54-7.08,4.23-16.31,1.4-20.55-5.68-4.23-5.67-9.19-11.35-15.58-15.58a37.1,37.1,0,0,0-38.25,0,38.55,38.55,0,0,0,0,66.61,37.1,37.1,0,0,0,38.25,0A39.06,39.06,0,0,0,195,162.81c2.83-5,10.63-11.35,20.54-5.68,7.07,4.24,9.19,13.47,5.67,20.55a42.65,42.65,0,0,0-5.67,20.54,38.58,38.58,0,0,0,19.14,33.29,37.12,37.12,0,0,0,38.24,0,38.51,38.51,0,0,0,0-66.58c-6.39-3.56-13.46-5-21.26-5-6.39,0-14.86-4.24-14.86-14.87a14.51,14.51,0,0,1,14.86-14.86c7.08,0,14.87-1.4,21.26-5a38.51,38.51,0,0,0,0-66.58c-5.67-3.56-12.74-5-19.14-5s-13.46,1.4-19.1,4.92"/></svg>