<svg xmlns:xlink="http://www.w3.org/1999/xlink" xmlns="http://www.w3.org/2000/svg" width="16" height="25" class="svelte-md2ju7"><title>Logo</title><path d="M3.1361,6.9505 C3.1241,3.7165 5.1921,1.9235 8.9901,1.9095 C11.7261,1.8995 12.2131,3.6885 12.2161,4.3385 C12.2201,5.5835 10.4541,6.9045 10.4541,6.9045 C10.4541,6.9045 10.5521,7.6795 12.0641,7.6735 C13.5751,7.6685 15.0481,6.6695 15.0391,4.1715 C15.0281,1.3015 12.0241,-0.0105 9.0521,0.0005 C6.5671,0.0095 -0.0239,0.3585 0.0001,6.9035 C0.0211,12.7185 10.9851,13.2305 10.9981,16.9535 C11.0131,20.9955 6.4751,22.0845 4.9471,22.0905 C3.4191,22.0965 2.7891,20.9985 2.7871,20.3965 C2.7751,17.1225 6.0321,16.2105 6.0321,16.2105 C6.0311,15.9695 5.8411,14.8785 4.5801,14.8835 C1.3311,14.8945 0.0361,17.6895 0.0461,20.4195 C0.0541,22.7395 1.6951,24.1895 4.1721,24.1795 C8.9071,24.1635 14.2471,21.8505 14.2281,16.7175 C14.2111,11.9175 3.1501,10.6625 3.1361,6.9505" fill="#FFFFFF"></path></svg>