<svg xmlns:xlink="http://www.w3.org/1999/xlink" xmlns="http://www.w3.org/2000/svg" id="Layer_1" viewBox="0 0 1000 300" width="1000"  height="300" ><defs><style>.cls-1{fill:#557086;}</style></defs><g><path class="cls-1" d="M249.99,138.71v16.16c-.69,.06-4.39,.38-11.78,.38-6.16,0-10.62-.27-12.17-.38v-16.18c-23.78,1.05-41.54,5.2-41.54,10.15s17.75,9.1,41.54,10.15v-.02c1.53,.08,5.87,.25,12.06,.25,7.74,0,11.21-.2,11.89-.25v.03c23.73-1.07,41.44-5.2,41.44-10.15s-17.7-9.08-41.44-10.15Z"/><path class="cls-1" d="M239.6,52.58c-53.8,0-97.42,43.62-97.42,97.42s43.62,97.42,97.42,97.42,97.42-43.62,97.42-97.42-43.62-97.42-97.42-97.42Zm10.4,110.37v46.39h-23.95v-46.39c-26.91-1.25-47.16-6.58-47.16-12.97s20.24-11.72,47.16-12.95v-14.47h-33.13v-22.07h90.18v22.07h-33.13v14.47l.02,.02c26.88,1.24,47.08,6.58,47.08,12.95s-20.2,11.72-47.08,12.95Z"/></g><path class="cls-1" d="M419.77,106.52v23.4h22.74v17.56h-22.9v35.6c0,7.86,4.34,11.7,10.7,11.7,3.18,0,6.86-1,9.87-2.51l5.69,17.39c-5.84,2.33-10.7,3.34-16.88,3.51-17.89,.67-29.59-9.52-29.59-30.09v-35.6h-15.38v-17.56h15.38v-21.22l20.38-2.18Zm392.07,22.3l1.5,9.52c6.36-10.2,14.88-11.7,23.24-11.7s16.71,3.34,21.22,7.85l-9.19,17.71c-4.18-3.51-8.02-5.36-14.71-5.36-10.7,0-20.56,5.69-20.56,20.89v43.46h-20.39v-82.41l18.89,.03Zm-49.98,31.59c-1.33-10.7-9.69-16.05-21.39-16.05-11.03,0-20.06,5.36-23.07,16.05h44.47Zm-44.79,16.88c1.33,10.2,10.2,17.56,24.57,17.56,7.52,0,17.39-2.85,22.07-7.69l13.03,12.87c-8.69,9.02-22.9,13.38-35.44,13.38-28.41,0-45.31-17.56-45.31-43.96s17.06-43.13,43.81-43.13,44.81,17.06,41.63,50.98h-64.36Zm-89.93-83.09v45.8c7.36-9.52,16.38-12.37,25.75-12.37,23.4,0,33.77,15.88,33.77,40.13v43.46h-20.39v-43.29c0-15.05-7.86-21.39-18.73-21.39-12.04,0-20.39,10.2-20.39,22.57v42.13h-20.39V94.23l20.39-.02Zm-54.16,11.37v23.4h22.74v17.56h-22.9v35.6c0,7.86,4.35,11.7,10.7,11.7,3.18,0,6.86-1,9.87-2.51l5.69,17.39c-5.84,2.33-10.7,3.34-16.88,3.51-17.89,.67-29.59-9.54-29.59-30.09v-35.6h-15.38v-17.56h15.38v-21.22l20.38-2.18Zm-56.34,54.83c-1.33-10.7-9.69-16.05-21.39-16.05-11.03,0-20.06,5.36-23.07,16.05h44.47Zm-44.79,16.88c1.33,10.2,10.2,17.56,24.57,17.56,7.52,0,17.39-2.85,22.07-7.69l13.03,12.87c-8.69,9.02-22.9,13.38-35.44,13.38-28.43,0-45.31-17.56-45.31-43.96s17.06-43.13,43.79-43.13,44.79,17.06,41.63,50.98h-64.34Z"/></svg>