<svg xmlns:xlink="http://www.w3.org/1999/xlink" xmlns="http://www.w3.org/2000/svg" class="svg-icon svelte-10mcogx" width="32"  height="32" ><defs><symbol id="icon-my-bet" viewBox="0 0 32 32">
<path d="M32 7.107h-24.893v24.893h3.080c0.4-1.554 1.788-2.683 3.44-2.683s3.040 1.13 3.435 2.659l0.005 0.025h4.973c0.4-1.554 1.788-2.683 3.44-2.683s3.040 1.13 3.435 2.659l0.005 0.025h3.080zM13.973 25.627l-3.307-3.347 1.893-1.893 1.467 1.467 3.88-3.88 1.827 1.893zM28.44 23.467h-5.627v-2.667h5.627zM28.44 14.227h-17.773v-2.667h17.773zM24.893 0v3.56h-21.333v21.333h-3.56v-24.893z"></path>
</symbol></defs><use xlink:href="#icon-my-bet" stroke="#1475E1" fill="#1475E1" stroke-width="0px"></use></svg>