<svg xmlns:xlink="http://www.w3.org/1999/xlink" xmlns="http://www.w3.org/2000/svg" class="svg-icon svelte-10mcogx" width="32"  height="32" ><defs><symbol id="icon-basketball" viewBox="0 0 32 32">
<path d="M21.333 31.093c2.228-0.783 4.137-1.975 5.725-3.498l-0.005 0.005c-0.931-1.636-1.813-2.999-2.761-4.31l0.094 0.137c-1.752 2.071-2.876 4.723-3.052 7.63l-0.002 0.036z"></path>
<path d="M28.853 25.493c1.182-1.546 2.099-3.367 2.641-5.343l0.026-0.111c-1.896 0.16-3.622 0.764-5.113 1.707l0.046-0.027c0.827 1.227 1.64 2.48 2.4 3.773z"></path>
<path d="M4.773 4.613c5.563 2.297 10.343 5.353 14.482 9.104l-0.042-0.037c2.253-3.36 2.667-7.933 1.040-13.093-1.289-0.376-2.769-0.592-4.3-0.592-4.359 0-8.309 1.754-11.182 4.594l0.002-0.002z"></path>
<path d="M7.253 21.8c-1.1-0.005-2.179-0.072-3.239-0.2l0.133 0.013c-1.306-0.154-2.435-0.35-3.543-0.603l0.223 0.043c2.181 6.412 8.148 10.943 15.173 10.947h0c0.945-0.003 1.867-0.090 2.762-0.254l-0.095 0.014c0.041-4.010 1.55-7.659 4.015-10.444l-0.015 0.017c-1.078-1.36-2.155-2.573-3.296-3.723l0.003 0.003c-3.018 2.613-6.982 4.205-11.318 4.205-0.282 0-0.563-0.007-0.841-0.020l0.039 0.002z"></path>
<path d="M17.507 15.707c-4.113-3.722-8.942-6.747-14.242-8.836l-0.318-0.111c-1.843 2.564-2.947 5.767-2.947 9.227 0 0.005 0 0.009 0 0.014v-0.001c0.006 0.768 0.064 1.516 0.171 2.249l-0.011-0.089c1.183 0.324 2.635 0.609 4.117 0.797l0.163 0.017c5.52 0.6 10.067-0.547 13.067-3.267z"></path>
<path d="M21.173 15.533c1.25 1.241 2.431 2.545 3.542 3.909l0.072 0.091c2.040-1.333 4.526-2.147 7.199-2.2l0.014-0c0-0.453 0.067-0.92 0.067-1.333-0.016-6.168-3.521-11.514-8.644-14.171l-0.089-0.042c1.2 5.333 0.467 10.107-2.16 13.747z"></path>
</symbol></defs><use xlink:href="#icon-basketball" stroke="#B1BAD3" fill="#B1BAD3" stroke-width="0px"></use></svg>