<svg xmlns:xlink="http://www.w3.org/1999/xlink" xmlns="http://www.w3.org/2000/svg" class="svg-icon svelte-10mcogx" width="32"  height="32" ><defs><symbol id="icon-chat" viewBox="0 0 32 32">
<path d="M16 0.139c-0.144-0.005-0.314-0.008-0.485-0.008-8.388 0-15.222 6.653-15.514 14.97l-0.001 0.027c0.011 3.708 1.425 7.084 3.738 9.628l-0.010-0.012c-0.344 2.014-0.945 3.818-1.776 5.487l0.051-0.114c2.317-0.198 4.439-0.865 6.327-1.905l-0.082 0.041c2.237 1.175 4.887 1.864 7.699 1.864 0.019 0 0.038-0 0.056-0h-0.003c0.15 0.005 0.327 0.008 0.504 0.008 8.384 0 15.214-6.655 15.495-14.971l0.001-0.026c-0.293-8.344-7.127-14.996-15.515-14.996-0.171 0-0.34 0.003-0.509 0.008l0.025-0.001zM8.069 17.983c-1.642 0-2.974-1.331-2.974-2.974s1.332-2.974 2.974-2.974c1.642 0 2.974 1.332 2.974 2.974v0c0 1.642-1.332 2.974-2.974 2.974v0zM16 17.983c-1.642 0-2.974-1.331-2.974-2.974s1.332-2.974 2.974-2.974c1.642 0 2.974 1.332 2.974 2.974v0c0 1.642-1.331 2.974-2.974 2.974v0zM23.931 17.983c-1.642 0-2.974-1.331-2.974-2.974s1.331-2.974 2.974-2.974c1.642 0 2.974 1.332 2.974 2.974v0c0 1.642-1.331 2.974-2.974 2.974v0z"></path>
</symbol></defs><use xlink:href="#icon-chat" stroke="#557086" fill="#557086" stroke-width="0px"></use></svg>