<svg xmlns:xlink="http://www.w3.org/1999/xlink" xmlns="http://www.w3.org/2000/svg" class="svg-icon svelte-10mcogx" width="32"  height="32" ><defs><symbol id="icon-cricket" viewBox="0 0 32 32">
<path d="M4 5.48c0.28-0.32 0.573-0.64 0.88-0.933 5.438 0.271 10.371 2.236 14.332 5.373l-0.052-0.040c4.613 3.863 8.205 8.795 10.41 14.424l0.084 0.243c-0.284 0.461-0.552 0.848-0.838 1.221l0.025-0.034c-2.282-5.492-5.65-10.126-9.864-13.817l-0.043-0.037c-4.062-3.439-9.18-5.75-14.805-6.388l-0.128-0.012zM1.907 8.413c5.763 0.262 10.974 2.43 15.064 5.884l-0.037-0.031c4.172 3.7 7.43 8.338 9.453 13.588l0.081 0.238c-2.789 2.424-6.457 3.901-10.47 3.901-8.837 0-16-7.163-16-16 0-2.777 0.708-5.389 1.952-7.665l-0.042 0.084zM8.573 1.84c2.153-1.151 4.71-1.827 7.425-1.827 8.837 0 16 7.163 16 16 0 1.66-0.253 3.262-0.722 4.767l0.030-0.113c-2.457-5.312-5.941-9.769-10.228-13.281l-0.065-0.052c-3.473-2.736-7.699-4.675-12.316-5.47l-0.164-0.023z"></path>
</symbol></defs><use xlink:href="#icon-cricket" stroke="#B1BAD3" fill="#B1BAD3" stroke-width="0px"></use></svg>