<svg xmlns:xlink="http://www.w3.org/1999/xlink" xmlns="http://www.w3.org/2000/svg" class="svg-icon svelte-10mcogx" width="32"  height="32" ><defs><symbol id="icon-drake" viewBox="0 0 32 32">
<path d="M21.27 9.236v-8.275c-1.545-0.755-3.176-0.927-4.996-0.961-1.82 0.034-3.468 0.206-4.996 0.961v8.275h9.991z"></path>
<path d="M9.202 1.94c-0.601 0.309-1.562 1.030-2.146 1.7-0.687 0.704-1.528 1.785-1.528 2.936v8.446l3.708-2.73v-10.352z"></path>
<path d="M19.399 16.79h-5.717l-2.438 3.605-5.734-3.433v6.129c0.017 0.549 0.103 1.047 0.223 1.511 1.167 4.361 6.335 7.399 10.524 7.399s9.356-3.039 10.524-7.399c0.12-0.464 0.206-0.961 0.223-1.511v-5.15l-5.219 2.661-2.386-3.811zM19.107 23.691h-5.425s-0.464-0.258-0.67-0.773l1.425-2.627h4.051l1.27 2.438s-0.052 0.807-0.652 0.961z"></path>
<path d="M25.494 3.639c-0.549-0.464-1.408-1.288-2.215-1.7v10.575l3.742 2.627v-8.567c0-1.133-0.841-2.232-1.528-2.936z"></path>
</symbol></defs><use xlink:href="#icon-drake" stroke="#B1BAD3" fill="#B1BAD3" stroke-width="0px"></use></svg>