<svg xmlns:xlink="http://www.w3.org/1999/xlink" xmlns="http://www.w3.org/2000/svg" class="svg-icon svelte-10mcogx" width="32"  height="32" ><defs><symbol id="icon-everton" viewBox="0 0 32 32">
<path d="M6.845 8.304c0.174 0.712 0.104 1.286 0.035 1.737-0.434 3.335-1.268 4.169-1.459 5.577-0.052 0.4-0.208 1.668 0.365 3.023 0.799 1.928 2.554 2.832 3.092 3.11 1.772 0.886 2.606 0.382 4.326 1.216 1.39 0.678 2.276 1.702 2.814 2.467 0.539-0.764 1.425-1.807 2.814-2.467 1.72-0.834 2.554-0.313 4.326-1.216 0.539-0.261 2.276-1.181 3.092-3.11 0.556-1.355 0.417-2.606 0.365-3.023-0.191-1.407-1.025-2.241-1.459-5.577-0.052-0.452-0.122-1.025 0.035-1.737 0.417-1.755 1.911-2.884 2.901-3.474 0 0 0.208-0.174 0.191-0.417-0.017-0.191-0.156-0.313-0.191-0.33-0.73-0.434-1.581-1.025-2.432-1.789-0.747-0.66-1.338-1.303-1.824-1.894-0.521 0.313-2.102 1.147-4.221 0.956-1.807-0.156-3.058-0.99-3.561-1.355-0.504 0.382-1.755 1.199-3.561 1.355-2.119 0.191-3.7-0.643-4.221-0.956-0.486 0.591-1.077 1.233-1.824 1.894-0.869 0.764-1.702 1.355-2.432 1.789-0.035 0.017-0.174 0.139-0.191 0.33-0.017 0.243 0.174 0.4 0.191 0.417 0.99 0.591 2.484 1.72 2.901 3.474zM12.942 9.781l3.058-5.316 3.058 5.455v9.329l-6.098-3.839v-5.646z"></path>
<path d="M4.36 18.623l-2.693 1.303c0.4 0.764 0.955 1.807 1.685 2.71l0.174 0.208 2.224-1.963c-0.573-0.73-1.025-1.564-1.39-2.241z"></path>
<path d="M24.512 22.271c-0.903 0.556-1.65 0.678-2.502 0.817-1.112 0.191-2.415 0.347-3.805 1.459-0.869 0.695-1.755 1.477-2.224 2.502-0.191-1.042-1.511-1.894-2.38-2.588-1.39-1.112-2.693-1.268-3.805-1.459-0.851-0.139-1.598-0.278-2.502-0.817-0.4-0.243-0.625-0.4-0.973-0.782l-2.276 2.050c0.573 0.625 1.042 0.973 1.72 1.372 1.494 0.903 2.762 1.129 3.77 1.303 0.921 0.156 1.459 0.347 2.276 0.817 1.633 0.956 3.422 2.953 4.1 4.847 0 0.070 0.035 0.156 0.052 0.208 0 0 0-0.035 0.017-0.052 0 0 0 0.035 0.017 0.052v-0.087c0.66-1.928 2.484-3.996 4.152-4.951 0.799-0.469 1.355-0.66 2.276-0.817 1.008-0.174 2.276-0.382 3.77-1.303 0.678-0.417 1.147-0.764 1.72-1.372l-2.432-1.946c-0.347 0.382-0.573 0.539-0.973 0.782z"></path>
<path d="M27.431 18.623c-0.365 0.678-0.799 1.511-1.39 2.241l2.415 1.963 0.174-0.208c0.73-0.903 1.286-1.946 1.685-2.71l-2.884-1.303z"></path>
</symbol></defs><use xlink:href="#icon-everton" stroke="#B1BAD3" fill="#B1BAD3" stroke-width="0px"></use></svg>