<svg xmlns:xlink="http://www.w3.org/1999/xlink" xmlns="http://www.w3.org/2000/svg" class="svg-icon svelte-10mcogx" style="color: inherit;" width="32"  height="32" ><defs><symbol id="icon-ghost-mode" viewBox="0 0 32 32">
<path d="M16.755 21.445h-1.5c-3.115-0.745-6.725-0.6-10.595 0v1.23l1.5 0.285s0 4.54 4.54 4.54c3.060 0 4.055-2.745 4.38-4.54h1.83c0.325 1.795 1.32 4.54 4.38 4.54 4.54 0 4.54-4.54 4.54-4.54l1.5-0.285v-1.23c-3.795-0.61-7.38-0.73-10.575 0z"></path>
<path d="M30.525 15.395h-29.025c-0.668 0-1.21 0.542-1.21 1.21s0.542 1.21 1.21 1.21v0c4.363 0.625 9.402 0.982 14.525 0.982s10.161-0.357 15.094-1.048l-0.569 0.065c0.668 0 1.21-0.542 1.21-1.21s-0.542-1.21-1.21-1.21v0z"></path>
<path d="M23.895 6.71c-0.375-1.286-1.544-2.21-2.928-2.21-0.001 0-0.001 0-0.002 0h-9.93c-0.001 0-0.001 0-0.002 0-1.384 0-2.553 0.924-2.923 2.188l-0.005 0.022-1.79 6.29h19.37z"></path>
</symbol></defs><use xlink:href="#icon-ghost-mode" stroke="#B1BAD3" fill="#B1BAD3" stroke-width="0px"></use></svg>