<svg xmlns:xlink="http://www.w3.org/1999/xlink" xmlns="http://www.w3.org/2000/svg" class="svg-icon svelte-10mcogx" width="32"  height="32" ><defs><symbol id="icon-aguero" viewBox="0 0 32 32">
<path d="M25.278 3.284c-2.212-1.797-4.302-2.695-5.961-3.024-1.14-0.225-2.246-0.259-3.317-0.259-1.244 0-5.011-0.173-9.261 3.283-0.708 0.674-1.555 1.71-1.555 2.799v8.864l2.661-1.52v-4.803l15.757 4.389-1.849-4.389 5.062 1.624v-4.164c0-1.088-0.847-2.125-1.538-2.799z"></path>
<path d="M21.494 23.015l-2.073-3.611h-6.306l-2.16 3.611-2.436-3.957-3.335-1.469v5.443c0.017 0.553 0.104 1.054 0.225 1.52 1.175 4.389 6.376 7.447 10.591 7.447s9.416-3.058 10.591-7.447c0.121-0.466 0.207-0.968 0.225-1.52v-5.322l-2.35 0.898-2.972 4.406zM18.972 25.814h-5.46s-0.501-0.38-0.449-0.777l1.313-2.782h3.697l1.382 2.834s0.052 0.587-0.484 0.726z"></path>
</symbol></defs><use xlink:href="#icon-aguero" stroke="#B1BAD3" fill="#B1BAD3" stroke-width="0px"></use></svg>