<svg xmlns:xlink="http://www.w3.org/1999/xlink" xmlns="http://www.w3.org/2000/svg" class="svg-icon svelte-10mcogx" width="32"  height="32" ><defs><symbol id="icon-multi" viewBox="0 0 32 32">
<path d="M25.56 22.24l4.253 1.947c0.283 0.131 0.476 0.413 0.476 0.74s-0.193 0.609-0.471 0.738l-0.005 0.002-13.813 6.333-13.813-6.333c-0.283-0.131-0.476-0.413-0.476-0.74s0.193-0.609 0.471-0.738l0.005-0.002 4.253-1.947 8.227 3.773 1.333 0.653 1.333-0.613zM29.813 7.813c0.283-0.131 0.476-0.413 0.476-0.74s-0.193-0.609-0.471-0.738l-0.005-0.002-13.813-6.333-13.813 6.333c-0.283 0.131-0.476 0.413-0.476 0.74s0.193 0.609 0.471 0.738l0.005 0.002 13.813 6.333zM17.347 17.147l-1.333 0.627-1.333-0.627-8.24-3.813-4.253 1.933c-0.275 0.134-0.462 0.412-0.462 0.733s0.186 0.599 0.457 0.731l0.005 0.002 13.813 6.333 13.813-6.333c0.275-0.134 0.462-0.412 0.462-0.733s-0.186-0.599-0.457-0.731l-0.005-0.002-4.253-1.933z"></path>
</symbol></defs><use xlink:href="#icon-multi" stroke="#B1BAD3" fill="#B1BAD3" stroke-width="0px"></use></svg>