<svg xmlns:xlink="http://www.w3.org/1999/xlink" xmlns="http://www.w3.org/2000/svg" class="svg-icon svelte-10mcogx" width="32"  height="32" ><defs><symbol id="icon-races" viewBox="0 0 32 32">
<path d="M16.4 25.44c3.347-0.008 6.059-2.719 6.067-6.066v-0.001h-6.067l0.547-6.040c-0.082-0.006-0.177-0.010-0.273-0.010s-0.192 0.004-0.286 0.011l0.013-0.001c-2.675 0.017-4.938 1.768-5.721 4.184l-0.012 0.043h-10.667v3.28h10.533c0.674 2.659 3.043 4.595 5.866 4.6h0.001z"></path>
<path d="M12.933 1.16h6.933v3.467h-6.933v-3.467z"></path>
<path d="M25.453 11.307l1.787-2.067-2.667-2.28-1.787 2.107c-1.812-1.157-4.022-1.845-6.393-1.845-3.443 0-6.547 1.45-8.735 3.772l-0.006 0.006h-4.373v3.28h8.133v-1.973c1.378-1.020 3.11-1.635 4.986-1.64h0.001c4.582 0.262 8.199 4.042 8.199 8.667s-3.617 8.405-8.176 8.666l-0.023 0.001c-0.002 0-0.005 0-0.008 0-1.869 0-3.597-0.6-5.004-1.617l0.025 0.017v-2.28h-8.133v3.28h4c2.234 2.514 5.476 4.091 9.087 4.091 6.703 0 12.137-5.434 12.137-12.137 0-3.093-1.157-5.916-3.062-8.059l0.011 0.012z"></path>
</symbol></defs><use xlink:href="#icon-races" stroke="#B1BAD3" fill="#B1BAD3" stroke-width="0px"></use></svg>