<svg xmlns:xlink="http://www.w3.org/1999/xlink" xmlns="http://www.w3.org/2000/svg" class="svg-icon svelte-10mcogx" width="32"  height="32" ><defs><symbol id="icon-soccer" viewBox="0 0 32 32">
<path d="M31.92 17.973c-0.462-0.215-1.003-0.341-1.573-0.341s-1.111 0.126-1.597 0.351l0.023-0.010c0.104-0.38 0.164-0.816 0.164-1.265 0-1.742-0.896-3.275-2.251-4.163l-0.019-0.012c2.293-0.213 3.493-4.173 3.493-4.173-1.511-2.79-3.726-5.031-6.411-6.531l-0.082-0.042s-3.867-0.533-5.027 0.693c-1.44-2.333-5.533-2.333-5.533-2.333-3.247 0.623-6.063 2.157-8.255 4.322l0.002-0.002c0.002 1.293 0.602 2.445 1.538 3.194l0.008 0.006c-2.040 0.48-4.16 3.347-3.813 4.507-0.41-0.545-1.056-0.894-1.784-0.894-0.020 0-0.039 0-0.059 0.001l0.003-0c-0.42 1.369-0.664 2.942-0.667 4.572v0.002c0 0 0 0.001 0 0.001 0 1.759 0.288 3.45 0.819 5.030l-0.032-0.111c0.744-0.602 1.315-1.391 1.642-2.297l0.011-0.036c1.011 0.667 2.252 1.063 3.585 1.063 0.656 0 1.29-0.096 1.889-0.275l-0.047 0.012c-0.42 0.849-0.666 1.848-0.666 2.905 0 1.327 0.388 2.563 1.056 3.601l-0.016-0.026c-1.303 0.187-2.433 0.811-3.263 1.716l-0.004 0.004c2.863 2.73 6.748 4.411 11.026 4.413h0c1.36-0.003 2.679-0.178 3.936-0.504l-0.109 0.024c-0.743-1.721-2.096-3.061-3.78-3.769l-0.047-0.017c1.867-0.107 3.707-2.84 4-4.707 1.341 0.61 2.909 0.965 4.56 0.965 0.404 0 0.803-0.021 1.196-0.063l-0.049 0.004c-0.286 0.703-0.452 1.519-0.452 2.373s0.166 1.67 0.468 2.417l-0.015-0.043c3.276-2.524 5.532-6.234 6.124-10.476l0.010-0.084zM19.693 20.867c-2.040-2.88-7.88-4.6-10.947-2.893 1.76-4.32 1.147-7.133-1.040-10.12 4 0.373 8.747-1.707 10.667-4.373 0.547 2.893 3.733 7.72 6.667 8.693-4.773 2.173-5.32 5.6-5.347 8.693z"></path>
</symbol></defs><use xlink:href="#icon-soccer" stroke="#B1BAD3" fill="#B1BAD3" stroke-width="0px"></use></svg>