<svg xmlns:xlink="http://www.w3.org/1999/xlink" xmlns="http://www.w3.org/2000/svg" class="svg-icon svelte-10mcogx" width="32"  height="32" ><defs><symbol id="icon-tennis" viewBox="0 0 32 32">
<path d="M1.511 9.186l2.253 2.253c1.846 1.832 3.232 4.125 3.973 6.691l0.027 0.109c1.008 3.631 4.284 6.252 8.172 6.252 1.744 0 3.365-0.527 4.712-1.431l-0.030 0.019c2.083-1.404 3.503-3.652 3.77-6.243l0.003-0.037c0.023-0.237 0.037-0.513 0.037-0.791 0-3.859-2.565-7.118-6.083-8.166l-0.060-0.015c-2.707-0.766-5.030-2.152-6.894-4.001l0.001 0.001-2.213-2.307c-3.403 1.589-6.077 4.264-7.626 7.571l-0.040 0.096z"></path>
<path d="M27.297 4.666c-2.893-2.881-6.883-4.663-11.29-4.663-1.432 0-2.821 0.188-4.142 0.541l0.112-0.025 1.333 1.333c1.546 1.579 3.476 2.776 5.638 3.441l0.095 0.025c1.894 0.554 3.519 1.532 4.828 2.828l-0.001-0.001c1.936 2.004 3.129 4.737 3.129 7.749 0 6.163-4.997 11.16-11.16 11.16-2.287 0-4.413-0.688-6.183-1.868l0.041 0.026c-2.157-1.477-3.745-3.649-4.448-6.189l-0.018-0.078c-0.645-2.217-1.805-4.114-3.345-5.625l-0.002-0.002-1.373-1.333c-0.324 1.203-0.511 2.585-0.511 4.010 0 8.837 7.163 16 16 16s16-7.163 16-16c0-4.426-1.797-8.433-4.702-11.33l-0-0z"></path>
</symbol></defs><use xlink:href="#icon-tennis" stroke="#B1BAD3" fill="#B1BAD3" stroke-width="0px"></use></svg>