<svg xmlns:xlink="http://www.w3.org/1999/xlink" xmlns="http://www.w3.org/2000/svg" class="svg-icon svelte-10mcogx" style="color: var(--grey-400" width="32"  height="32" ><defs><symbol id="icon-wallet-settings" viewBox="0 0 32 32">
<path d="M23.373 14.28h8.627v4.453h-8.627c-1.013 0-1.84-0.827-1.84-1.84v-0.773c0-1.013 0.827-1.84 1.84-1.84z"></path>
<path d="M19.533 16.12v0.773c0 2.12 1.72 3.84 3.84 3.84h8.627v5.96c0 1-0.813 1.813-1.813 1.813h-28.373c-1 0-1.813-0.813-1.813-1.813v-16.84c0.147 0.747 0.72 1.36 1.48 1.547l1.387 0.36c0.133 0.24 0.267 0.48 0.413 0.707l-0.387 1.387c-0.253 0.88 0.12 1.813 0.92 2.28l2.613 1.507c0.8 0.467 1.8 0.32 2.44-0.333l0.973-1.013c0.293 0.013 0.573 0.013 0.867 0l0.973 1.013c0.387 0.4 0.92 0.6 1.44 0.6 0.347 0 0.693-0.080 1-0.267l2.627-1.507c0.787-0.467 1.173-1.4 0.92-2.28l-0.4-1.387c0.147-0.227 0.293-0.467 0.413-0.707l1.387-0.36c0.893-0.213 1.52-1.013 1.52-1.933v-3.027c0-0.92-0.627-1.72-1.507-1.933h11.107c1 0 1.813 0.813 1.813 1.813v5.96h-8.627c-2.12 0-3.84 1.72-3.84 3.84z"></path>
<path d="M32 14.28v4.453h-8.627c-1.013 0-1.84-0.827-1.84-1.84v-0.773c0-1.013 0.827-1.84 1.84-1.84h8.627z"></path>
<path d="M16.267 5.867c-0.16-0.48-0.387-0.933-0.667-1.36-0.147-0.253-0.333-0.493-0.52-0.707l0.667-2.293-2.627-1.507-1.653 1.72c-0.387-0.080-0.787-0.12-1.187-0.12s-0.8 0.040-1.187 0.12l-1.667-1.72-2.613 1.507 0.653 2.307c-0.187 0.213-0.36 0.453-0.507 0.693-0.293 0.427-0.52 0.88-0.667 1.36l-2.333 0.573v3.027l2.333 0.587c0.253 0.76 0.667 1.467 1.173 2.053l-0.653 2.293 2.613 1.507 1.667-1.72c0.387 0.080 0.787 0.12 1.187 0.12s0.8-0.040 1.187-0.12l1.653 1.72 2.627-1.507-0.667-2.293c0.52-0.587 0.933-1.293 1.2-2.053l2.307-0.587v-3.027l-2.32-0.573zM10.28 10.427c-1.36 0-2.467-1.107-2.467-2.467s1.107-2.467 2.467-2.467 2.467 1.107 2.467 2.467-1.107 2.467-2.467 2.467z"></path>
</symbol></defs><use xlink:href="#icon-wallet-settings" stroke="#2F4553" fill="#2F4553" stroke-width="0px"></use></svg>