<svg xmlns:xlink="http://www.w3.org/1999/xlink" xmlns="http://www.w3.org/2000/svg" class="svg-icon svelte-10mcogx" width="32"  height="32" ><defs><symbol id="icon-watford" viewBox="0 0 32 32">
<path d="M25.737 5.597h1.944v-5.597h-23.361v5.597h1.944l-3.888 10.817 13.642 15.586 13.642-15.586-3.888-10.817zM14.812 24.729c-0.792-0.882-0.54-2.538-1.26-5.741-0.342 0.090-3.348-0.288-4.373-0.936-1.512-0.954-2.664-2.916-1.656-4.175 0.45-0.558 1.44-0.594 1.656-1.404 0.072-0.252 0.036-0.486 0-0.594-0.702-2.25-0.324-4.157 0.72-4.715 0.216-0.108 0.594-0.234 1.188-0.126 0.288 0.162 0.594 0.306 0.846 0.54 1.314 1.26 1.8 5.093 4.050 5.597v12.436c-0.522-0.27-0.918-0.576-1.188-0.882zM16 25.611c0.522-0.27 0.918-0.576 1.188-0.882 0.792-0.882 0.54-2.538 1.26-5.741 0.342 0.090 3.348-0.288 4.373-0.936 1.512-0.954 2.664-2.916 1.656-4.175-0.45-0.558-1.44-0.594-1.656-1.404-0.072-0.252-0.036-0.486 0-0.594 0.702-2.25 0.324-4.157-0.72-4.715-0.216-0.108-0.594-0.234-1.188-0.126-0.288 0.162-0.594 0.306-0.846 0.54-1.314 1.26-1.8 5.093-4.050 5.597v-7.577h7.829c1.278 3.636 2.43 6.875 3.708 10.511-3.888 4.535-7.649 8.999-11.555 13.516v-4.014z"></path>
</symbol></defs><use xlink:href="#icon-watford" stroke="#B1BAD3" fill="#B1BAD3" stroke-width="0px"></use></svg>