<svg xmlns:xlink="http://www.w3.org/1999/xlink" xmlns="http://www.w3.org/2000/svg" class="svg-icon svelte-10mcogx" width="32"  height="32" ><defs><symbol id="icon-coupon" viewBox="0 0 32 32">
<path d="M31.645 10.525l-2.775-2.775c-0.591 0.591-1.408 0.957-2.31 0.957-1.804 0-3.267-1.463-3.267-3.267 0-0.902 0.366-1.719 0.957-2.31v0l-2.75-2.775c-0.218-0.22-0.521-0.356-0.855-0.356s-0.637 0.136-0.855 0.356l-0 0-4.45 4.425 11.88 11.88 4.425-4.425c0.22-0.218 0.356-0.521 0.356-0.855s-0.136-0.637-0.356-0.855l-0-0z"></path>
<path d="M13.69 6.43l-13.335 13.335c-0.227 0.22-0.369 0.527-0.369 0.867s0.141 0.648 0.368 0.867l0 0 2.775 2.75c0.591-0.591 1.408-0.957 2.31-0.957 1.804 0 3.267 1.463 3.267 3.267 0 0.902-0.366 1.719-0.957 2.31v0l2.775 2.775c0.218 0.22 0.521 0.356 0.855 0.356s0.637-0.136 0.855-0.356l13.335-13.335z"></path>
</symbol></defs><use xlink:href="#icon-coupon" stroke="#B1BAD3" fill="#B1BAD3" stroke-width="0px"></use></svg>