<svg xmlns:xlink="http://www.w3.org/1999/xlink" xmlns="http://www.w3.org/2000/svg" class="svg-icon svelte-10mcogx" width="32"  height="32" ><defs><symbol id="icon-casino" viewBox="0 0 32 32">
<path d="M6.133 24.173l-6.027-16.56c-0.066-0.179-0.105-0.386-0.105-0.603 0-0.766 0.482-1.419 1.159-1.673l0.012-0.004 9.64-3.507c0.183-0.070 0.394-0.11 0.615-0.11 0.76 0 1.409 0.479 1.661 1.151l0.004 0.012 0.347 0.96-7.093 19.507c-0.087 0.234-0.161 0.512-0.209 0.799l-0.004 0.028zM31.893 8.067l-7.893 21.707c-0.252 0.684-0.898 1.163-1.656 1.163-0.219 0-0.429-0.040-0.623-0.113l0.012 0.004-10.973-4c-0.689-0.258-1.171-0.911-1.171-1.677 0-0.216 0.038-0.423 0.109-0.615l-0.004 0.012 7.893-21.693c0.254-0.689 0.905-1.171 1.668-1.171 0.215 0 0.421 0.038 0.611 0.108l-0.012-0.004 10.973 4c0.689 0.258 1.171 0.911 1.171 1.677 0 0.216-0.038 0.423-0.109 0.615l0.004-0.012zM25.227 16.653l-0.693-1.627c-0.139-0.324-0.455-0.546-0.823-0.546-0.121 0-0.237 0.024-0.343 0.068l0.006-0.002-1.333 0.587c-0.1 0.042-0.215 0.066-0.337 0.066-0.368 0-0.684-0.222-0.821-0.54l-0.002-0.006-0.573-1.333c-0.137-0.319-0.448-0.539-0.811-0.539-0.126 0-0.246 0.027-0.355 0.074l0.006-0.002-1.64 0.693c-0.321 0.132-0.543 0.442-0.543 0.804 0 0.129 0.028 0.251 0.079 0.361l-0.002-0.005 1.96 4.627c0.145 0.318 0.461 0.535 0.827 0.535 0.125 0 0.244-0.025 0.352-0.071l-0.006 0.002 4.613-1.973c0.294-0.143 0.493-0.439 0.493-0.782 0-0.143-0.035-0.277-0.096-0.396l0.002 0.005z"></path>
</symbol></defs><use xlink:href="#icon-casino" stroke="#B1BAD3" fill="#B1BAD3" stroke-width="0px"></use></svg>