<svg xmlns:xlink="http://www.w3.org/1999/xlink" xmlns="http://www.w3.org/2000/svg" class="svg-icon svelte-10mcogx" width="32"  height="32" ><defs><symbol id="icon-archery" viewBox="0 0 32 32">
<path d="M15.984 0c-2.292 0.005-4.469 0.495-6.434 1.374l0.101-0.040v2.2l1 1c1.576-0.754 3.426-1.195 5.379-1.195 7.018 0 12.707 5.689 12.707 12.707s-5.689 12.707-12.707 12.707c-7.018 0-12.707-5.689-12.707-12.707 0-1.953 0.441-3.803 1.228-5.456l-0.033 0.077-1-0.987h-2.2c-0.822 1.863-1.301 4.036-1.301 6.32 0 8.837 7.163 16 16 16s16-7.163 16-16c0-8.837-7.163-16-16-16-0.011 0-0.023 0-0.034 0h0.002z"></path>
<path d="M2.757 7h1.867l1.333 1.333 7.36 7.387c-0.003 0.042-0.005 0.091-0.005 0.14s0.002 0.098 0.005 0.146l-0-0.006c0 1.473 1.194 2.667 2.667 2.667s2.667-1.194 2.667-2.667c0-1.473-1.194-2.667-2.667-2.667v0h-0.28l-8.747-8.707v-4.627h-3.307v3.667h-3.667v3.333z"></path>
<path d="M15.984 22c-3.257-0.006-5.905-2.607-5.987-5.846l-0-0.008-2.92-2.933c-0.271 0.826-0.427 1.776-0.427 2.763 0 0.008 0 0.017 0 0.025v-0.001c0 5.155 4.179 9.333 9.333 9.333s9.333-4.179 9.333-9.333c0-5.155-4.179-9.333-9.333-9.333v0c-0.007-0-0.015-0-0.024-0-0.987 0-1.937 0.156-2.828 0.445l0.065-0.018 2.933 2.92c3.282 0.041 5.927 2.712 5.927 6 0 3.314-2.686 6-6 6-0.026 0-0.052-0-0.077-0l0.004 0z"></path>
</symbol></defs><use xlink:href="#icon-archery" stroke="#B1BAD3" fill="#B1BAD3" stroke-width="0px"></use></svg>