<svg xmlns:xlink="http://www.w3.org/1999/xlink" xmlns="http://www.w3.org/2000/svg" class="svg-icon svelte-10mcogx" width="112"  height="112" ><defs><symbol id="icon-empty-betslip" viewBox="0 0 32 32">
<path fill="#69e244" style="fill: var(--color42, #69e244)" d="M10.573 8.38h-2.447v-1.153c0-0.413 2.447-0.413 2.447 0v1.153z"></path>
<path fill="#263742" style="fill: var(--color36, #263742)" d="M8.055 8.129h15.889c1.387 0 2.511 1.124 2.511 2.511v-0.001c0 1.387-1.124 2.511-2.511 2.511h-15.889c-1.387 0-2.511-1.124-2.511-2.511v0.001c0-1.387 1.124-2.511 2.511-2.511z"></path>
<path fill="#0c1d29" style="fill: var(--color40, #0c1d29)" d="M8.044 9.837h15.913c0.444 0 0.804 0.36 0.804 0.804v-0.001c0 0.444-0.36 0.804-0.804 0.804h-15.913c-0.444 0-0.804-0.36-0.804-0.804v0.001c0-0.444 0.36-0.804 0.804-0.804z"></path>
<path fill="#334552" style="fill: var(--color37, #334552)" d="M23.875 25.862v-15.328h-15.749v15.328c0.462 0 0.837 0.375 0.837 0.837h1.476c0-0.462 0.375-0.837 0.837-0.837s0.837 0.375 0.837 0.837h1.476c0-0.462 0.375-0.837 0.837-0.837s0.837 0.375 0.837 0.837h1.476c0-0.462 0.375-0.837 0.837-0.837s0.837 0.375 0.837 0.837h1.476c0-0.462 0.375-0.837 0.837-0.837s0.837 0.375 0.837 0.837h1.476c0-0.462 0.375-0.837 0.837-0.837z"></path>
<path fill="#263742" style="fill: var(--color36, #263742)" d="M17.477 4.064c0 2.245-1.819 4.064-4.064 4.064s-4.064-1.819-4.064-4.064c0-2.244 1.819-4.064 4.064-4.064s4.064 1.819 4.064 4.064z"></path>
<path fill="#3c8725" style="fill: var(--color41, #3c8725)" d="M10.616 1.117c-0.349 0.332-0.641 0.726-0.856 1.169l1-0.746-0.143-0.422z"></path>
<path fill="#0c1d29" style="fill: var(--color40, #0c1d29)" d="M12.44 2.73l-0.575 1.846 1.58 1.117 1.55-1.156-0.621-1.832-1.934 0.024z"></path>
<path fill="#0c1d29" style="fill: var(--color40, #0c1d29)" d="M17.124 5.722l-0.448 0.005-0.37 1.189c0.338-0.342 0.617-0.744 0.818-1.194z"></path>
<path fill="#0c1d29" style="fill: var(--color40, #0c1d29)" d="M16.663 3.631l0.788-0.010c-0.088-0.813-0.421-1.568-0.933-2.177l-0.476 0.355 0.621 1.832z"></path>
<path fill="#0c1d29" style="fill: var(--color40, #0c1d29)" d="M14.362 0.611l0.143-0.46c-0.141-0.040-0.284-0.072-0.433-0.096-0.623-0.102-1.236-0.058-1.805 0.11l0.159 0.47 1.934-0.024z"></path>
<path fill="#3c8725" style="fill: var(--color41, #3c8725)" d="M9.933 4.49l-0.561 0.006c0.082 0.768 0.381 1.485 0.845 2.076l0.337-0.251-0.621-1.832z"></path>
<path fill="#3c8725" style="fill: var(--color41, #3c8725)" d="M12.236 7.512l-0.125 0.401c0.206 0.069 0.421 0.124 0.644 0.161 0.548 0.090 1.087 0.065 1.595-0.055l-0.18-0.531-1.934 0.024z"></path>
<path fill="#334552" style="fill: var(--color37, #334552)" d="M20.71 6.309c0 0.509-0.209 0.969-0.545 1.298-0.081 0.081-0.169 0.152-0.264 0.215-0.289 0.193-0.636 0.306-1.010 0.306-0.596 0-1.126-0.287-1.457-0.73-0.054-0.070-0.101-0.143-0.142-0.22-0.142-0.259-0.221-0.554-0.221-0.869s0.079-0.611 0.221-0.869c0.041-0.077 0.088-0.15 0.142-0.22 0.33-0.443 0.86-0.73 1.457-0.73 0.374 0 0.721 0.113 1.010 0.306 0.095 0.063 0.183 0.134 0.264 0.215 0.337 0.329 0.545 0.788 0.545 1.298z"></path>
<path fill="#263742" style="fill: var(--color36, #263742)" d="M19.13 6.917h0.049v-0.256h-0.15c-0.020-0.073-0.036-0.147-0.044-0.224h0.141v-0.256h-0.141c0.008-0.077 0.023-0.151 0.044-0.224h0.15v-0.256h-0.049c0.201-0.38 0.586-0.65 1.036-0.69-0.081-0.081-0.169-0.152-0.264-0.215-0.476 0.12-0.867 0.46-1.056 0.905h-0.216v0.256h0.134c-0.017 0.073-0.028 0.147-0.035 0.224h-0.154v0.256h0.154c0.006 0.077 0.018 0.151 0.035 0.224h-0.134v0.256h0.216c0.189 0.445 0.58 0.785 1.056 0.905 0.095-0.063 0.183-0.134 0.264-0.215-0.449-0.040-0.835-0.31-1.036-0.69z"></path>
<path fill="#263742" style="fill: var(--color36, #263742)" d="M18.004 6.437v-0.256h-0.129c-0.006-0.077-0.019-0.151-0.036-0.224h0.111v-0.256h-0.193c-0.077-0.18-0.187-0.344-0.323-0.481-0.054 0.070-0.101 0.143-0.142 0.22 0.070 0.078 0.132 0.166 0.182 0.261h-0.073v0.256h0.174c0.020 0.073 0.036 0.147 0.044 0.224h-0.164v0.256h0.164c-0.008 0.077-0.023 0.151-0.044 0.224h-0.174v0.256h0.073c-0.050 0.095-0.111 0.183-0.182 0.261 0.041 0.077 0.088 0.15 0.142 0.22 0.136-0.137 0.246-0.301 0.323-0.481h0.193v-0.256h-0.111c0.017-0.073 0.029-0.147 0.036-0.224h0.129z"></path>
</symbol></defs><use xlink:href="#icon-empty-betslip" stroke="#B1BAD3" fill="#B1BAD3" stroke-width="0px"></use></svg>