<svg xmlns:xlink="http://www.w3.org/1999/xlink" xmlns="http://www.w3.org/2000/svg" class="svg-icon svelte-10mcogx" width="32"  height="32" ><defs><symbol id="icon-favourite" viewBox="0 0 32 32">
<path d="M16 8l1.547 2.88c0.871 1.609 2.407 2.763 4.229 3.101l0.037 0.006 3.213 0.573-2.253 2.36c-1.050 1.083-1.698 2.563-1.698 4.193 0 0.294 0.021 0.583 0.062 0.866l-0.004-0.032 0.44 3.227-2.773-1.333c-0.818-0.404-1.782-0.641-2.8-0.641s-1.982 0.236-2.838 0.657l0.038-0.017-2.773 1.333 0.44-3.227c0.037-0.25 0.058-0.54 0.058-0.834 0-1.631-0.647-3.11-1.699-4.195l0.002 0.002-2.253-2.427 3.213-0.573c1.86-0.344 3.395-1.498 4.251-3.075l0.016-0.032 1.547-2.813zM16 0.693c-0.001 0-0.002 0-0.003 0-0.66 0-1.233 0.368-1.526 0.911l-0.005 0.009-3.8 7.147c-0.253 0.461-0.693 0.792-1.216 0.892l-0.011 0.002-8 1.44c-0.823 0.145-1.441 0.855-1.441 1.708 0 0.465 0.183 0.887 0.481 1.199l-0.001-0.001 5.613 5.853c0.304 0.306 0.491 0.727 0.491 1.193 0 0.102-0.009 0.201-0.026 0.298l0.002-0.010-1.093 8c-0.011 0.072-0.017 0.155-0.017 0.24 0 0.957 0.776 1.733 1.733 1.733 0.001 0 0.002 0 0.004 0h-0c0.015 0.001 0.034 0.001 0.052 0.001 0.278 0 0.541-0.069 0.77-0.192l-0.009 0.004 7.133-3.44c0.269-0.134 0.585-0.213 0.92-0.213s0.651 0.079 0.932 0.218l-0.012-0.005 7.027 3.44c0.217 0.118 0.476 0.187 0.75 0.187 0.003 0 0.007 0 0.011-0h-0.001c0.017 0.001 0.037 0.001 0.057 0.001 0.957 0 1.733-0.776 1.733-1.733 0-0.085-0.006-0.169-0.018-0.25l0.001 0.009-1.093-8c-0.012-0.076-0.019-0.164-0.019-0.253 0-0.462 0.185-0.882 0.486-1.187l-0 0 5.613-5.853c0.299-0.311 0.483-0.734 0.483-1.2 0-0.85-0.612-1.557-1.419-1.705l-0.011-0.002-8-1.44c-0.546-0.107-0.993-0.454-1.235-0.923l-0.005-0.010-3.8-7.147c-0.297-0.552-0.871-0.92-1.531-0.92-0.001 0-0.002 0-0.003 0h0z"></path>
</symbol></defs><use xlink:href="#icon-favourite" stroke="#B1BAD3" fill="#B1BAD3" stroke-width="0px"></use></svg>