<svg xmlns:xlink="http://www.w3.org/1999/xlink" xmlns="http://www.w3.org/2000/svg" class="svg-icon svelte-10mcogx" width="32"  height="32" ><defs><symbol id="icon-rewards" viewBox="0 0 32 32">
<path d="M14.326 30.25h-8.384c-0.925 0-1.674-0.75-1.674-1.674v-10.058c-0.925 0-1.674-0.75-1.674-1.674v0-3.361c0-0.925 0.75-1.674 1.674-1.674h10.058zM27.732 11.808h-10.058v18.442h8.384c0.925 0 1.674-0.75 1.674-1.674v-10.058c0.925 0 1.674-0.75 1.674-1.674v0-3.361c0-0.925-0.75-1.674-1.674-1.674v0zM22.709 1.75c-3.706 0-6.709 3.004-6.709 6.709h6.709c0.925 0 1.674-0.75 1.674-1.674v0-3.361c0-0.925-0.75-1.674-1.674-1.674v0zM9.291 1.75c-0.925 0-1.674 0.75-1.674 1.674v0 3.361c0 0.925 0.75 1.674 1.674 1.674v0h6.709c0-3.706-3.004-6.709-6.709-6.709v0z"></path>
</symbol></defs><use xlink:href="#icon-rewards" stroke="#B1BAD3" fill="#B1BAD3" stroke-width="0px"></use></svg>