<svg xmlns:xlink="http://www.w3.org/1999/xlink" xmlns="http://www.w3.org/2000/svg" class="svg-icon svelte-10mcogx" width="32"  height="32" ><defs><symbol id="icon-ice-hockey" viewBox="0 0 32 32">
<path d="M1.326 27.133l-1.24 3.080c-0.050 0.135-0.079 0.291-0.079 0.453 0 0.732 0.589 1.325 1.319 1.333h2.667l2.173-6.533h-2.373c-1.11 0.002-2.061 0.683-2.46 1.649l-0.006 0.018z"></path>
<path d="M27.993 0l-12.227 24c-0.439 0.881-1.328 1.479-2.358 1.493l-0.002 0h-4.493l-2.187 6.507h9.173c0.001 0 0.001 0 0.002 0 1.082 0 2.013-0.644 2.431-1.57l0.007-0.017c3.267-7.493 13.653-30.413 13.653-30.413z"></path>
<path d="M3.46 18.987c1.667 1.080 5.333 1.44 8.2 0.827 1.92-0.413 3-1.147 3-1.947v0-2.387c-0.703 0.352-1.519 0.637-2.374 0.815l-0.066 0.012c-1.042 0.229-2.24 0.36-3.467 0.36-0.033 0-0.065-0-0.098-0l0.005 0c-0.070 0.001-0.152 0.002-0.235 0.002-2.085 0-4.067-0.442-5.857-1.238l0.092 0.037v2.4c0.055 0.498 0.363 0.913 0.792 1.116l0.008 0.004z"></path>
<path d="M14.633 11.747c0 1.244-2.674 2.253-5.973 2.253s-5.973-1.009-5.973-2.253c0-1.244 2.674-2.253 5.973-2.253s5.973 1.009 5.973 2.253z"></path>
</symbol></defs><use xlink:href="#icon-ice-hockey" stroke="#B1BAD3" fill="#B1BAD3" stroke-width="0px"></use></svg>