<svg xmlns:xlink="http://www.w3.org/1999/xlink" xmlns="http://www.w3.org/2000/svg" class="svg-icon svelte-10mcogx" width="32"  height="32" ><defs><symbol id="icon-bet-single" viewBox="0 0 32 32">
<path d="M8.067 32l-8.067-8c0.533-0.502 0.864-1.212 0.864-2s-0.332-1.498-0.863-1.999l-0.001-0.001 20-20c0.502 0.533 1.212 0.864 2 0.864s1.498-0.332 1.999-0.863l0.001-0.001 8 8.067c-0.512 0.499-0.829 1.196-0.829 1.967s0.317 1.467 0.829 1.966l0.001 0.001-20 20c-0.499-0.512-1.196-0.829-1.967-0.829s-1.467 0.317-1.966 0.829l-0.001 0.001z"></path>
</symbol></defs><use xlink:href="#icon-bet-single" stroke="#D5DCEB" fill="#D5DCEB" stroke-width="0px"></use></svg>