<svg xmlns:xlink="http://www.w3.org/1999/xlink" xmlns="http://www.w3.org/2000/svg" class="svg-icon svelte-10mcogx" width="32"  height="32" ><defs><symbol id="icon-provider-slots" viewBox="0 0 32 32">
<path d="M18.933 15.693c-1.169 2.206-1.859 4.822-1.867 7.598v1.669h-6.293c0.014-2.753 0.627-5.36 1.714-7.701l-0.048 0.114c1.229-2.693 2.733-5.012 4.524-7.076l-0.030 0.036h-9.333v-4.88h16.4v2.587c-1.85 2.236-3.531 4.744-4.95 7.412l-0.117 0.241z"></path>
<path d="M27.733 21.107c-0.964 1.213-1.665 2.679-1.989 4.281l-0.011 0.065-0.2 1-5.533-1.013c0.602-3.015 2.2-5.584 4.431-7.409l0.023-0.018-4-0.787 1.68-3.547 9.867 1.947-0.307 1.547c-1.46 1.196-2.757 2.485-3.922 3.887l-0.038 0.047z"></path>
<path d="M8.227 19.427c-0.184 0.719-0.29 1.544-0.29 2.393s0.106 1.675 0.305 2.463l-0.015-0.069 0.24 1-5.427 1.333c-0.231-0.904-0.364-1.942-0.364-3.011 0-2.051 0.489-3.989 1.357-5.701l-0.033 0.072-4 0.947v-3.893l9.787-2.347 0.373 1.533c-0.761 1.505-1.422 3.262-1.893 5.096l-0.040 0.184z"></path>
</symbol></defs><use xlink:href="#icon-provider-slots" stroke="#B1BAD3" fill="#B1BAD3" stroke-width="0px"></use></svg>