<svg xmlns:xlink="http://www.w3.org/1999/xlink" xmlns="http://www.w3.org/2000/svg" class="svg-icon svelte-10mcogx" width="32"  height="32" ><defs><symbol id="icon-sports" viewBox="0 0 32 32">
<path d="M18.22 0.28c0.004-0.018 0.006-0.039 0.006-0.060s-0.002-0.042-0.007-0.062l0 0.002c-0.666-0.101-1.436-0.159-2.219-0.16h-0.001c-4.442 0.002-8.461 1.814-11.359 4.739l-0.001 0.001c5.124 2.201 9.535 5.002 13.42 8.391l-0.060-0.051c2-3.32 2-7.8 0.22-12.8z"></path>
<path d="M15.44 16.1c-3.779-3.329-8.183-6.063-12.996-7.992l-0.304-0.108c-1.345 2.293-2.14 5.051-2.14 7.994 0 0.002 0 0.004 0 0.007v-0c0.009 0.715 0.060 1.408 0.15 2.089l-0.010-0.089c6.12 1.5 11.68 0.94 15.3-1.9z"></path>
<path d="M20.94 31.22c1.782-0.594 3.327-1.423 4.699-2.469l-0.039 0.029c-0.74-1.34-1.5-2.66-2.36-4-1.283 1.804-2.117 4.009-2.297 6.397l-0.003 0.043z"></path>
<path d="M18.36 18.86c-3.086 2.427-7.027 3.893-11.311 3.893-0.242 0-0.483-0.005-0.723-0.014l0.035 0.001c-1.821-0.017-3.59-0.191-5.308-0.509l0.188 0.029c2.501 5.774 8.149 9.74 14.725 9.74 0.012 0 0.025 0 0.037-0h0.878c0.072-3.977 1.526-7.601 3.901-10.425l-0.021 0.025q-1.14-1.42-2.4-2.74z"></path>
<path d="M21.020 15.86c0.98 1.020 2 2 2.84 3.16 2.146-1.263 4.727-2.009 7.483-2.009 0.182 0 0.363 0.003 0.543 0.010l-0.026-0.001c0-0.34 0-0.68 0-1.040-0.005-6.37-3.732-11.868-9.123-14.438l-0.097-0.041c0.533 1.607 0.841 3.457 0.841 5.378 0 3.314-0.915 6.414-2.505 9.061l0.044-0.080z"></path>
<path d="M28.56 26c1.102-1.39 1.993-3.010 2.587-4.767l0.033-0.113c-1.793 0.006-3.48 0.456-4.957 1.248l0.057-0.028q1.2 1.66 2.28 3.66z"></path>
</symbol></defs><use xlink:href="#icon-sports" stroke="#B1BAD3" fill="#B1BAD3" stroke-width="0px"></use></svg>