<svg xmlns:xlink="http://www.w3.org/1999/xlink" xmlns="http://www.w3.org/2000/svg" class="svg-icon svelte-10mcogx" width="32"  height="32" ><defs><symbol id="icon-fire" viewBox="0 0 32 32">
<path d="M3.67 21.205c0.5-6.395 7.37-12.655 8.97-15 1.39-2.105 0.86-4.605 0.415-5.705-0.011-0.035-0.018-0.075-0.018-0.117 0-0.215 0.175-0.39 0.39-0.39 0.026 0 0.051 0.003 0.075 0.007l-0.002-0c6.95 1.46 7.3 6.745 7.090 9.11s0.21 3.96 1.74 3.615 1.015-4.225 1.015-4.225 7.025 8.345 4.45 16.55c-1.295 4.29-4.52 6.1-7.23 6.95-0.14 0.070-0.28-0.070-0.28-0.275 0.35-1.32 1.255-2.365 1.53-3.825 0.56-2.4-1.665-4.61-3.315-5.86-1.032-0.769-1.694-1.986-1.694-3.358 0-0.064 0.001-0.128 0.004-0.191l-0 0.009c0-0.14-0.21-0.21-0.275-0.14-1.086 1.308-2.177 2.487-3.329 3.604l-0.011 0.011c-2.57 2.85-3.895 6.050-1.6 9.595 0.070 0.14-0.070 0.345-0.205 0.28-5.705-1.535-8.065-5.85-7.72-10.645z"></path>
</symbol></defs><use xlink:href="#icon-fire" stroke="#B1BAD3" fill="#B1BAD3" stroke-width="0px"></use></svg>