<svg xmlns:xlink="http://www.w3.org/1999/xlink" xmlns="http://www.w3.org/2000/svg" class="svg-icon svelte-10mcogx" width="32"  height="32" ><defs><symbol id="icon-starting-soon" viewBox="0 0 32 32">
<path d="M12.347 0.003h7.32v3.653h-7.32v-3.653z"></path>
<path d="M25.547 10.67l1.893-2.173-2.76-2.4-1.933 2.24c-1.915-1.214-4.247-1.934-6.747-1.934s-4.832 0.72-6.799 1.965l0.052-0.031-1.933-2.213-2.76 2.4 1.893 2.147c-2.019 2.253-3.253 5.246-3.253 8.527 0 7.069 5.731 12.8 12.8 12.8s12.8-5.731 12.8-12.8c0-3.281-1.234-6.273-3.264-8.539l0.011 0.012zM16 19.203l-5.88 5.853c-1.494-1.5-2.418-3.569-2.418-5.853 0-4.58 3.713-8.293 8.293-8.293 0.002 0 0.003 0 0.005 0h-0z"></path>
</symbol></defs><use xlink:href="#icon-starting-soon" stroke="#B1BAD3" fill="#B1BAD3" stroke-width="0px"></use></svg>